<svg width="120" height="41" viewBox="0 0 120 41" fill="none" xmlns="http://www.w3.org/2000/svg">
<path d="M10.7794 0V10.7794H0L9.92365 0H10.7794Z" fill="#06A7E0"/>
<path d="M0 21.5587V10.7793H10.7794L0.87076 21.5587H0Z" fill="#2574BB"/>
<path d="M19.2922 26.2129C18.5115 26.2129 17.9561 26.7684 17.9561 27.5491C17.9561 28.3297 18.5866 28.8852 19.2922 28.8852C20.0729 28.8852 20.6284 28.3297 20.6284 27.5491C20.7035 26.8434 20.0729 26.2129 19.2922 26.2129Z" fill="#55575A"/>
<path d="M73.4289 26.2129C72.6483 26.2129 72.0928 26.7684 72.0928 27.5491C72.0928 28.3297 72.7233 28.8852 73.4289 28.8852C74.2096 28.8852 74.7651 28.3297 74.7651 27.5491C74.7801 26.8434 74.1496 26.2129 73.4289 26.2129Z" fill="#55575A"/>
<path d="M95.5584 35.6571C94.3724 35.6571 93.5166 34.7863 93.5166 33.5252C93.5166 32.2641 94.3874 31.4835 95.5584 31.4835C96.7444 31.4835 97.6002 32.2641 97.6002 33.5252C97.6002 34.7863 96.7294 35.6571 95.5584 35.6571ZM95.5584 29.5918C93.0362 29.5918 91.3848 31.1682 91.3848 33.5252C91.3848 35.8823 93.0362 37.5337 95.5584 37.5337C98.0055 37.5337 99.657 35.9574 99.657 33.5252C99.642 31.1682 97.9905 29.5918 95.5584 29.5918Z" fill="#55575A"/>
<path d="M36.6016 31.5574V35.656C36.1362 35.7311 35.5807 35.7311 34.8751 35.7311C33.4638 35.7311 32.9834 34.7853 32.9834 33.5992C32.9834 32.4132 33.5389 31.4674 34.8751 31.4674C35.5807 31.4824 36.1362 31.4824 36.6016 31.5574ZM30.8516 33.5242C30.9266 35.9713 32.1877 37.4576 34.5448 37.4576C36.1212 37.4576 36.9919 37.3075 38.7184 37.1423V30.0561C36.9919 29.8159 36.1212 29.7409 34.5448 29.7409C32.1877 29.6658 30.9416 31.2422 30.8516 33.5242Z" fill="#55575A"/>
<path d="M68.3242 31.5574V35.656C67.8588 35.7311 67.3033 35.7311 66.5977 35.7311C65.1865 35.7311 64.7061 34.7853 64.7061 33.5992C64.7061 32.4132 65.2616 31.4674 66.5977 31.4674C67.3033 31.4824 67.8438 31.4824 68.3242 31.5574ZM62.5742 33.5242C62.6493 35.9713 63.9104 37.4576 66.2674 37.4576C67.8438 37.4576 68.7146 37.3075 70.4411 37.1423V30.0561C68.7146 29.8159 67.8438 29.7409 66.2674 29.7409C63.9104 29.6658 62.6493 31.2422 62.5742 33.5242Z" fill="#55575A"/>
<path d="M26.9929 19.6828H21.6483V17.1606L25.0262 16.2147C25.7318 16.0646 26.3624 15.9745 26.9179 15.9745C28.254 15.9745 29.0497 16.6801 29.0497 17.7911C28.9747 18.8871 28.179 19.6828 26.9929 19.6828ZM26.9179 14.0078C26.1372 14.0078 25.1914 14.1579 24.5608 14.3982L21.6483 15.2689V14.0078H20.4623L19.5164 15.0287V20.2983C19.5164 22.1149 18.4955 23.1358 16.769 23.1358C15.0425 23.1358 14.0967 22.1149 14.0967 20.1482C14.0967 19.5176 14.1718 18.7369 14.412 17.8662L14.487 17.4008L13.4662 17.1606L12.2051 18.0313C12.0549 18.7369 11.9648 19.4426 11.9648 20.2382C11.9648 23.1508 13.9316 25.1175 16.769 25.1175C17.3996 25.1175 18.0301 25.0424 18.6607 24.8022C20.162 24.3368 21.1829 23.0757 21.4982 21.5744H21.5732H26.9179C29.365 21.5744 31.0165 19.998 31.0165 17.716C31.0915 15.5842 29.4401 14.0078 26.9179 14.0078Z" fill="#55575A"/>
<path d="M40.7761 24.0052C40.7761 23.2996 40.2206 22.7441 39.515 22.7441C38.8094 22.7441 38.2539 23.2996 38.2539 24.0052C38.2539 24.7109 38.8094 25.2663 39.515 25.2663C40.2206 25.2663 40.7761 24.7109 40.7761 24.0052Z" fill="#55575A"/>
<path d="M35.3408 24.0052C35.3408 24.7109 35.8963 25.2663 36.6019 25.2663C37.3075 25.2663 37.863 24.7109 37.863 24.0052C37.863 23.2996 37.3075 22.7441 36.6019 22.7441C35.8963 22.7441 35.3408 23.2996 35.3408 24.0052Z" fill="#55575A"/>
<path d="M23.7662 13.7663C24.4718 13.7663 25.0273 13.2109 25.0273 12.5052C25.0273 11.7996 24.4718 11.2441 23.7662 11.2441C23.0606 11.2441 22.5051 11.7996 22.5051 12.5052C22.43 13.2259 23.0606 13.7663 23.7662 13.7663Z" fill="#55575A"/>
<path d="M117.987 19.6826H116.336C114.684 19.6826 114.444 18.5866 114.444 17.956V17.8059C114.444 17.1754 114.684 16.0794 116.171 16.0794C117.672 16.1545 117.897 17.1754 117.897 17.8059V19.6976L117.987 19.6826ZM102.719 19.6826H97.3744V17.1604L100.752 16.2145C101.458 16.0644 102.089 15.9743 102.644 15.9743C103.98 15.9743 104.776 16.6799 104.776 17.7909C104.776 18.9019 103.98 19.6826 102.719 19.6826ZM116.246 14.0076C116.171 14.0076 116.171 14.0076 116.246 14.0076C113.964 14.0076 112.387 15.4188 112.312 17.5507V17.7008C112.312 18.4064 112.072 19.6675 110.421 19.6675H108.604C107.028 19.6675 106.713 18.4064 106.713 17.7008C106.713 15.4188 105.061 14.0827 102.539 14.0827C101.758 14.0827 100.812 14.2328 100.182 14.473L97.2693 15.3438V10.8549H96.0833L95.1375 11.8757V19.7426H90.8137C89.1622 19.7426 88.9971 18.5566 88.9971 17.851V10.8398H87.8111L86.8652 11.8607V17.941C86.8652 20.223 88.4416 21.7243 90.7236 21.7243H102.689C103.95 21.7243 104.971 21.334 105.677 20.6284C106.382 21.334 107.328 21.7243 108.514 21.7243H110.556C111.742 21.7243 112.688 21.334 113.303 20.7034C114.009 21.334 114.955 21.7243 116.141 21.7243C118.107 21.7243 119.999 21.2589 119.999 21.2589V17.7158C120.029 15.5089 118.528 14.0827 116.246 14.0076Z" fill="#55575A"/>
<path d="M80.4401 10.7793H79.254L78.3232 11.8002V21.6488H80.4401V10.7793Z" fill="#55575A"/>
<path d="M53.4467 17.6253V10.7793H52.2607L51.3148 11.8002V17.6253C51.3148 18.4059 51.0746 19.667 49.4232 19.667H48.5524C46.9761 19.667 46.6608 18.3309 46.6608 17.5352V14.0672H45.4748L44.5289 15.0881V21.5437C44.5289 21.6938 44.5289 21.859 44.4539 22.0091C44.2137 22.6396 43.508 22.9549 42.8024 23.1051L42.1719 23.2552L42.4121 24.2761L43.7482 25.0568C45.3997 24.6664 46.4206 23.4053 46.6608 21.6788V21.1233C47.2163 21.3635 47.7567 21.5137 48.4774 21.5137H49.5733C51.8703 21.6488 53.4467 20.0724 53.4467 17.6253Z" fill="#55575A"/>
<path d="M85.0036 21.1682V14.082H83.8175L82.8717 15.1029V21.5586C82.8717 21.7087 82.8717 21.8738 82.7966 22.024C82.5564 22.6545 81.8508 22.9698 81.1452 23.1199L80.5146 23.27L80.7549 24.2909L82.091 25.0716C83.9076 24.7113 85.0036 23.21 85.0036 21.1682Z" fill="#55575A"/>
<path d="M71.0726 15.3425C71.7782 15.3425 72.3337 14.787 72.3337 14.0814C72.3337 13.3758 71.7782 12.8203 71.0726 12.8203C70.367 12.8203 69.8115 13.3758 69.8115 14.0814C69.8115 14.802 70.367 15.3425 71.0726 15.3425Z" fill="#55575A"/>
<path d="M68.2347 15.3425C68.9403 15.3425 69.4958 14.787 69.4958 14.0814C69.4958 13.3758 68.9403 12.8203 68.2347 12.8203C67.5291 12.8203 66.9736 13.3758 66.9736 14.0814C66.8985 14.802 67.454 15.3425 68.2347 15.3425Z" fill="#55575A"/>
<path d="M73.9845 15.1038V17.8512C73.9845 18.5568 73.7443 19.6678 72.1679 19.6678H66.5831C65.4871 19.6678 64.6914 18.8871 64.6914 17.9412C64.6914 17.2356 64.9316 16.3649 65.0818 15.8995L65.2319 15.344L64.211 15.1038L62.8748 16.0496C62.7247 16.6801 62.5596 17.3107 62.5596 17.8662C62.5596 20.2232 64.211 21.6495 66.7332 21.6495H72.258C74.54 21.6495 76.1164 20.0731 76.1164 17.7911V14.0078H74.9304L73.9845 15.1038Z" fill="#55575A"/>
<path d="M55.4131 11.8002V21.6488H57.5449V10.7793H56.3589L55.4131 11.8002Z" fill="#55575A"/>
<path d="M36.2863 21.6483H38.4933C40.7752 21.6483 42.3516 20.0719 42.3516 17.7149V14.0216H41.1656L40.2198 15.0425V17.6398C40.2198 18.3454 39.9796 19.6065 38.3281 19.6065H36.3614C34.71 19.6065 34.4697 18.3454 34.4697 17.6398V10.7188H33.2837L32.3379 11.7396V17.7149C32.503 20.0719 34.0043 21.6483 36.2863 21.6483Z" fill="#55575A"/>
<path d="M12.9107 29.9811L11.9648 31.077V37.3074H14.0967V31.8727C14.9675 31.7976 15.8232 31.7976 16.694 31.7976V29.7559C15.9133 29.7559 14.9675 29.8309 14.0967 29.906C13.6914 29.906 13.301 29.9811 12.9107 29.9811Z" fill="#55575A"/>
<path d="M77.3775 29.9811L76.4316 31.0019V37.2174H78.5635V31.8727C79.4343 31.7976 80.29 31.7976 81.1608 31.7976V29.7559C80.3801 29.7559 79.4343 29.8309 78.5635 29.906C78.1581 29.906 77.7678 29.9811 77.3775 29.9811Z" fill="#55575A"/>
<path d="M102.164 29.9811L101.218 31.0019V37.2174H103.35V31.8727C104.22 31.7976 105.076 31.7976 105.947 31.7976V29.7559C105.166 29.7559 104.22 29.8309 103.35 29.906C102.944 29.906 102.554 29.9811 102.164 29.9811Z" fill="#55575A"/>
<path d="M18.2705 31.0022V37.2326H20.3874V29.9062H19.2013L18.2705 31.0022Z" fill="#55575A"/>
<path d="M72.333 31.0022V37.2326H74.4649V29.9062H73.3539L72.333 31.0022Z" fill="#55575A"/>
<path d="M110.737 35.5806C109.866 35.5806 109.551 35.1152 109.551 34.3195V31.7973H111.833V29.7555H109.551V27.3984H108.365L107.419 28.4193V34.7098C107.494 36.5264 108.44 37.5473 110.256 37.5473C111.202 37.5473 111.593 37.4722 112.388 37.3071L112.148 35.5806H110.737Z" fill="#55575A"/>
<path d="M28.0293 29.9062L27.7891 30.3867L25.9725 34.3201L23.6905 29.9062H22.8347L21.7988 31.0022L24.8014 36.7522L22.9098 40.7757H25.2669L29.7558 31.4076L29.9059 31.0022L28.9751 29.9062H28.0293Z" fill="#55575A"/>
<path d="M117.508 32.8194C116.412 32.5792 115.616 32.5792 115.616 32.0387C115.616 31.6484 116.006 31.4081 116.637 31.4081C117.898 31.4081 119.474 31.9636 119.474 31.9636L119.624 31.3331L119.474 31.0929L118.919 30.072C118.919 30.072 118.528 29.9969 118.453 29.9218C117.898 29.7717 117.267 29.6816 116.637 29.6816C114.67 29.6816 113.409 30.5524 113.409 32.1288C113.409 33.3899 114.28 34.0204 115.931 34.3357C116.877 34.4858 117.898 34.5759 117.898 35.2065C117.898 35.5968 117.342 35.7619 116.637 35.7619C115.931 35.7619 114.91 35.6118 113.649 35.1314L113.259 36.8579C114.52 37.3233 115.706 37.4884 116.562 37.4884C118.528 37.4884 119.865 36.7078 119.865 35.0413C120.105 33.6901 119.249 33.2097 117.508 32.8194Z" fill="#55575A"/>
<path d="M54.4673 29.6655C53.7617 29.6655 52.966 29.7406 52.1853 29.8157V26.3477H51.0894L50.1436 27.3685V37.2021H52.2754V31.7674C52.906 31.6923 53.4614 31.6172 54.0019 31.6172C54.8727 31.6172 55.4131 32.1727 55.4131 33.1186V37.2171H57.545V32.503C57.545 30.8516 56.2839 29.6655 54.4673 29.6655Z" fill="#55575A"/>
<path d="M45.9697 35.6557C45.5043 35.7307 44.9488 35.7307 44.2432 35.7307C42.832 35.7307 42.3516 34.7849 42.3516 33.5989V33.5238C42.3516 32.3378 42.817 31.482 44.3934 31.482C44.7837 31.482 45.4893 31.5571 45.9697 31.6322V35.6557ZM45.9697 27.4735V29.9207C45.5043 29.8456 44.6336 29.7705 44.0781 29.7705C41.5559 29.7705 40.2197 31.2718 40.2197 33.6289V33.704C40.2948 36.061 41.5559 37.5623 43.9129 37.5623C45.4893 37.5623 46.3601 37.4122 48.0866 37.247V26.3926H46.9006L45.9697 27.4735Z" fill="#55575A"/>
<path d="M86.4157 35.5812C85.9503 35.5812 85.4699 35.5812 84.5241 35.431V31.4976C84.9895 31.4225 85.545 31.4225 86.2506 31.4225C87.6618 31.4225 88.2173 32.3684 88.2173 33.5544C88.2173 34.7404 87.4516 35.5812 86.4157 35.5812ZM86.5809 29.666C85.4849 29.666 84.2989 29.7411 83.3531 29.9062L82.4072 30.9271V40.7607H84.5391V37.2176C85.4098 37.2927 86.0404 37.2927 86.746 37.2927C88.7878 37.2927 90.2891 35.7914 90.2891 33.5094C90.199 31.2424 88.9379 29.666 86.5809 29.666Z" fill="#55575A"/>
</svg>
