<svg width="80" height="59" viewBox="0 0 80 59" fill="none" xmlns="http://www.w3.org/2000/svg">
<path d="M40.0348 4.43158C37.1709 1.71837 33.3527 0.204475 29.3851 0.242486H22.9141V2.68045H29.3366C32.7105 2.67258 35.9558 3.96627 38.3794 6.28758C37.2168 7.77002 36.3451 9.45562 35.8077 11.2539C34.9033 9.96811 33.6974 8.9156 32.2923 8.18552C30.8872 7.45675 29.3262 7.0727 27.7389 7.06746H22.9141V9.26163H27.7087C29.6696 9.26163 31.5492 10.0336 32.9359 11.4073C34.3227 12.7783 35.1026 14.6369 35.1026 16.5768V25.1071H37.5405V15.4548C37.6061 12.7731 38.4541 10.1608 40.0361 7.98104C41.6182 10.1608 42.4662 12.7731 42.4151 15.4548V25.3509H44.8531V16.6895C44.8531 14.7182 45.6356 12.8294 47.025 11.4388C48.4143 10.0481 50.2939 9.26294 52.2548 9.26294H57.0403V6.82498H52.2246C50.6373 6.83284 49.0763 7.21689 47.6712 7.94303C46.2661 8.6718 45.0602 9.72432 44.1558 11.0115C43.6184 9.21313 42.7454 7.52753 41.5841 6.04509C44.005 3.72641 47.2504 2.43272 50.6242 2.43796H57.039V0H50.6806C46.7143 0.204474 42.8975 1.71575 40.0348 4.43158Z" fill="url(#paint0_linear_4529_3382)"/>
<path d="M8.41227 38.6257C6.20369 38.1092 6.20369 37.024 6.20369 36.6687C6.20369 35.5861 7.05698 34.8573 8.32446 34.8573H11.2133V33.3945H8.19469C7.3768 33.3998 6.57725 33.6187 5.87339 34.0263C5.42119 34.2911 5.05156 34.6699 4.7999 35.1247C4.54824 35.5795 4.42241 36.0946 4.44207 36.615C4.44207 38.8537 6.32559 39.5733 8.1711 39.9679C10.3797 40.4515 10.3797 41.5407 10.3797 41.8999C10.3797 43.2512 9.55261 44.1189 8.27596 44.1189H3.08415C2.2112 44.1189 1.70788 43.8634 1.70788 42.5605V38.9992H0V42.6391C0 43.3312 0.222823 45.5817 3.09988 45.5817H8.32708C10.5252 45.5817 12.1859 44.0141 12.1859 41.9353C12.1859 39.4685 9.91831 38.9389 8.41752 38.5981" fill="#333333"/>
<path d="M79.9546 30.4688H78.248V42.901H79.9546V30.4688Z" fill="#333333"/>
<path d="M18.5259 31.2012H16.8193V32.9077H18.5259V31.2012Z" fill="#333333"/>
<path d="M42.9029 31.2012H41.1963V32.9077H42.9029V31.2012Z" fill="#333333"/>
<path d="M56.065 31.2012H54.3584V32.9077H56.065V31.2012Z" fill="#333333"/>
<path d="M65.0845 31.2012H63.3779V32.9077H65.0845V31.2012Z" fill="#333333"/>
<path d="M67.522 31.2012H65.8154V32.9077H67.522V31.2012Z" fill="#333333"/>
<path d="M28.52 44.1211H26.8135V45.8277H28.52V44.1211Z" fill="#333333"/>
<path d="M30.9585 44.1211H29.252V45.8277H30.9585V44.1211Z" fill="#333333"/>
<path d="M5.60599 46.3125H3.89941V48.0191H5.60599V46.3125Z" fill="#333333"/>
<path d="M8.28763 46.3125H6.58105V48.0191H8.28763V46.3125Z" fill="#333333"/>
<path d="M74.8337 38.9747C74.8337 40.3248 74.1115 41.0902 72.7405 41.1951H68.3994C67.107 41.1951 66.3035 40.5214 66.3035 39.4361V35.344H64.5969V39.3706C64.5969 40.4939 63.8459 41.1938 62.6544 41.1938L58.2595 41.1597C56.8872 41.1597 56.0654 40.4939 56.0654 39.3942V35.3427H54.3588V39.3378C54.3588 40.4611 53.6353 41.1925 52.4333 41.1925H43.9437C44.679 40.4559 46.0396 38.8397 45.801 37.1567C45.5048 35.2273 44.0669 34.0254 42.0471 34.0254C40.0259 34.0254 38.5763 35.1933 38.2774 37.1567C38.0559 38.8515 39.402 40.4572 40.1347 41.1925H31.9361C30.5585 41.1925 29.738 40.5345 29.738 39.4282V35.5878H28.0314V39.6065C28.0314 40.735 27.2581 41.4389 26.0195 41.4389H19.5982L19.4999 41.3458V38.6287C19.4999 37.5919 19.4619 37.2642 19.184 36.7675C18.6846 35.8486 17.737 35.3204 16.5809 35.3204C16.3646 35.3204 16.0238 35.3545 15.9858 35.3571L15.5992 35.3938V36.8068H16.5062C17.809 36.8068 18.0371 37.6339 18.0371 39.4846V41.3458L17.9401 41.4389H13.8926V42.9017H25.9172L26.4808 42.8886C27.5727 42.8257 28.4115 42.4206 28.9817 41.6827H29.1207C29.6987 42.3944 30.5979 42.806 31.7369 42.8886L32.3005 42.9017H39.9368C39.9368 42.9017 41.3943 42.8152 42.089 42.6579H42.1598C42.8466 42.8178 44.295 42.9017 44.295 42.9017H52.1882L52.7584 42.8558C53.9079 42.7942 54.7926 42.401 55.3916 41.6827H55.3235C55.9736 42.4193 56.9934 42.8401 58.2897 42.9017L62.1773 43.1455L63.0306 43.1324C64.1224 43.0695 64.9613 42.6644 65.5315 41.9265H65.6704C66.2484 42.6382 67.1476 43.0498 68.2879 43.1324L68.8515 43.1455H72.4469L73.0249 43.1245C75.1942 42.9397 76.5429 41.3878 76.5429 39.0717V30.4707H74.8364L74.8285 38.9695L74.8337 38.9747ZM42.1834 40.7075H42.0759C40.5869 39.8477 39.8215 38.516 40.0207 37.141C40.0993 36.6456 40.3523 36.1947 40.7377 35.8709C41.123 35.5472 41.6132 35.3663 42.1192 35.3663C42.6264 35.3663 43.1166 35.5445 43.5007 35.8709C43.886 36.1947 44.139 36.6456 44.2177 37.141C44.4182 38.5107 43.654 39.8424 42.1795 40.7075H42.1834Z" fill="#333333"/>
<path d="M3.29394 50.2148L0.0878906 58.015H1.64766L2.46163 55.8208H4.62433L5.40422 58.015H7.27856L4.33204 50.2148H3.29394ZM2.91252 54.6032L3.56788 52.8481L4.19441 54.6032H2.91252Z" fill="#333333"/>
<path d="M11.1279 56.796H10.9693V50.2148H9.2627V58.015H13.651V56.6768L13.2277 56.7082C12.5448 56.7633 11.7806 56.7934 11.1252 56.7934L11.1279 56.796Z" fill="#333333"/>
<path d="M15.5547 51.6776L16.003 51.5793C16.5272 51.5203 17.5824 51.4338 17.5824 51.4338H17.7947V58.015H19.5013V51.4338H19.905C20.4345 51.4286 20.9667 51.4548 21.4936 51.5112L21.9379 51.5505V50.2148H15.6006V51.6776H15.5547Z" fill="#333333"/>
<path d="M27.0071 50.2148L23.8037 58.015H25.3635L26.184 55.8208H28.3467L29.1266 58.015H31.0009L28.0479 50.2148H27.0098H27.0071ZM26.6257 54.6032L27.2811 52.8481L27.9076 54.6032H26.6257Z" fill="#333333"/>
<path d="M38.0292 55.0888L34.3487 50.2129H32.9082V58.013H34.1272V53.1057L38.1642 58.013H39.2469V50.2129H38.0279V55.0888H38.0292Z" fill="#333333"/>
<path d="M41.1989 58.0143H42.9029V54.845H43.0143C43.6631 54.845 44.27 54.845 44.9214 54.8909L45.3395 54.9197V53.5539L44.9214 53.5828C44.2752 53.6286 43.6657 53.6286 43.0143 53.6286H42.9029V51.4345H43.5032C44.207 51.4227 44.9122 51.4515 45.6135 51.5197L46.0722 51.5695V50.2168H41.1963V58.0196L41.1989 58.0143Z" fill="#333333"/>
<path d="M57.0349 56.796H56.3101V54.6019H56.4307C56.9589 54.6019 57.7545 54.6019 58.5396 54.6595L58.9918 54.6897V53.32L58.5501 53.3409C57.9223 53.3685 57.2302 53.3829 56.432 53.3829H56.3114V51.4325H56.9484C57.647 51.4273 58.343 51.4561 59.0351 51.5203L59.4794 51.561V50.2148H54.6035V58.015H59.4794V56.6833L59.043 56.7187C58.3994 56.7724 57.7794 56.796 57.0349 56.796Z" fill="#333333"/>
<path d="M61.5005 51.6776L61.9487 51.5793C62.473 51.5203 63.5255 51.4338 63.5255 51.4338H63.865V58.015H65.5716V51.4338H65.7315C66.261 51.4286 66.7932 51.4548 67.3214 51.5112L67.7671 51.5505V50.2148H61.4297V51.6776H61.5005Z" fill="#333333"/>
<path d="M74.8355 53.3842H71.4224V50.2148H69.7158V58.015H71.4224V54.6019H74.8355V58.015H76.5421V50.2148H74.8355V53.3842Z" fill="#333333"/>
<path d="M79.9546 50.2148H78.248V58.015H79.9546V50.2148Z" fill="#333333"/>
<path d="M50.4591 56.796H49.484V54.6019H49.7225C49.7225 54.6019 51.007 54.7618 51.7673 54.8181L52.1644 54.847V53.455L51.7738 53.4773C51.1643 53.5061 50.4945 53.5205 49.7186 53.6267H49.7264V51.4325H50.3543C51.0529 51.4273 51.7528 51.4561 52.4488 51.5203L52.8945 51.561V50.2148H48.0186V58.015H52.8945V56.7606L52.4514 56.7973C51.7935 56.8537 51.1591 56.8773 50.3988 56.8773" fill="#333333"/>
<defs>
<linearGradient id="paint0_linear_4529_3382" x1="70.9393" y1="26.0562" x2="15.3517" y2="-4.12887" gradientUnits="userSpaceOnUse">
<stop stop-color="#793F27"/>
<stop offset="0.03" stop-color="#793F27"/>
<stop offset="0.28" stop-color="#8A593C"/>
<stop offset="0.5" stop-color="#B88168"/>
<stop offset="0.65" stop-color="#A16F52"/>
<stop offset="0.82" stop-color="#8A593C"/>
<stop offset="1" stop-color="#793F27"/>
</linearGradient>
</defs>
</svg>
