<svg width="120" height="28" viewBox="0 0 120 28" fill="none" xmlns="http://www.w3.org/2000/svg">
<path d="M86.8601 15.2137L84.4467 22.4053H85.4244L85.991 20.6571H88.8673L89.4339 22.4053H90.4116L87.9982 15.2137H86.8701H86.8601ZM86.2434 19.783L87.425 16.0828L88.6066 19.783H86.2434ZM113.855 20.8627V18.09H115.24V17.2694H113.855V15.8538H113.034V17.2694H112.16V18.09H112.981V21.0699C112.981 21.8521 113.534 22.4053 114.316 22.4053H115.394V21.5847H114.573C114.09 21.5847 113.853 21.3473 113.853 20.8643L113.855 20.8627ZM91.309 16.4454H92.1831V15.314H91.309V16.4454ZM91.309 22.4053H92.1831V17.2694H91.309V22.4053ZM114.75 7.32358H113.98C113.539 7.32358 113.26 7.47733 113.086 7.63109C112.982 7.72301 112.902 7.82663 112.849 7.93861V5.57541H111.974V12.5597H112.849V9.16867C112.849 8.55197 113.26 8.14083 113.876 8.14083H114.493C114.976 8.14083 115.213 8.37815 115.213 8.86116V12.5614H116.088V8.65726C116.088 7.8751 115.534 7.3219 114.752 7.3219V7.32358H114.75ZM106.088 17.1658H104.444C103.662 17.1658 103.108 17.719 103.108 18.5011V21.1735C103.108 21.9557 103.662 22.5089 104.444 22.5089H106.088C106.87 22.5089 107.424 21.9557 107.424 21.1735V18.5011C107.425 17.719 106.87 17.1658 106.088 17.1658ZM106.551 20.9663C106.551 21.4493 106.314 21.6866 105.831 21.6866H104.699C104.216 21.6866 103.979 21.4493 103.979 20.9663V18.7067C103.979 18.2237 104.216 17.9864 104.699 17.9864H105.831C106.314 17.9864 106.551 18.2237 106.551 18.7067V20.9663ZM118.817 19.5791L117.685 19.3217C117.274 19.2298 117.069 19.0226 117.069 18.705C117.069 18.2939 117.272 18.0883 117.685 18.0883H119.667V17.2677H117.532C116.749 17.2677 116.196 17.8209 116.196 18.6031V18.807C116.196 19.4738 116.649 19.9267 117.378 20.0922L118.509 20.3496C118.92 20.4415 119.126 20.6487 119.126 20.9663C119.126 21.3774 118.922 21.583 118.509 21.583H116.2V22.4036H118.665C119.447 22.4036 120 21.8504 120 21.0682V20.8643C119.998 20.1992 119.545 19.7446 118.817 19.5791ZM87.9882 11.1258V5.57875H87.064V10.9219C87.064 11.4968 86.7648 11.7959 86.2434 11.7959H84.4952V12.67H86.4473C87.3832 12.67 87.9882 12.0633 87.9882 11.1291V11.1258ZM90.5352 11.0221V10.509H93.8728V8.6606C93.8728 7.87844 93.3196 7.32524 92.5374 7.32524H90.9965C90.2143 7.32524 89.6611 7.87844 89.6611 8.6606V11.2294C89.6611 12.0115 90.2143 12.5647 90.9965 12.5647H93.6689V11.7441H91.2556C90.7726 11.7441 90.5352 11.5068 90.5352 11.0238V11.0221ZM90.5352 8.86617C90.5352 8.38317 90.7726 8.14585 91.2556 8.14585H92.2834C92.7664 8.14585 93.0037 8.38317 93.0037 8.86617V9.68677H90.5386V8.86617H90.5352ZM109.631 11.9998H109.681L109.835 12.5664H110.452V8.76589C110.452 7.98373 109.899 7.43054 109.117 7.43054H106.857V8.25114H108.859C109.342 8.25114 109.58 8.48846 109.58 8.97146V9.48455H107.781C106.999 9.48455 106.446 10.0377 106.446 10.8199V11.333C106.446 12.1152 106.999 12.6683 107.781 12.6683H108.448C108.889 12.6683 109.168 12.5029 109.364 12.3391C109.476 12.2472 109.559 12.1352 109.631 12.0015V11.9998ZM108.553 11.8461H108.04C107.557 11.8461 107.32 11.6088 107.32 11.1258V11.0221C107.32 10.5391 107.557 10.3018 108.04 10.3018H109.581V10.8149C109.581 11.4316 109.17 11.8427 108.553 11.8427V11.8461ZM104.046 12.3374C104.158 12.2455 104.241 12.1335 104.313 11.9998H104.363L104.517 12.5664H105.134V5.58209H104.26V7.43054H102.258C101.475 7.43054 100.922 7.98373 100.922 8.76589V11.3347C100.922 12.1168 101.475 12.67 102.258 12.67H103.132C103.573 12.67 103.852 12.5046 104.048 12.3408L104.046 12.3374ZM101.795 11.1258V8.96979C101.795 8.48679 102.032 8.24946 102.515 8.24946H104.263V10.8182C104.263 11.4349 103.852 11.8461 103.235 11.8461H102.515C102.03 11.8461 101.795 11.6088 101.795 11.1258ZM100.408 17.1658H99.5334C99.0922 17.1658 98.8131 17.3413 98.6176 17.5034C98.5056 17.5953 98.422 17.7073 98.3502 17.8326H98.3L98.1463 17.2661H97.5296V24.1501H98.4036V22.4019H100.406C101.188 22.4019 101.741 21.8487 101.741 21.0666V18.4978C101.741 17.7156 101.188 17.1624 100.406 17.1624V17.1658H100.408ZM100.87 20.8643C100.87 21.3473 100.633 21.5847 100.15 21.5847H98.402V19.0159C98.402 18.3992 98.8131 17.9881 99.4298 17.9881H100.15C100.633 17.9881 100.87 18.2254 100.87 18.7084V20.8643ZM94.8388 17.5067C94.7268 17.5986 94.6432 17.7106 94.5714 17.836H94.5212L94.3675 17.2694H93.7508V22.4053H94.6249V19.0142C94.6249 18.3975 95.036 17.9864 95.6527 17.9864H96.5769V17.1658H95.7563C95.3151 17.1658 95.036 17.3413 94.8405 17.5034L94.8388 17.5067ZM98.6309 11.9998H98.6811L98.8348 12.5664H99.4515V5.58209H98.5775V7.43054H96.5753C95.7931 7.43054 95.2399 7.98373 95.2399 8.76589V11.3347C95.2399 12.1168 95.7931 12.67 96.5753 12.67H97.4493C97.8906 12.67 98.1697 12.5046 98.3652 12.3408C98.4772 12.2489 98.5607 12.1369 98.6326 12.0032L98.6309 11.9998ZM97.553 11.8461H96.8326C96.3496 11.8461 96.1123 11.6088 96.1123 11.1258V8.96979C96.1123 8.48679 96.3496 8.24946 96.8326 8.24946H98.5808V10.8182C98.5808 11.4333 98.168 11.8461 97.553 11.8461ZM109.981 17.5067C109.869 17.5986 109.785 17.7106 109.713 17.836H109.663L109.509 17.2694H108.893V22.4053H109.767V19.0142C109.767 18.3975 110.178 17.9864 110.795 17.9864H111.719V17.1658H110.898C110.457 17.1658 110.178 17.3413 109.982 17.5034L109.981 17.5067ZM3.53143 5.58377H8.28289L3.53143 8.41492V22.5456C3.52809 23.6303 2.9682 24.1902 1.88521 24.1902H0V27.984H4.01109C6.28069 27.984 8.28289 25.9785 8.28289 23.7122V1.81335H3.53143V5.58377ZM75.7042 5.57541H69.4586C67.3344 5.57541 65.4459 7.31689 65.2236 9.37591L73.5767 9.36755C74.8419 9.36755 75.2145 9.75028 75.2145 10.8182V18.6081H71.6096C70.3444 18.6081 69.9717 18.2254 69.9717 17.1574V9.37257L65.2203 12.2037V18.1936C65.2203 20.4265 67.2191 22.4002 69.4804 22.4002H75.7059C77.9655 22.4002 79.966 20.4281 79.966 18.1936V9.77869C79.966 7.54585 77.9672 5.57207 75.7059 5.57207V5.57541H75.7042ZM53.919 17.1591V9.37424L49.1676 12.2054V18.1953C49.1676 20.4281 51.1664 22.4019 53.4277 22.4019H61.8125V18.6081H55.5569C54.2917 18.6081 53.919 18.2254 53.919 17.1574V17.1591ZM22.7445 5.57541H16.4973C14.3764 5.57541 12.4845 7.31689 12.2622 9.37591H22.2532V12.655H17.0103V9.37591L12.2589 12.2071V18.197C12.2589 20.4298 14.2577 22.4036 16.519 22.4036H26.184V18.6098H18.6482C17.383 18.6098 17.0103 18.227 17.0103 17.1591V15.9307H27.0013V9.78204C27.0013 7.5492 25.0024 5.57541 22.7412 5.57541H22.7445ZM61.7741 5.57541H53.4059C51.2817 5.57541 49.3932 7.31689 49.1709 9.37591H61.7741V5.57541ZM40.4284 5.57541H34.9466C32.687 5.57541 30.6865 7.55087 30.6865 9.78204V18.197C30.6865 20.4298 32.6853 22.4036 34.9466 22.4036H45.1949V9.37758L40.4434 12.2087V18.6131H37.0758C35.8106 18.6131 35.438 18.2304 35.438 17.1624V9.37758H45.1949V0L40.4284 2.84119V5.57541Z" fill="#26509C"/>
</svg>
