<svg width="97" height="47" viewBox="0 0 97 47" fill="none" xmlns="http://www.w3.org/2000/svg">
<path d="M81.1617 12.9898H76.7446V16.0261H81.1617V12.9898ZM85.3027 8.29656V19.0624H81.4379V16.8678L77.7391 19.0624H76.8078C74.7909 19.0624 73.156 17.4275 73.156 15.4106V13.8815C73.156 11.8734 74.7998 10.2297 76.8078 10.2297H81.4379V9.42617C81.4379 8.65057 80.8092 8.0204 80.0321 8.0204H74.2592V4.70795H81.6949C83.6325 4.70795 85.3467 6.42219 85.3467 8.35972M56.04 12.9898H51.6229V16.0261H56.04V12.9898ZM60.1809 8.29656V19.0624H56.04V16.8678L52.3412 19.0624H51.4099C49.4018 19.0624 47.7581 17.4187 47.7581 15.4106V13.8815C47.7581 11.8734 49.4018 10.2297 51.4099 10.2297H56.04V9.42617C56.04 8.65057 55.4113 8.0204 54.6342 8.0204H49.1374V4.70795H56.4792C58.4167 4.70795 60.1309 6.42219 60.1309 8.35972M30.3659 12.9898H25.9488V16.0261H30.3659V12.9898ZM34.5068 8.29656V19.0624H30.642V16.8678L26.9432 19.0624H26.0119C24.0039 19.0624 22.3602 17.4187 22.3602 15.4106V13.8815C22.3602 11.8734 24.0039 10.2297 26.0119 10.2297H30.642V9.42617C30.642 8.65057 30.0133 8.0204 29.2363 8.0204H23.4633V4.70795H30.8991C32.8366 4.70795 34.5509 6.42219 34.5509 8.35972M91.6514 4.71088V0L87.5105 2.42815V8.01893H91.6455L87.5105 10.4309V15.4092C87.5105 17.4172 89.1542 19.0609 91.1622 19.0609H95.7923V15.4723H92.8045C91.8615 15.4723 91.3752 15.0037 91.3752 14.0915L91.6455 8.01893H95.7923V4.70648H91.6514V4.71088ZM71.7752 4.70795H62.3887V8.0204H71.7752V4.70795ZM62.3887 19.0624H66.5296V7.96751L62.3887 10.3942V19.0595V19.0624ZM41.1332 4.71088V0L36.9922 2.42815V8.01893H41.1273L36.9922 10.4309V15.4092C36.9922 17.4172 38.636 19.0609 40.644 19.0609H45.5503V15.4723H42.5625C41.6194 15.4723 41.1332 15.0037 41.1332 14.0915L41.1273 8.01893H45.5503V4.70648H41.1332V4.71088ZM19.6 7.97046L18.0253 8.89736L15.4591 10.4074V19.0624H19.6V7.97046ZM11.8705 7.96751L7.72955 10.4074V19.0624H11.8705V7.96751ZM19.6 4.70795V8.0204H3.86477V19.0624H0V4.70795H19.6059H19.6Z" fill="#1F3C3F"/>
<path d="M41.4093 41.0675C41.4093 42.604 40.6411 43.1255 39.7054 43.1255C39.1325 43.1255 38.661 43.1255 37.9324 43.0844L36.0683 46.2132C37.2243 46.6127 39.4777 46.6127 40.102 46.6127C43.5305 46.6127 45.2756 45.2834 45.2756 40.4036V27.5357L41.4108 29.8404V41.0675H41.4093ZM95.9157 35.9879C95.8628 32.0042 93.3657 29.8287 89.6434 29.8287H81.1617V33.6934H89.5303C90.914 33.6934 91.8262 34.2942 91.8394 35.9013C91.8262 37.5097 90.914 38.1091 89.5303 38.1091H89.5082L85.0265 38.0988V33.692L81.1617 35.9982V38.1105H76.1923V36.7562C76.1923 32.3758 73.7098 29.8507 69.3706 29.8287H64.8741V23.502L61.0094 25.8464L61.0006 33.6949H69.4117C71.0452 33.6949 72.0499 34.5586 72.0499 36.0511V38.112H64.8727V33.6758L61.0079 36.0276L61.002 38.112H52.726V23.6459L48.8613 25.9507V41.9768H56.9096L61.0079 39.7264V41.9768L89.6169 42.2529H89.639C93.3598 42.1413 95.8584 39.9658 96.067 35.9835V35.9776V35.9042M25.6741 30.3913V38.1105H7.74864C5.31902 38.1105 3.86477 37.0338 3.86477 34.6233V29.6715L0 32.0159V35.2373C0 39.7587 2.1755 42.2515 7.03915 42.2515H21.636L25.6726 39.8468V42.2515H29.5374V27.4975L25.3965 29.8419V30.3957L25.6741 30.3913ZM19.6 24.5846H15.7353V28.4493H19.6V24.5846ZM14.3545 24.5846H10.4897V28.4493H14.3545V24.5846ZM37.2684 23.6077L33.4036 25.9507V42.2515H37.2684V23.6077Z" fill="#1F3C3F"/>
<path d="M19.6 4.70703V8.01948H3.86477V19.0615H0V7.94457V4.70703H19.6Z" fill="#1F3C3F"/>
<path d="M11.8704 7.9707L7.72949 10.4091V19.0626H11.8704V7.9707Z" fill="#1F3C3F"/>
<path d="M19.5999 7.9707L18.0252 8.89907L15.459 10.4091V19.0626H19.5999V7.9707Z" fill="#1F3C3F"/>
</svg>
