<svg width="120" height="38" viewBox="0 0 120 38" fill="none" xmlns="http://www.w3.org/2000/svg">
<path d="M112.061 23.3474C112.061 23.3474 109.421 29.2375 109.384 37.1403C109.384 37.1403 101.665 20.2269 95.3691 16.1094C95.3691 16.1094 106.226 17.9927 112.079 23.3474H112.061Z" fill="#2C4F72"/>
<path d="M120 14.4094C120 14.4094 115.643 16.3851 112.91 21.5736C112.799 21.5736 113.279 12.3045 107.241 7.87305C107.241 7.87305 116.529 11.3813 119.982 14.4094H120Z" fill="#9BA278"/>
<path d="M105.616 7.11674C105.616 7.11674 96.0704 6.71052 93.7993 14.5579C93.7254 14.6502 82.4991 5.28876 71.125 0.118739C71.125 0.118739 80.9296 -1.48766 105.616 7.11674Z" fill="#649393"/>
<path d="M5.94553 16.5708C5.94553 17.1617 5.77935 17.6787 5.41006 18.1219C5.05924 18.565 4.61609 18.842 4.06216 18.9343H2.62194C1.73565 18.9343 1.07093 18.6204 0.609325 18.0295C0.203109 17.4571 0 16.7001 0 15.703V13.8566H0.904753V15.6846C0.904753 17.291 1.58794 18.2696 2.73273 18.2696H3.84059C4.19141 18.2142 4.48684 18.0111 4.70842 17.6602C4.89306 17.3648 4.98538 17.0694 4.98538 16.7555H4.08063C3.58209 16.7555 3.19434 16.5893 2.89891 16.257C2.56655 15.9061 2.40037 15.4261 2.40037 14.7983C2.40037 14.1705 2.60348 13.4504 3.00969 12.9888C3.41591 12.5271 3.93291 12.2871 4.57917 12.2871H5.48392L5.3362 12.9703H4.52377C3.74827 12.9703 3.37898 13.5058 3.37898 14.6136C3.37898 15.7215 3.67441 15.8877 4.24681 15.8877H5.94553V16.5708ZM2.80659 20.4299C2.80659 20.7623 2.56655 21.0392 2.23419 21.0392C1.90183 21.0392 1.68026 20.7807 1.68026 20.4299C1.68026 20.0791 1.93876 19.8021 2.23419 19.8021C2.52962 19.8021 2.80659 20.0606 2.80659 20.4299ZM4.28374 20.4299C4.28374 20.7623 4.0437 21.0392 3.71134 21.0392C3.37898 21.0392 3.15741 20.7807 3.15741 20.4299C3.15741 20.0791 3.39744 19.8021 3.71134 19.8021C4.02523 19.8021 4.28374 20.0606 4.28374 20.4299Z" fill="#2C4F72"/>
<path d="M10.2844 14.5582V15.6661L10.4137 16.6078H6.73926L6.9793 15.6846H9.32427L9.3612 15.463V14.392C9.3612 13.8935 9.26888 13.5058 9.1027 13.2103C8.93652 12.9518 8.71495 12.8226 8.45645 12.8226C8.19794 12.8226 8.2718 12.841 8.16101 12.8964C8.16101 12.7857 8.14255 12.601 8.12409 12.324C8.16102 12.324 8.25334 12.324 8.41951 12.2871C8.99191 12.2871 9.43506 12.5087 9.78588 12.9334C10.1367 13.358 10.3029 13.912 10.3213 14.5767L10.2844 14.5582Z" fill="#2C4F72"/>
<path d="M15.8427 16.609H14.7533C14.6056 17.7907 13.9409 18.5478 12.7961 18.8801L12.6115 18.4739C13.4055 18.1415 13.8301 17.5138 13.8671 16.609H12.9808C12.4822 16.609 12.076 16.4428 11.7621 16.1105C11.4113 15.7596 11.2451 15.2796 11.2451 14.6518C11.2451 14.024 11.4298 13.3039 11.836 12.8423C12.2422 12.3807 12.7592 12.1406 13.4054 12.1406H14.7533V15.6673H15.8243V16.5905L15.8427 16.609ZM13.8301 15.6858V12.7499H13.3501C12.6115 12.7499 12.1868 13.3962 12.1868 14.4671C12.1868 15.5381 12.4822 15.6858 13.0546 15.6858H13.8301Z" fill="#2C4F72"/>
<path d="M22.1019 16.609H19.8862C19.6092 16.609 19.2769 16.5167 18.926 16.3505C18.8706 16.3874 18.6491 16.4059 18.2798 16.3874C18.0213 16.3874 17.8736 16.4613 17.8736 16.609H15.584V15.6858H17.7443C17.8551 15.6858 17.9659 15.6858 18.0951 15.6489C17.892 15.4457 17.375 14.9103 16.5626 14.0425C16.5626 13.5624 16.7842 13.1192 17.2642 12.7315C17.7443 12.3437 18.2982 12.1406 18.963 12.1406C19.6277 12.1406 20.1816 12.3253 20.6617 12.7315C21.1233 13.1192 21.3449 13.5439 21.3449 14.024C21.2525 14.1163 20.7355 14.6518 19.7939 15.6304C19.9046 15.6673 20.0339 15.6673 20.1631 15.6673H22.1204V16.5905L22.1019 16.609ZM20.3109 13.8578C20.2924 13.6547 20.1631 13.4701 19.9416 13.3223C19.6831 13.1377 19.3322 13.0454 18.926 13.0454C18.5198 13.0454 18.1875 13.1377 17.929 13.3223C17.7074 13.4885 17.5781 13.6732 17.5412 13.8578C17.8551 14.1902 18.2982 14.6702 18.926 15.298L20.2924 13.8578H20.3109Z" fill="#2C4F72"/>
<path d="M29.7277 16.6078H29.2291C28.8598 16.6078 28.5459 16.497 28.3059 16.2939C28.0843 16.497 27.7704 16.6078 27.4196 16.6078C27.0688 16.6078 26.5149 16.4231 26.1825 16.0169C25.9425 16.4047 25.5547 16.6078 25.0562 16.6078C24.5576 16.6078 24.1699 16.4047 23.8006 15.9985C23.7452 16.0723 23.6898 16.1462 23.6344 16.22C23.3944 16.4785 23.062 16.6078 22.6373 16.6078H21.5664V15.6846H22.4158C22.8589 15.6846 23.0805 15.4261 23.0805 14.8721V12.8964C23.0989 12.8964 24.0037 12.6749 24.0037 12.6749V15.3522C24.2253 15.5922 24.5022 15.703 24.8161 15.703C25.2593 15.703 25.4809 15.4445 25.4809 14.8906V12.8964L26.4041 12.6749V15.3153C26.6256 15.5738 26.9026 15.703 27.198 15.703C27.4935 15.703 27.8628 15.4445 27.8628 14.8906V13.8935L27.6966 12.5641L28.8044 12.2871V14.9091C28.8044 15.4445 29.026 15.703 29.4692 15.703H29.7461V16.6262L29.7277 16.6078Z" fill="#2C4F72"/>
<path d="M32.5892 15.0756C32.5892 16.0357 32.0538 16.6081 31.2044 16.6081H29.4688V15.6849H30.9828C31.4444 15.6849 31.666 15.4079 31.666 14.854V11.6043L31.5183 10.2564L32.6077 9.96094V15.094L32.5892 15.0756Z" fill="#2C4F72"/>
<path d="M34.6946 9.97852L34.6023 11.3449V16.6072H33.6791V11.3633L33.5498 10.0893L34.7131 9.97852H34.6946Z" fill="#2C4F72"/>
<path d="M42.0437 12.2871V15.8877C42.0437 16.774 41.8036 17.5125 41.2866 18.048C40.7881 18.5835 40.1049 18.8604 39.2186 18.8604C38.3323 18.8604 37.6676 18.565 37.206 17.9557C36.7998 17.4017 36.5967 16.6262 36.5967 15.6476V13.7827H37.5014V15.6107C37.5014 17.2171 38.1846 18.2142 39.3294 18.2142C40.4742 18.2142 40.2157 17.9926 40.5481 17.5679C40.9173 17.0878 41.102 16.4785 41.102 15.703C41.102 14.5398 41.102 13.9674 41.102 13.9304L40.9358 12.5825L42.0252 12.2871H42.0437ZM39.8649 13.8012C39.8649 14.1335 39.6248 14.4105 39.2925 14.4105C38.9601 14.4105 38.7385 14.152 38.7385 13.7827C38.7385 13.4134 38.9786 13.1734 39.2925 13.1734C39.6064 13.1734 39.8649 13.4319 39.8649 13.8012Z" fill="#2C4F72"/>
<path d="M44.1487 9.97852L44.0564 11.3449V16.6072H43.1332V11.3633L43.0039 10.0893L44.1672 9.97852H44.1487Z" fill="#2C4F72"/>
<path d="M47.7305 16.6087H46.992C46.8258 16.6087 46.6596 16.5902 46.5304 16.5348C46.4196 17.7165 45.7549 18.492 44.5547 18.8613L44.3516 18.4551C45.2194 18.1597 45.6441 17.495 45.6441 16.4794V13.9129L45.441 12.5465L46.5488 12.2695V14.8361C46.5488 15.4085 46.7704 15.6854 47.232 15.6854H47.749V16.6087H47.7305Z" fill="#2C4F72"/>
<path d="M48.5608 18.2518C48.5608 18.5657 48.3208 18.8611 47.9884 18.8611C47.6561 18.8611 47.416 18.6026 47.416 18.2333C47.416 17.8641 47.6745 17.624 47.9884 17.624C48.3023 17.624 48.5608 17.8825 48.5608 18.2518ZM51.072 16.6085H50.3703C50.001 16.6085 49.6871 16.4977 49.4656 16.2946C49.2255 16.4977 48.9301 16.6085 48.5793 16.6085H47.4714V15.6853H48.3392C48.8008 15.6853 49.0224 15.4268 49.0224 14.8728V13.8204L48.8378 12.4909L49.9456 12.2324V14.8728C49.9456 15.4083 50.1672 15.6853 50.6288 15.6853H51.0904V16.6085H51.072ZM50.038 18.2518C50.038 18.5657 49.7979 18.8611 49.4656 18.8611C49.1332 18.8611 48.9116 18.6026 48.9116 18.2333C48.9116 17.8641 49.1517 17.624 49.4656 17.624C49.7795 17.624 50.038 17.8825 50.038 18.2518Z" fill="#2C4F72"/>
<path d="M59.2517 16.608H50.8135V15.6847H52.1983V11.6964L52.0506 10.4409L53.2138 10.3301L53.1215 11.678V14.6507C53.38 14.0968 53.7862 13.5798 54.3217 13.1182C54.9495 12.5273 55.5588 12.2504 56.1681 12.2504C56.7775 12.2504 57.3499 12.4166 57.7561 12.7489C58.1623 13.0813 58.3839 13.5429 58.3839 14.1153V15.6847H59.2517V16.608ZM57.4422 15.6847V14.2815C57.4422 13.506 56.9436 13.1182 55.9466 13.1182C54.9495 13.1182 54.8202 13.469 54.174 14.1707C53.6201 14.7615 53.2692 15.2601 53.14 15.7032H57.4607L57.4422 15.6847Z" fill="#2C4F72"/>
<path d="M62.1136 15.0756C62.1136 16.0357 61.5782 16.6081 60.7288 16.6081H58.9932V15.6849H60.5072C60.9689 15.6849 61.1904 15.4079 61.1904 14.854V11.6043L61.0427 10.2564L62.1321 9.96094V15.094L62.1136 15.0756Z" fill="#2C4F72"/>
<path d="M64.219 9.97852L64.1267 11.3449V16.6072H63.2035V11.3633L63.0742 10.0893L64.2375 9.97852H64.219Z" fill="#2C4F72"/>
<path d="M72.0852 16.5708C72.0852 17.1617 71.919 17.6787 71.5497 18.1219C71.1989 18.565 70.7557 18.842 70.2018 18.9343H68.7616C67.8753 18.9343 67.2106 18.6204 66.749 18.0295C66.3428 17.4571 66.1396 16.7001 66.1396 15.703V13.8566H67.0444V15.6846C67.0444 17.291 67.7276 18.2696 68.8724 18.2696H69.9802C70.3311 18.2142 70.6265 18.0111 70.8481 17.6602C71.0327 17.3648 71.125 17.0694 71.125 16.7555H70.2203C69.7217 16.7555 69.334 16.5893 69.0386 16.257C68.7062 15.9061 68.54 15.4261 68.54 14.7983C68.54 14.1705 68.7431 13.4504 69.1493 12.9888C69.5556 12.5271 70.0726 12.2871 70.7188 12.2871H71.6236L71.4759 12.9703H70.6634C69.8879 12.9703 69.5186 13.5058 69.5186 14.6136C69.5186 15.7215 69.8141 15.8877 70.3865 15.8877H72.0852V16.5708ZM68.9647 20.4299C68.9647 20.7623 68.7247 21.0392 68.3923 21.0392C68.0599 21.0392 67.8384 20.7807 67.8384 20.4299C67.8384 20.0791 68.0969 19.8021 68.3923 19.8021C68.6877 19.8021 68.9647 20.0606 68.9647 20.4299ZM70.4234 20.4299C70.4234 20.7623 70.1833 21.0392 69.851 21.0392C69.5186 21.0392 69.2971 20.7807 69.2971 20.4299C69.2971 20.0791 69.5371 19.8021 69.851 19.8021C70.1649 19.8021 70.4234 20.0606 70.4234 20.4299Z" fill="#2C4F72"/>
<path d="M76.4426 14.5582V15.6661L76.5719 16.6078H72.8975L73.1375 15.6846H75.4825L75.5194 15.463V14.392C75.5194 13.8935 75.4271 13.5058 75.2609 13.2103C75.0947 12.9518 74.8732 12.8226 74.6147 12.8226C74.3562 12.8226 74.43 12.841 74.3192 12.8964C74.3192 12.7857 74.3008 12.601 74.2638 12.324C74.2823 12.324 74.3931 12.324 74.5593 12.2871C75.1317 12.2871 75.5748 12.5087 75.9256 12.9334C76.2764 13.358 76.4426 13.912 76.4611 14.5767L76.4426 14.5582Z" fill="#2C4F72"/>
<path d="M79.785 16.6083H79.0649C78.2155 16.6083 77.6985 16.0359 77.6985 15.0758V11.586L77.5508 10.275L78.6402 9.99805V14.8357C78.6402 15.4081 78.8618 15.6666 79.3049 15.6666H79.8034V16.5898L79.785 16.6083Z" fill="#2C4F72"/>
<path d="M82.3145 15.1118C82.3145 16.0165 81.779 16.6074 80.9481 16.6074H79.5264V15.6842H80.7266C81.1882 15.6842 81.4097 15.4257 81.4097 14.8718V13.8562L81.262 12.5452L82.333 12.2867V15.1303L82.3145 15.1118ZM81.816 10.6434C81.816 10.9758 81.5944 11.2527 81.262 11.2527C80.9297 11.2527 80.6896 10.9942 80.6896 10.6434C80.6896 10.2926 80.9297 10.0156 81.262 10.0156C81.5944 10.0156 81.816 10.2741 81.816 10.6434Z" fill="#2C4F72"/>
<path d="M16.5443 25.9507C16.5073 25.7291 16.4519 25.526 16.3596 25.3598C16.2673 25.1936 16.175 25.0644 16.0457 24.9536C15.9165 24.8428 15.7872 24.7689 15.621 24.7136C15.4733 24.6582 15.2887 24.6397 15.1225 24.6397C14.9563 24.6397 14.7717 24.6582 14.624 24.7136C14.4578 24.7689 14.3101 24.8428 14.1993 24.9351C14.0885 25.0274 13.9777 25.1752 13.9039 25.3413C13.83 25.5075 13.7931 25.6922 13.7931 25.9137C13.7931 26.1353 13.83 26.283 13.9223 26.4307C14.0146 26.5785 14.1254 26.6892 14.2731 26.8C14.4209 26.9108 14.587 27.0031 14.7717 27.077C14.9563 27.1508 15.1594 27.2432 15.3625 27.317C15.5841 27.4093 15.8057 27.5201 16.0273 27.6309C16.2488 27.7417 16.4519 27.871 16.6366 28.0371C16.8212 28.1849 16.9689 28.388 17.0613 28.6095C17.172 28.8311 17.2274 29.1081 17.2274 29.4404C17.2274 29.7728 17.1905 29.9759 17.1167 30.1975C17.0428 30.419 16.9505 30.6037 16.8028 30.7699C16.655 30.936 16.5258 31.0653 16.3411 31.1761C16.175 31.2869 15.9903 31.3792 15.7872 31.4531C15.5841 31.5269 15.381 31.5638 15.1594 31.6008C14.9379 31.6377 14.7347 31.6377 14.5132 31.6377C14.2916 31.6377 14.0146 31.6377 13.7561 31.5823C13.5161 31.5454 13.2576 31.5084 13.0176 31.4346C12.9806 31.4346 12.9622 31.4161 12.9437 31.3792C12.9252 31.3423 12.9068 31.3238 12.9068 31.2869C12.9068 31.1945 12.9068 31.0653 12.8883 30.8991C12.8698 30.7329 12.8883 30.5668 12.8698 30.3821C12.8698 30.2159 12.8698 30.0498 12.8698 29.902C12.8698 29.7543 12.8698 29.6805 12.8698 29.662L13.1468 29.6251C13.1653 29.8651 13.2391 30.0867 13.3315 30.2713C13.4238 30.456 13.5346 30.6037 13.6823 30.7145C13.83 30.8253 13.9777 30.9176 14.1624 30.973C14.347 31.0284 14.5316 31.0653 14.7532 31.0653C14.9748 31.0653 15.1225 31.0468 15.3071 30.9914C15.4733 30.936 15.6395 30.8622 15.7688 30.7699C15.898 30.6775 16.0088 30.5298 16.1011 30.3636C16.175 30.1975 16.2304 29.9944 16.2304 29.7543C16.2304 29.5143 16.1934 29.385 16.1011 29.2558C16.0088 29.1265 15.898 28.9973 15.7503 28.8865C15.6026 28.7757 15.4364 28.6834 15.2518 28.6095C15.0671 28.5357 14.864 28.4434 14.6794 28.351C14.4578 28.2587 14.2362 28.1479 14.0146 28.0371C13.7931 27.9264 13.59 27.7786 13.4053 27.6309C13.2207 27.4647 13.073 27.2801 12.9806 27.0401C12.8698 26.8185 12.8145 26.5231 12.8145 26.1907C12.8145 25.8583 12.8883 25.4521 13.036 25.1752C13.1837 24.8982 13.3684 24.6766 13.6084 24.5104C13.8485 24.3443 14.107 24.2335 14.4024 24.1596C14.6978 24.0858 15.0117 24.0488 15.3256 24.0488C15.6395 24.0488 15.7503 24.0673 15.9903 24.1042C16.2304 24.1412 16.4704 24.1781 16.6735 24.2519C16.7104 24.2519 16.7289 24.2704 16.7474 24.3073C16.7658 24.3443 16.7843 24.3627 16.7843 24.3997C16.7843 24.492 16.7843 24.6028 16.8028 24.7689C16.8028 24.9167 16.8028 25.0828 16.8212 25.249C16.8397 25.4152 16.8212 25.5629 16.8397 25.6737C16.8397 25.803 16.8397 25.8768 16.8397 25.8953L16.5443 25.9322V25.9507Z" fill="#2C4F72"/>
<path d="M18.2425 27.2983C18.4272 27.2059 18.6303 27.1321 18.8149 27.0767C18.9996 27.0213 19.1842 26.9474 19.3504 26.9105C19.5166 26.8736 19.6643 26.8366 19.812 26.8182C19.9412 26.7997 20.052 26.7812 20.1443 26.7812C20.4213 26.7812 20.6429 26.8182 20.8275 26.892C21.0122 26.9659 21.1599 27.0767 21.2707 27.2244C21.3815 27.3721 21.4553 27.5568 21.5107 27.7968C21.5661 28.0184 21.5846 28.2953 21.5846 28.6277L21.5476 30.6588C21.5476 30.788 21.5476 30.8988 21.5661 31.0281C21.5846 31.1388 21.603 31.2496 21.6215 31.3604C21.6215 31.3604 21.6215 31.3789 21.6215 31.4158C21.6215 31.4712 21.5846 31.5081 21.5107 31.5266C21.4553 31.5266 21.3999 31.5451 21.3445 31.5635C21.2891 31.582 21.2153 31.582 21.1599 31.582C21.1045 31.582 21.0306 31.582 20.9752 31.582H20.8091C20.7721 31.582 20.7352 31.582 20.7167 31.5451C20.6983 31.5081 20.6798 31.4897 20.6614 31.4343L20.5875 31.1388C20.4398 31.2127 20.2921 31.2681 20.1443 31.3419C19.9966 31.3973 19.8489 31.4527 19.7197 31.4897C19.5904 31.5266 19.4612 31.5635 19.3504 31.6004C19.2396 31.6189 19.1473 31.6374 19.0734 31.6374C18.8703 31.6374 18.7041 31.6004 18.5564 31.5081C18.4087 31.4158 18.2979 31.3235 18.1871 31.1942C18.0763 31.065 18.0209 30.9357 17.984 30.788C17.9471 30.6403 17.9102 30.4926 17.9102 30.3633C17.9102 30.1233 17.9471 29.9202 18.0209 29.7725C18.0948 29.6248 18.2056 29.477 18.3348 29.3663C18.4456 29.2739 18.5933 29.2001 18.7411 29.1262C18.8888 29.0708 19.0734 29.0154 19.2581 28.9785C19.4427 28.9416 19.6458 28.9231 19.8674 28.9047C20.089 28.9047 20.3105 28.8677 20.5506 28.8677V28.6646C20.5506 28.48 20.5506 28.2953 20.5321 28.1476C20.5136 27.9999 20.4582 27.8706 20.4028 27.7599C20.3475 27.6491 20.2551 27.5752 20.1443 27.5198C20.0336 27.4644 19.9043 27.446 19.7381 27.446C19.572 27.446 19.3319 27.4644 19.1103 27.5198C18.8888 27.5752 18.6487 27.6491 18.3533 27.7414L18.2241 27.3167L18.2425 27.2983ZM20.569 29.2555C20.4029 29.2555 20.2182 29.2739 20.0705 29.2924C19.9228 29.2924 19.7751 29.3109 19.6458 29.3293C19.5166 29.3478 19.4058 29.3847 19.3135 29.4217C19.2211 29.4586 19.1473 29.5324 19.0734 29.6063C19.0365 29.6617 18.9996 29.7356 18.9626 29.8279C18.9257 29.9202 18.9257 30.0125 18.9257 30.1233C18.9257 30.2341 18.9257 30.2895 18.9626 30.3818C18.9811 30.4741 19.0365 30.548 19.0919 30.6403C19.1473 30.7326 19.2396 30.788 19.3319 30.8249C19.4427 30.8803 19.572 30.8988 19.7381 30.8988C19.9043 30.8988 19.7935 30.8988 19.8489 30.8988C19.9043 30.8988 19.9597 30.8803 20.0336 30.8619C20.1074 30.8434 20.1813 30.8249 20.2736 30.788C20.3659 30.7511 20.4582 30.7142 20.5506 30.6588V29.2739L20.569 29.2555Z" fill="#2C4F72"/>
<path d="M26.0349 27.9997C26.0349 27.7781 25.998 27.6304 25.9426 27.5566C25.8872 27.4827 25.7764 27.4273 25.6472 27.4273H25.5179C25.481 27.4273 25.4256 27.4273 25.3702 27.4458L25.3333 27.1504C25.5364 27.095 25.721 27.0396 25.8872 26.9842C26.0534 26.9288 26.2196 26.9103 26.3488 26.8734C26.4781 26.8365 26.5889 26.818 26.6812 26.818C26.7735 26.818 26.8289 26.7995 26.8474 26.7995C26.9582 26.7995 27.032 26.8734 27.032 27.0211V30.5663C27.032 30.714 27.032 30.8432 27.0505 30.954C27.0689 31.0648 27.0874 31.1756 27.1059 31.2864V31.3233C27.1059 31.3787 27.0689 31.4341 26.9951 31.4526C26.9397 31.4526 26.8843 31.4526 26.8289 31.471C26.7735 31.471 26.6997 31.471 26.6443 31.4895C26.5704 31.4895 26.515 31.4895 26.4412 31.5079C26.3673 31.5264 26.3119 31.5079 26.275 31.5079C26.2381 31.5079 26.2011 31.5079 26.1827 31.471C26.1642 31.4341 26.1457 31.4156 26.1273 31.3602L26.0349 31.0094C25.8688 31.0833 25.6841 31.1571 25.5179 31.2125C25.3518 31.2679 25.1856 31.3418 25.0194 31.3787C24.8717 31.4341 24.724 31.471 24.5947 31.4895C24.4655 31.5264 24.3547 31.5264 24.2624 31.5264C24.0593 31.5264 23.8746 31.4895 23.7269 31.4156C23.5792 31.3418 23.4499 31.231 23.3576 31.1017C23.2653 30.9725 23.1914 30.8063 23.136 30.6217C23.0806 30.437 23.0622 30.2154 23.0622 29.9939L23.0991 27.9443C23.0991 27.7228 23.0806 27.575 23.0068 27.5012C22.9329 27.4273 22.8406 27.3719 22.7114 27.3719H22.5821C22.5452 27.3719 22.4898 27.3719 22.4344 27.3904L22.3975 27.095C22.6006 27.0396 22.7852 26.9842 22.9514 26.9288C23.1176 26.8734 23.2838 26.8549 23.413 26.818C23.5423 26.7811 23.653 26.7626 23.7454 26.7626C23.8377 26.7626 23.8931 26.7441 23.9115 26.7441C24.0223 26.7441 24.0962 26.818 24.0962 26.9657L24.0593 29.3845V29.4769C24.0593 29.6984 24.0593 29.9015 24.1146 30.0677C24.1516 30.2339 24.207 30.3816 24.2808 30.4924C24.3547 30.6032 24.447 30.6955 24.5763 30.7509C24.687 30.8063 24.8348 30.8432 25.0194 30.8432C25.204 30.8432 25.1487 30.8432 25.2225 30.8248C25.2964 30.8063 25.3887 30.7878 25.481 30.7694C25.5733 30.7509 25.6657 30.714 25.758 30.6771C25.8503 30.6401 25.9426 30.6032 26.0349 30.5663V27.9628V27.9997Z" fill="#2C4F72"/>
<path d="M30.7254 23.4574C31.1316 23.3281 31.4824 23.2543 31.7409 23.1989C31.9994 23.1435 32.1656 23.125 32.221 23.125C32.3318 23.125 32.4056 23.1989 32.4056 23.3466V30.5846C32.4056 30.7323 32.4056 30.8616 32.4241 30.9724C32.4426 31.0831 32.461 31.1939 32.4795 31.3047V31.3416C32.4795 31.397 32.4426 31.4524 32.3687 31.4709C32.3133 31.4709 32.2579 31.4894 32.2025 31.5078C32.1471 31.5263 32.0733 31.5263 32.0179 31.5263C31.944 31.5263 31.8886 31.5263 31.8332 31.5263H31.667C31.6301 31.5263 31.5932 31.5263 31.5747 31.4894C31.5563 31.4524 31.5378 31.434 31.5193 31.3786L31.427 31.0278C31.2608 31.1016 31.0762 31.1755 30.91 31.2309C30.7438 31.3047 30.5777 31.3601 30.4299 31.3971C30.2822 31.4524 30.1345 31.4894 30.0053 31.5078C29.876 31.5448 29.7652 31.5448 29.6729 31.5448C29.4329 31.5448 29.2113 31.4709 29.0082 31.3416C28.8051 31.2124 28.6389 31.0278 28.5096 30.8246C28.3804 30.6215 28.2696 30.3815 28.1957 30.123C28.1219 29.8645 28.085 29.6245 28.085 29.366C28.085 28.9413 28.1588 28.572 28.2881 28.2396C28.4173 27.9073 28.6204 27.6488 28.8605 27.4272C29.1005 27.2056 29.3775 27.0394 29.7098 26.9102C30.0422 26.7994 30.3745 26.744 30.7438 26.744C31.1131 26.744 31.187 26.7625 31.4085 26.7994V24.2698C31.4085 24.0482 31.3716 23.9005 31.3162 23.8267C31.2608 23.7528 31.1501 23.6974 31.0023 23.6974C30.8546 23.6974 30.8546 23.6974 30.7808 23.7159L30.7438 23.4204L30.7254 23.4574ZM31.3901 28.0365C31.3901 27.9073 31.3532 27.778 31.2978 27.6857C31.2424 27.5934 31.15 27.5195 31.0577 27.4641C30.9654 27.4087 30.8546 27.3718 30.7438 27.3349C30.633 27.298 30.5223 27.298 30.4115 27.298C30.1714 27.298 29.9499 27.3349 29.7837 27.4272C29.6175 27.5195 29.4698 27.6119 29.359 27.7596C29.2482 27.9073 29.1744 28.0735 29.119 28.2766C29.0636 28.4797 29.0451 28.7012 29.0451 28.9228C29.0451 29.1444 29.0636 29.329 29.1005 29.5691C29.1374 29.7906 29.2113 30.0122 29.3036 30.2153C29.3959 30.4184 29.5252 30.5846 29.6914 30.6954C29.8391 30.8246 30.0422 30.88 30.2638 30.88C30.4853 30.88 30.3561 30.88 30.4115 30.88C30.4669 30.88 30.5592 30.8616 30.6515 30.8246C30.7438 30.8062 30.8546 30.7693 30.9654 30.7323C31.0762 30.6954 31.2054 30.64 31.3347 30.5846V28.0181L31.3901 28.0365Z" fill="#2C4F72"/>
<path d="M33.2734 27.1684C33.4765 27.113 33.6612 27.0577 33.8274 27.0023C33.9935 26.9469 34.1597 26.9284 34.289 26.8915C34.4182 26.8545 34.529 26.8361 34.6213 26.8361C34.7137 26.8361 34.7691 26.8176 34.7875 26.8176C34.8983 26.8176 34.9722 26.8915 34.9722 27.0392V31.286C34.9722 31.3783 34.9352 31.4337 34.8429 31.4522C34.7875 31.4522 34.7137 31.4706 34.6398 31.4891C34.5659 31.5076 34.4921 31.5076 34.4367 31.5076C34.3813 31.5076 34.3074 31.5076 34.252 31.5076H34.1228C34.0305 31.5076 33.9935 31.4522 33.9935 31.3599V27.9809C33.9935 27.7593 33.9566 27.6116 33.9012 27.5377C33.8458 27.4639 33.735 27.4085 33.6058 27.4085H33.4765C33.4396 27.4085 33.3842 27.4085 33.3288 27.4269L33.2919 27.1315L33.2734 27.1684ZM35.0091 24.8973C35.0091 25.1189 34.9537 25.2851 34.8429 25.3774C34.7321 25.4697 34.5844 25.5251 34.3813 25.5251C34.1782 25.5251 34.0859 25.4697 33.9935 25.3589C33.9012 25.2481 33.8643 25.1004 33.8643 24.8973C33.8643 24.6942 33.9197 24.5096 34.0305 24.4172C34.1413 24.3249 34.289 24.2695 34.4921 24.2695C34.6952 24.2695 34.7875 24.3249 34.8798 24.4357C34.9722 24.5465 35.0091 24.6942 35.0091 24.8973Z" fill="#2C4F72"/>
<path d="M40.6956 28.8682L39.8278 31.4533C39.8278 31.4902 39.7724 31.5271 39.7355 31.5271C39.6616 31.5271 39.5878 31.5271 39.5139 31.5456C39.44 31.564 39.3293 31.5456 39.2185 31.5456C39.1077 31.5456 39.1262 31.5271 39.1262 31.4902C39.1262 31.4533 39.1262 31.4717 39.1262 31.4533L41.6927 24.6399L41.5819 24.2706C41.5819 24.2337 41.5819 24.2152 41.5819 24.1968C41.5819 24.1414 41.6188 24.1044 41.6927 24.086C41.7481 24.086 41.822 24.0675 41.8958 24.049C41.9697 24.0306 42.062 24.0306 42.1358 24.0306C42.2097 24.0306 42.2836 24.0306 42.339 24.0121C42.3943 23.9936 42.4497 24.0121 42.4867 24.0121C42.5605 24.0121 42.6159 24.0675 42.6528 24.1598L45.164 31.2871C45.164 31.324 45.1825 31.3425 45.1825 31.3609C45.1825 31.4348 45.1455 31.4717 45.0717 31.4902C44.9978 31.4902 44.924 31.5086 44.8501 31.5271C44.7763 31.5456 44.6839 31.5456 44.6101 31.5456C44.5362 31.5456 44.4624 31.5456 44.3885 31.5456H44.2408C44.1854 31.5456 44.13 31.5086 44.1115 31.4533L43.1883 28.8129L40.7326 28.8498L40.6956 28.8682ZM40.8803 28.3328H42.9852L41.9143 25.2492L40.8803 28.3328Z" fill="#2C4F72"/>
<path d="M48.6357 27.1142C48.6542 27.0588 48.6726 27.0219 48.7096 26.9849C48.728 26.9665 48.7834 26.9295 48.8203 26.9111C48.8757 26.9111 48.9311 26.8742 48.9865 26.8742C49.0419 26.8742 49.0973 26.8557 49.1527 26.8372C49.2081 26.8372 49.2635 26.8372 49.3004 26.8188C49.3373 26.8003 49.3743 26.8188 49.4112 26.8188C49.4851 26.8188 49.5035 26.8372 49.5035 26.8926C49.5035 26.948 49.5035 26.948 49.4666 27.0034L47.5648 31.4164C47.5463 31.4902 47.5094 31.5272 47.4724 31.5272C47.4355 31.5272 47.3801 31.5272 47.3063 31.5456C47.2324 31.5456 47.177 31.5456 47.1585 31.5456C47.1401 31.5456 47.1216 31.5456 47.1031 31.5272C47.0847 31.5272 47.0662 31.4902 47.0478 31.4533L45.6445 27.9266C45.5706 27.742 45.4968 27.5943 45.4044 27.5389C45.3306 27.465 45.2198 27.4465 45.109 27.4465C44.9982 27.4465 45.0351 27.4465 44.9982 27.4465C44.9613 27.4465 44.9059 27.4465 44.869 27.465L44.832 27.1696C44.9797 27.1142 45.1459 27.0773 45.2936 27.0403C45.4414 27.0034 45.6075 26.9665 45.7368 26.9295C45.866 26.8926 45.9768 26.8741 46.0876 26.8557C46.1984 26.8372 46.2353 26.8372 46.2723 26.8372C46.3276 26.8372 46.3646 26.8557 46.4015 26.8926C46.4384 26.9295 46.4569 26.9849 46.4754 27.0588L47.5648 30.1423H47.5832L48.6357 27.1142Z" fill="#2C4F72"/>
<path d="M49.7988 27.1684C50.0019 27.113 50.1866 27.0577 50.3528 27.0023C50.5189 26.9653 50.6851 26.9284 50.8144 26.8915C50.9436 26.8545 51.0544 26.8361 51.1467 26.8361C51.239 26.8361 51.2944 26.8176 51.3129 26.8176C51.4237 26.8176 51.4976 26.8915 51.4976 27.0392V31.286C51.4976 31.3783 51.4606 31.4337 51.3683 31.4522C51.3129 31.4522 51.239 31.4706 51.1652 31.4891C51.0913 31.5076 51.0175 31.5076 50.9621 31.5076C50.9067 31.5076 50.8328 31.5076 50.7774 31.5076H50.6482C50.5559 31.5076 50.5189 31.4522 50.5189 31.3599V27.9809C50.5189 27.7593 50.482 27.6116 50.4266 27.5377C50.3712 27.4639 50.2604 27.4085 50.1312 27.4085H50.0019C49.965 27.4085 49.9096 27.4085 49.8542 27.4269L49.8173 27.1315L49.7988 27.1684ZM51.516 24.8973C51.516 25.1189 51.4606 25.2851 51.3498 25.3774C51.239 25.4697 51.0913 25.5251 50.8882 25.5251C50.6851 25.5251 50.5928 25.4697 50.5005 25.3589C50.4082 25.2481 50.3712 25.1004 50.3712 24.8973C50.3712 24.6942 50.4266 24.5096 50.5374 24.4172C50.6482 24.3249 50.7959 24.2695 50.999 24.2695C51.2021 24.2695 51.2944 24.3249 51.3868 24.4357C51.4791 24.5465 51.516 24.6942 51.516 24.8973Z" fill="#2C4F72"/>
<path d="M52.7894 27.2983C52.974 27.2059 53.1771 27.1321 53.3618 27.0767C53.5464 27.0028 53.7311 26.9474 53.8973 26.9105C54.0634 26.8736 54.2112 26.8366 54.3589 26.8182C54.4881 26.7997 54.5989 26.7812 54.6912 26.7812C54.9682 26.7812 55.1898 26.8182 55.3744 26.892C55.5591 26.9659 55.7068 27.0767 55.8176 27.2244C55.9283 27.3721 56.0022 27.5568 56.0576 27.7968C56.113 28.0184 56.1314 28.2953 56.1314 28.6277L56.0945 30.6588C56.0945 30.788 56.0945 30.8988 56.113 31.0281C56.1314 31.1388 56.1499 31.2496 56.1684 31.3604C56.1684 31.3604 56.1684 31.3789 56.1684 31.4158C56.1684 31.4712 56.1314 31.5081 56.0576 31.5266C56.0022 31.5266 55.9468 31.5451 55.8914 31.5635C55.836 31.582 55.7622 31.582 55.7068 31.582C55.6514 31.582 55.5775 31.582 55.5221 31.582H55.3559C55.319 31.582 55.2821 31.582 55.2636 31.5451C55.2452 31.5081 55.2267 31.4897 55.2082 31.4343L55.1344 31.1388C54.9867 31.2127 54.8389 31.2681 54.6912 31.3419C54.5435 31.3973 54.3958 31.4527 54.2665 31.4897C54.1373 31.5266 54.008 31.5635 53.8973 31.6004C53.7865 31.6189 53.6941 31.6374 53.6203 31.6374C53.4172 31.6374 53.251 31.6004 53.1033 31.5081C52.9556 31.4158 52.8448 31.3235 52.734 31.1942C52.6232 31.065 52.5678 30.9357 52.5309 30.788C52.494 30.6403 52.457 30.4926 52.457 30.3633C52.457 30.1233 52.494 29.9202 52.5678 29.7725C52.6417 29.6063 52.7525 29.477 52.8817 29.3663C52.9925 29.2739 53.1402 29.2001 53.2879 29.1262C53.4356 29.0708 53.6203 29.0154 53.8049 28.9785C53.9896 28.9416 54.1927 28.9231 54.4143 28.9047C54.6358 28.9047 54.8574 28.8677 55.0974 28.8677V28.6646C55.0974 28.48 55.0974 28.2953 55.079 28.1476C55.0605 27.9999 55.0051 27.8706 54.9497 27.7599C54.8943 27.6491 54.802 27.5752 54.6912 27.5198C54.5804 27.4644 54.4512 27.446 54.285 27.446C54.1188 27.446 53.8788 27.4644 53.6572 27.5198C53.4356 27.5752 53.1956 27.6491 52.9002 27.7414L52.7709 27.3167L52.7894 27.2983ZM55.1159 29.2555C54.9497 29.2555 54.7651 29.2739 54.6174 29.2924C54.4697 29.3109 54.3219 29.3109 54.1927 29.3293C54.0634 29.3478 53.9526 29.3847 53.8603 29.4217C53.768 29.4586 53.6941 29.5324 53.6203 29.6063C53.5834 29.6617 53.5464 29.7356 53.5095 29.8279C53.4726 29.9202 53.4726 30.0125 53.4726 30.1233C53.4726 30.2341 53.4726 30.2895 53.5095 30.3818C53.528 30.4741 53.5834 30.548 53.6388 30.6403C53.6941 30.7142 53.7865 30.788 53.8788 30.8249C53.9896 30.8803 54.1188 30.8988 54.285 30.8988C54.4512 30.8988 54.3404 30.8988 54.3958 30.8988C54.4512 30.8988 54.5066 30.8803 54.5804 30.8619C54.6543 30.8434 54.7282 30.8249 54.8205 30.788C54.9128 30.7511 55.0051 30.7142 55.0974 30.6588V29.2739L55.1159 29.2555Z" fill="#2C4F72"/>
<path d="M56.8524 27.0766C56.9448 27.0766 57.0556 27.0766 57.1663 27.0581C57.2771 27.0581 57.3879 27.0581 57.5172 27.0397V26.0795C57.5172 25.9872 57.5172 25.9318 57.5356 25.8949C57.5541 25.8579 57.591 25.821 57.628 25.8025C57.7018 25.7656 57.7757 25.7471 57.8495 25.7102C57.9234 25.6733 57.9972 25.6548 58.0711 25.6364C58.145 25.6179 58.2003 25.5994 58.2557 25.581C58.3111 25.5625 58.3481 25.5625 58.385 25.5625C58.4588 25.5625 58.5142 25.6179 58.5142 25.7102V26.9658C58.7543 26.9658 58.9943 26.9473 59.2159 26.9289C59.419 26.9289 59.5852 26.9289 59.7144 26.9289C59.8437 26.9289 59.7698 26.9289 59.7883 26.9658C59.8067 27.0027 59.8252 27.0212 59.8252 27.0581L59.8068 27.4459H58.5327V30.0863C58.5327 30.3632 58.6066 30.5663 58.7358 30.6956C58.8651 30.8248 59.0497 30.8802 59.2713 30.8802C59.4929 30.8802 59.4929 30.8802 59.6036 30.8433C59.7329 30.8249 59.8806 30.7695 60.0468 30.6956L60.1576 31.0834C60.0099 31.1572 59.8621 31.2126 59.7144 31.2865C59.5667 31.3419 59.419 31.3972 59.2897 31.4526C59.1605 31.4896 59.0312 31.5265 58.9205 31.5634C58.8097 31.5819 58.7174 31.6004 58.662 31.6004C58.4958 31.6004 58.3296 31.5634 58.2003 31.508C58.0526 31.4526 57.9418 31.3603 57.8311 31.2495C57.7203 31.1387 57.6464 30.991 57.591 30.8248C57.5356 30.6587 57.4987 30.4556 57.4987 30.2525V27.4828H56.8524C56.8524 27.5013 56.834 27.0766 56.834 27.0766H56.8524Z" fill="#2C4F72"/>
<path d="M60.3789 27.1684C60.582 27.113 60.7667 27.0577 60.9328 27.0023C61.099 26.9653 61.2652 26.9284 61.3944 26.8915C61.5237 26.8545 61.6345 26.8361 61.7268 26.8361C61.8191 26.8361 61.8745 26.8176 61.893 26.8176C62.0038 26.8176 62.0776 26.8915 62.0776 27.0392V31.286C62.0776 31.3783 62.0407 31.4337 61.9484 31.4522C61.893 31.4522 61.8191 31.4706 61.7453 31.4891C61.6714 31.5076 61.5976 31.5076 61.5422 31.5076C61.4868 31.5076 61.4129 31.5076 61.3575 31.5076H61.2283C61.1359 31.5076 61.099 31.4522 61.099 31.3599V27.9809C61.099 27.7593 61.0621 27.6116 61.0067 27.5377C60.9513 27.4639 60.8405 27.4085 60.7113 27.4085H60.582C60.5451 27.4085 60.4897 27.4085 60.4343 27.4269L60.3974 27.1315L60.3789 27.1684ZM62.0961 24.8973C62.0961 25.1189 62.0407 25.2851 61.9299 25.3774C61.8191 25.4697 61.6714 25.5251 61.4683 25.5251C61.2652 25.5251 61.1729 25.4697 61.0806 25.3589C60.9882 25.2481 60.9513 25.1004 60.9513 24.8973C60.9513 24.6942 61.0067 24.5096 61.1175 24.4172C61.2283 24.3249 61.376 24.2695 61.5791 24.2695C61.7822 24.2695 61.8745 24.3249 61.9668 24.4357C62.0592 24.5465 62.0961 24.6942 62.0961 24.8973Z" fill="#2C4F72"/>
<path d="M65.1979 31.582C64.884 31.582 64.607 31.5266 64.3485 31.3973C64.09 31.2681 63.8685 31.1019 63.7023 30.8988C63.5176 30.6957 63.3699 30.4372 63.2776 30.1602C63.1853 29.8648 63.1299 29.5694 63.1299 29.237C63.1299 28.9047 63.1853 28.5354 63.2961 28.2399C63.4068 27.9445 63.573 27.686 63.7761 27.4644C63.9792 27.2613 64.2193 27.0767 64.4962 26.9659C64.7732 26.8551 65.0871 26.7812 65.4195 26.7812C65.7518 26.7812 66.0103 26.8366 66.2688 26.9659C66.5273 27.0767 66.7489 27.2429 66.9335 27.446C67.1182 27.6491 67.2659 27.8891 67.3582 28.1845C67.4505 28.48 67.5059 28.7754 67.5059 29.0893C67.5059 29.4032 67.4505 29.8094 67.3398 30.1048C67.229 30.4187 67.0628 30.6772 66.8597 30.8988C66.6566 31.1204 66.4165 31.2866 66.1211 31.3973C65.8257 31.5081 65.5302 31.582 65.1794 31.582H65.1979ZM65.4749 31.0465C65.678 31.0465 65.8441 30.9911 65.9734 30.8988C66.1026 30.8065 66.2134 30.6772 66.2873 30.5295C66.3611 30.3818 66.4165 30.1972 66.435 30.0125C66.4719 29.8279 66.4719 29.6432 66.4719 29.4586C66.4719 29.2739 66.4535 28.997 66.4165 28.7569C66.3796 28.5169 66.3058 28.2769 66.195 28.0738C66.0842 27.8706 65.9549 27.686 65.7887 27.5567C65.6226 27.4275 65.4195 27.3536 65.1794 27.3536C64.9394 27.3536 64.8101 27.409 64.6809 27.5014C64.5516 27.5937 64.4409 27.7229 64.367 27.8891C64.2931 28.0553 64.2377 28.2215 64.2193 28.4061C64.1823 28.5908 64.1824 28.7754 64.1824 28.96C64.1824 29.1447 64.2008 29.4216 64.2562 29.6801C64.3116 29.9387 64.367 30.1602 64.4778 30.3633C64.5701 30.5664 64.7178 30.7511 64.884 30.8803C65.0502 31.0096 65.2533 31.0834 65.4933 31.0834L65.4749 31.0465Z" fill="#2C4F72"/>
<path d="M68.0595 27.169C68.2626 27.1136 68.4472 27.0582 68.6134 27.0028C68.7796 26.9659 68.9273 26.929 69.0566 26.892C69.1858 26.8551 69.2966 26.8366 69.3705 26.8366C69.4443 26.8366 69.4997 26.8182 69.5366 26.8182C69.6474 26.8182 69.7028 26.892 69.7213 27.0397V27.2983C69.9059 27.2244 70.0906 27.169 70.2567 27.0951C70.4229 27.0397 70.5891 26.9844 70.7553 26.929C70.903 26.8736 71.0507 26.8366 71.18 26.8182C71.3092 26.7997 71.42 26.7812 71.5123 26.7812C71.7154 26.7812 71.9001 26.8182 72.0662 26.892C72.214 26.9659 72.3432 27.0767 72.4355 27.2059C72.5279 27.3352 72.6017 27.5014 72.6387 27.686C72.6756 27.8706 72.7125 28.0922 72.7125 28.3138V31.305C72.694 31.3973 72.6387 31.4527 72.5463 31.4712C72.4909 31.4712 72.4171 31.4897 72.3432 31.5081C72.2694 31.5266 72.1955 31.5266 72.1401 31.5266C72.0663 31.5266 72.0109 31.5266 71.9555 31.5266H71.8262C71.7339 31.5266 71.697 31.4712 71.697 31.3789V28.9047C71.7154 28.9047 71.7154 28.8123 71.7154 28.8123C71.7154 28.5908 71.7154 28.3876 71.66 28.2215C71.6231 28.0553 71.5677 27.9076 71.4939 27.7968C71.42 27.686 71.3277 27.5937 71.1984 27.5383C71.0876 27.4829 70.9215 27.446 70.7553 27.446C70.5891 27.446 70.5706 27.4644 70.3675 27.5014C70.1644 27.5383 69.9613 27.6306 69.7213 27.7414V31.2681C69.7213 31.3604 69.6844 31.4158 69.592 31.4343C69.5366 31.4343 69.4628 31.4527 69.3889 31.4712C69.3151 31.4897 69.2412 31.4897 69.1858 31.4897C69.112 31.4897 69.0566 31.4897 69.0012 31.4897H68.8719C68.7796 31.4897 68.7427 31.4343 68.7427 31.3419V27.963C68.7427 27.7414 68.7057 27.5937 68.6503 27.5198C68.5949 27.446 68.4842 27.3906 68.3365 27.3906H68.2257C68.1887 27.3906 68.1333 27.3906 68.0779 27.409L68.041 27.1136L68.0595 27.169Z" fill="#2C4F72"/>
<path d="M83.1079 30.9918C82.9233 31.1026 82.7017 31.2134 82.4617 31.3057C82.2401 31.3796 82.0001 31.4534 81.7785 31.5088C81.5569 31.5642 81.3538 31.6011 81.1507 31.6196C80.966 31.638 80.7999 31.6565 80.6891 31.6565C80.1721 31.6565 79.692 31.5642 79.2673 31.3611C78.8426 31.1764 78.4734 30.8995 78.1779 30.5671C77.864 30.2348 77.6425 29.8285 77.4763 29.3669C77.3101 28.9053 77.2178 28.3883 77.2178 27.8344C77.2178 27.2805 77.3101 26.7081 77.5132 26.2465C77.6978 25.7848 77.9748 25.3971 78.3072 25.0832C78.6395 24.7693 79.0458 24.5293 79.5074 24.3631C79.969 24.1969 80.4675 24.123 81.003 24.123C81.5384 24.123 81.5938 24.1415 81.8708 24.1969C82.1478 24.2338 82.4247 24.2892 82.6832 24.3631C82.7202 24.3631 82.7386 24.3815 82.7571 24.4185C82.7756 24.4554 82.794 24.4739 82.794 24.5108C82.794 24.5662 82.794 24.64 82.794 24.7324C82.794 24.8247 82.794 24.917 82.794 25.0278C82.794 25.1386 82.794 25.2309 82.794 25.3602C82.794 25.4709 82.794 25.5633 82.794 25.6741C82.794 25.7848 82.794 25.8402 82.794 25.9141V26.0433L82.5171 26.0803C82.4986 25.8218 82.4247 25.6002 82.3139 25.434C82.2032 25.2678 82.0554 25.1017 81.8893 25.0093C81.7231 24.917 81.5384 24.8247 81.3353 24.7693C81.1322 24.7139 80.9291 24.6954 80.726 24.6954C80.3198 24.6954 79.969 24.7693 79.6551 24.917C79.3412 25.0647 79.1011 25.2678 78.898 25.5263C78.6949 25.7848 78.5472 26.0987 78.4549 26.4496C78.3626 26.8004 78.3072 27.1881 78.3072 27.6128C78.3072 28.0375 78.3626 28.573 78.4918 28.9792C78.6211 29.3854 78.8057 29.7731 79.0458 30.087C79.2858 30.4009 79.5997 30.641 79.9505 30.8256C80.3013 31.0103 80.7445 31.0841 81.2245 31.0841C81.7046 31.0841 81.7969 31.0472 82.0739 30.9733C82.3509 30.8995 82.6278 30.8072 82.9048 30.6779L83.0525 31.0656L83.1079 30.9918Z" fill="#2C4F72"/>
<path d="M83.4961 23.4574C83.9023 23.3281 84.2531 23.2543 84.5116 23.1989C84.7701 23.1435 84.9363 23.125 84.9917 23.125C85.1025 23.125 85.1763 23.1989 85.1763 23.3466V31.3047C85.1763 31.3971 85.1394 31.4524 85.0471 31.4709C84.9917 31.4709 84.9178 31.4894 84.844 31.5078C84.7701 31.5263 84.6963 31.5263 84.6409 31.5263C84.567 31.5263 84.5116 31.5263 84.4562 31.5263H84.327C84.2347 31.5263 84.1977 31.4709 84.1977 31.3786V24.2883C84.1977 24.0667 84.1608 23.919 84.1054 23.8451C84.05 23.7713 83.9392 23.7159 83.7915 23.7159C83.6438 23.7159 83.6438 23.7159 83.57 23.7343L83.533 23.4389L83.4961 23.4574Z" fill="#2C4F72"/>
<path d="M89.7001 27.9997C89.7001 27.7781 89.6631 27.6304 89.6077 27.5566C89.5524 27.4827 89.4416 27.4273 89.3123 27.4273H89.2015C89.1646 27.4273 89.1092 27.4273 89.0538 27.4458L89.0169 27.1504C89.22 27.095 89.4046 27.0396 89.5708 26.9842C89.737 26.9472 89.9032 26.9103 90.0324 26.8734C90.1617 26.8365 90.2725 26.818 90.3648 26.818C90.4571 26.818 90.494 26.7995 90.531 26.7995C90.6418 26.7995 90.7156 26.8734 90.7156 27.0211V30.5663C90.7156 30.714 90.7156 30.8432 90.7341 30.954C90.7525 31.0648 90.771 31.1756 90.7895 31.2864V31.3233C90.7895 31.3787 90.7525 31.4341 90.6787 31.4526C90.6233 31.4526 90.5679 31.4526 90.5125 31.471C90.4571 31.471 90.3833 31.471 90.3279 31.4895C90.254 31.4895 90.1986 31.4895 90.1248 31.5079C90.0509 31.5264 89.9955 31.5079 89.9586 31.5079C89.9216 31.5079 89.8847 31.5079 89.8663 31.471C89.8478 31.4341 89.8293 31.4156 89.8109 31.3602L89.7185 31.0094C89.5524 31.0833 89.3677 31.1571 89.2015 31.2125C89.0354 31.2679 88.8507 31.3418 88.703 31.3787C88.5553 31.4156 88.4076 31.471 88.2598 31.4895C88.1306 31.5264 88.0198 31.5264 87.9275 31.5264C87.7244 31.5264 87.5397 31.4895 87.392 31.4156C87.2443 31.3418 87.1151 31.231 87.0227 31.1017C86.9304 30.9725 86.8566 30.8063 86.8012 30.6217C86.7458 30.437 86.7273 30.2154 86.7273 29.9939L86.7642 27.9443C86.7642 27.7228 86.7458 27.575 86.6719 27.5012C86.5981 27.4273 86.5057 27.3719 86.3765 27.3719H86.2657C86.2288 27.3719 86.1734 27.3719 86.118 27.3904L86.0811 27.095C86.2842 27.0396 86.4688 26.9842 86.635 26.9288C86.8012 26.8919 86.9673 26.8549 87.0966 26.818C87.2258 26.7811 87.3366 26.7626 87.429 26.7626C87.5213 26.7626 87.5767 26.7441 87.5951 26.7441C87.7059 26.7441 87.7798 26.818 87.7798 26.9657V29.3845C87.7613 29.3845 87.7613 29.4769 87.7613 29.4769C87.7613 29.6984 87.7613 29.9015 87.8167 30.0677C87.8536 30.2339 87.909 30.3816 87.9829 30.4924C88.0567 30.6032 88.1491 30.6955 88.2783 30.7509C88.3891 30.8063 88.5368 30.8432 88.7215 30.8432C88.9061 30.8432 88.8507 30.8432 88.9246 30.8248C88.9984 30.8248 89.0907 30.7878 89.1831 30.7694C89.2754 30.7509 89.3677 30.714 89.46 30.6771C89.5524 30.6401 89.6447 30.6032 89.737 30.5663V27.9628L89.7001 27.9997Z" fill="#2C4F72"/>
<path d="M93.1716 27.261C93.3562 27.2056 93.5408 27.1318 93.7255 27.0764C93.9101 27.021 94.0948 26.9656 94.261 26.9287C94.4271 26.8917 94.5748 26.8548 94.7226 26.8179C94.8703 26.7809 94.9626 26.781 95.0734 26.781C95.295 26.781 95.4796 26.8548 95.6643 26.9841C95.8304 27.1133 95.9966 27.298 96.1074 27.5011C96.2366 27.7042 96.329 27.9442 96.4028 28.2027C96.4767 28.4612 96.4951 28.7197 96.4951 28.9598C96.4951 29.4029 96.4213 29.7906 96.2736 30.1045C96.1259 30.4369 95.9412 30.6954 95.7012 30.917C95.4611 31.1385 95.1842 31.3047 94.8518 31.4155C94.5195 31.5263 94.1871 31.5817 93.8363 31.5817C93.4854 31.5817 93.4855 31.5817 93.3193 31.5448C93.1531 31.5078 92.9869 31.4894 92.8392 31.4524C92.6915 31.4155 92.5438 31.3601 92.433 31.3047C92.3222 31.2493 92.2299 31.1939 92.1745 31.1385V24.3067C92.1745 24.0852 92.1376 23.9374 92.0822 23.8636C92.0268 23.7897 91.916 23.7343 91.7683 23.7343C91.6205 23.7343 91.6205 23.7343 91.5467 23.7528L91.5098 23.4574C91.916 23.3281 92.2668 23.2543 92.5253 23.1989C92.7838 23.1435 92.95 23.125 93.0054 23.125C93.1162 23.125 93.19 23.1989 93.19 23.3466V27.2795L93.1716 27.261ZM93.1716 30.3261C93.1716 30.4554 93.2085 30.5846 93.2639 30.6769C93.3193 30.7693 93.3931 30.8431 93.5039 30.8985C93.5962 30.9539 93.707 30.9908 93.8178 31.0278C93.9286 31.0647 94.0394 31.0647 94.1502 31.0647C95.0549 31.0647 95.5165 30.5477 95.5165 29.5137C95.5165 28.4797 95.4981 29.0336 95.4427 28.7936C95.3873 28.5535 95.3134 28.332 95.2211 28.1289C95.1288 27.9257 94.9995 27.7596 94.8518 27.6488C94.7041 27.538 94.5379 27.4641 94.3533 27.4641C94.1686 27.4641 94.1502 27.4826 93.9286 27.538C93.707 27.5934 93.467 27.6488 93.19 27.7411V30.3446L93.1716 30.3261Z" fill="#2C4F72"/>
</svg>
