<svg width="102" height="41" viewBox="0 0 102 41" fill="none" xmlns="http://www.w3.org/2000/svg">
<path d="M74.3476 35.1533C73.372 35.4597 72.5045 36.6174 74.7894 37.9848C81.3102 41.3403 87.6149 41.6434 93.5681 37.1076V37.0915C93.5681 37.0915 93.5665 37.0802 93.5617 37.0754C93.5584 37.0705 93.5536 37.0673 93.5472 37.0673C89.9094 39.3312 83.9417 38.7555 77.5257 35.5516C76.8727 35.2146 76.1567 35.0211 75.4231 34.984C75.0538 34.984 74.6878 35.0453 74.3363 35.1597M72.6126 23.4823C70.6615 23.6371 68.7136 25.9832 71.1742 28.6454C72.5787 30.1547 74.4072 31.3285 76.2374 32.4734C79.8219 34.7276 84.1417 36.5771 88.4711 36.7625C93.3714 36.9722 97.0365 34.1778 98.9037 30.5046C99.2617 29.8257 99.5504 29.1146 99.768 28.3777L99.7922 28.3132C99.7922 28.3003 99.7874 28.289 99.7777 28.2794C99.7696 28.2697 99.7567 28.2649 99.7438 28.2649C99.7342 28.2649 99.7261 28.2665 99.718 28.2713C99.71 28.2761 99.7035 28.2826 99.7003 28.2906C96.893 33.4844 88.3373 33.3973 79.6155 27.9907C75.6053 25.4995 74.4443 23.4887 72.7819 23.4887H72.6126M100.187 14.8282C100.178 14.8282 100.168 14.8314 100.161 14.8395C100.155 14.8459 100.15 14.8556 100.15 14.8653C100.592 16.5906 100.607 18.2128 100.1 19.5898C98.5377 23.8354 92.2572 24.0692 86.3265 20.9394C82.6147 18.9755 78.777 24.1902 82.9888 27.041C90.1336 31.7316 98.6393 30.9657 100.657 25.4785C100.858 24.9238 100.997 24.3498 101.071 23.7645L101.121 23.363C101.256 22.0424 101.271 20.7137 101.161 19.3899C101.058 18.2837 100.868 17.1872 100.594 16.1101C100.445 15.5538 100.357 15.2426 100.229 14.8653C100.226 14.8588 100.221 14.8524 100.215 14.8476C100.208 14.8427 100.2 14.8411 100.192 14.8411L100.186 14.8282H100.187ZM83.9869 2.79601C83.9917 2.93146 84.0094 3.0669 84.0369 3.20074C84.0997 3.44906 84.1916 3.68932 84.311 3.91667C83.4628 3.71511 82.5824 3.69415 81.7262 3.8554C81.7165 3.8554 81.7085 3.85862 81.702 3.86507C81.6956 3.87152 81.6923 3.87958 81.6923 3.88926C81.6923 3.89893 81.6956 3.90699 81.702 3.91344C81.7085 3.91989 81.7165 3.92312 81.7262 3.92312C83.3467 4.28431 83.7514 4.5165 83.7821 4.53747C83.3 4.70678 81.781 5.25662 81.0554 5.84679C81.0506 5.85162 81.0473 5.85808 81.0457 5.86614C81.0457 5.8742 81.0457 5.88065 81.049 5.8871C81.0522 5.89355 81.057 5.89839 81.0651 5.90161C81.0715 5.90484 81.0796 5.90484 81.086 5.90484C82.1583 5.62266 83.2725 5.52913 84.3771 5.63072C84.3239 5.67425 82.6227 7.01743 82.2502 8.54282L82.2293 8.64441C82.2293 8.64441 82.2293 8.65892 82.2309 8.66537C82.2341 8.67182 82.239 8.67827 82.2454 8.6815C82.2519 8.68472 82.2599 8.68633 82.2664 8.68472C82.2728 8.68472 82.2809 8.67988 82.2857 8.67505C83.2822 7.67371 84.5319 6.96261 85.9009 6.61593C86.0218 6.5853 86.025 6.59175 86.0863 6.70301C86.483 7.41088 86.8441 8.1381 87.1666 8.88305C87.3892 9.39582 87.7004 10.1795 87.9164 10.7051C87.9164 10.7084 87.9181 10.7116 87.9181 10.7148C87.9181 10.718 87.9164 10.7213 87.9132 10.7245C87.9116 10.7277 87.9084 10.7293 87.9051 10.7293C87.9019 10.7293 87.8987 10.7293 87.8955 10.7293C87.0457 10.5036 86.0395 10.273 85.1382 10.115C83.4031 9.80538 81.6456 9.64897 79.8832 9.64897C79.8187 9.64897 79.8428 9.73605 79.8832 9.74411C81.1715 9.99888 82.4437 10.3294 83.6934 10.7358C84.9592 11.147 86.1701 11.6097 87.3085 12.1096V12.137C85.3897 13.793 83.7289 15.728 82.3809 17.8741C82.3809 17.8741 81.9148 18.7239 83.1226 18.3772L86.8764 17.392C88.5937 16.926 88.7049 15.2523 89.8288 13.3415C89.832 13.3399 89.8369 13.3383 89.8401 13.3383C89.8433 13.3383 89.8482 13.3383 89.8514 13.3415C91.1575 14.0445 92.3862 14.883 93.5165 15.8424C93.8213 16.0924 94.1986 16.2391 94.5936 16.2568L97.4187 16.352C97.9347 16.352 97.517 15.9376 97.517 15.9376C95.9787 14.28 93.6229 12.7788 90.7463 11.6549V11.6307C91.3736 10.5278 92.8215 8.52831 92.8361 8.50896C92.849 8.488 92.8361 8.48155 92.8361 8.48478L92.8022 8.5009C91.5993 9.07494 90.448 9.75217 89.3628 10.5262C89.3612 10.5278 89.3596 10.5294 89.3564 10.531C89.3548 10.531 89.3515 10.5326 89.3483 10.5326C89.3451 10.5326 89.3435 10.5326 89.3402 10.531C89.3386 10.531 89.3354 10.5278 89.3338 10.5262C88.792 9.10719 88.147 7.73014 87.4069 6.4047C89.2499 6.28699 91.0752 7.15772 91.6493 7.48182C91.6493 7.48182 91.6654 7.48182 91.6493 7.46086C90.4996 6.3918 89.1113 5.61459 87.5988 5.19213C88.2502 4.89705 88.9613 4.75838 89.674 4.79062C89.6821 4.79062 89.6918 4.7874 89.6982 4.78095C89.7047 4.7745 89.7079 4.76644 89.7079 4.75676C89.7079 4.74709 89.7047 4.73903 89.6982 4.73258C89.6918 4.72613 89.6837 4.7229 89.674 4.7229C88.7227 4.37945 87.7229 4.18756 86.7103 4.15209C86.8022 3.80541 86.9748 3.48453 87.2134 3.21686C87.2166 3.21202 87.2199 3.20557 87.2199 3.19912C87.2199 3.19267 87.2198 3.18622 87.2166 3.18139C87.2134 3.17494 87.2102 3.1701 87.2037 3.16687C87.1989 3.16365 87.1924 3.16043 87.186 3.16043C86.5765 3.14108 85.9831 3.34908 85.5187 3.74414C85.0737 3.33618 84.5706 2.99596 84.0272 2.73151C84.0175 2.73151 84.0094 2.73635 84.003 2.7428C83.9965 2.74925 83.9933 2.75892 83.9933 2.7686M68.654 5.22921C67.3479 8.64763 69.1667 14.3187 72.9609 19.0496C73.572 19.7817 74.4314 20.2638 75.3731 20.4025C76.3164 20.5412 77.2774 20.3283 78.074 19.8027C79.3639 18.9593 80.1798 16.6229 78.5303 14.6218C75.5972 10.9631 74.2008 6.91262 75.2022 3.93279C75.7617 2.26551 77.0613 1.17226 78.7319 0.635311C78.9608 0.548238 79.2543 0.48374 79.4849 0.419241C80.4427 0.240258 81.4214 0.203171 82.3905 0.307981C82.3986 0.307981 82.4067 0.304756 82.4115 0.298307C82.4163 0.291857 82.4195 0.285406 82.4195 0.277344C82.4195 0.270894 82.4163 0.264445 82.4131 0.257995C82.4083 0.253158 82.4034 0.248319 82.397 0.246707C82.3534 0.246707 81.6407 0.13867 81.5392 0.128995C80.7249 0.0435345 79.9057 0 79.085 0C74.9942 0 70.2181 1.11743 68.6459 5.2276" fill="url(#paint0_linear_4529_3374)"/>
<path d="M22.2748 30.192V30.0307H26.1867C26.356 30.0436 26.5285 30.0307 26.693 29.9872C26.7994 29.9485 26.8897 29.8711 26.9429 29.7711C26.9897 29.8614 27.0639 29.9356 27.1525 29.9856C27.2412 30.0356 27.3444 30.0565 27.446 30.0485H31.6852C31.8303 30.0549 31.977 30.034 32.1141 29.984C32.2157 29.9437 32.2995 29.8679 32.3511 29.7711C32.4027 29.8679 32.4866 29.9421 32.5882 29.984C32.7236 30.0323 32.8671 30.0549 33.0106 30.0485H34.2087V26.8897C34.178 26.8735 34.1442 26.8639 34.1103 26.859C34.0716 26.8542 34.0313 26.8542 33.9926 26.859C33.9281 26.8574 33.8668 26.8768 33.8136 26.9122C33.791 26.9332 33.7749 26.9574 33.7636 26.9864C33.7523 27.0138 33.7475 27.0445 33.7507 27.0751V29.6599H32.9913C32.9332 29.6663 32.8736 29.6599 32.8187 29.6373C32.7639 29.6147 32.7139 29.5825 32.6752 29.5389C32.5994 29.4083 32.5656 29.2568 32.5801 29.1068V26.9026C32.5511 26.8864 32.5188 26.8768 32.485 26.8719C32.4463 26.8671 32.4059 26.8671 32.3672 26.8719C32.3027 26.8703 32.2399 26.8881 32.1883 26.9251C32.1657 26.9461 32.1479 26.9703 32.1367 26.9977C32.1254 27.0251 32.1205 27.0557 32.1221 27.0864V29.1116C32.135 29.26 32.1028 29.4099 32.0302 29.5405C31.9915 29.5857 31.9415 29.6212 31.8851 29.6421C31.8287 29.6647 31.769 29.6712 31.7094 29.6647H31.0176V29.4051C31.0257 29.21 30.9918 29.0165 30.9193 28.8343C30.8596 28.694 30.7677 28.5715 30.65 28.4763C30.5387 28.3893 30.4113 28.3264 30.2759 28.2909C30.1404 28.2538 30.0018 28.2345 29.8615 28.2328C29.6277 28.2264 29.3955 28.2764 29.1859 28.3812C29.0278 28.4537 28.894 28.5715 28.8005 28.7182V26.8929C28.7698 26.8768 28.736 26.8671 28.7021 26.8622C28.6634 26.8574 28.6231 26.8574 28.5844 26.8622C28.5215 26.8606 28.4602 26.88 28.4086 26.9155C28.3861 26.9364 28.3683 26.9606 28.357 26.988C28.3458 27.0154 28.3409 27.0461 28.3425 27.0767V29.6615H27.6443C27.546 29.6663 27.4492 29.6502 27.3573 29.6147C27.3235 29.5986 27.2928 29.5744 27.2686 29.547C27.2444 29.518 27.2251 29.4857 27.2122 29.4503C27.1799 29.3406 27.167 29.2261 27.1719 29.1133V28.2635C27.1412 28.249 27.1074 28.2377 27.0735 28.2296H26.9558C26.8913 28.2264 26.8284 28.2457 26.7768 28.2828C26.7543 28.3022 26.7365 28.3264 26.7252 28.3538C26.7139 28.3812 26.7075 28.4102 26.7091 28.4408V29.0923C26.7139 29.2068 26.701 29.3196 26.6688 29.4293C26.6575 29.4648 26.6398 29.4986 26.6156 29.5276C26.5914 29.5567 26.5608 29.5793 26.5269 29.5954C26.4366 29.6325 26.3382 29.6502 26.2399 29.6454H22.2813V28.2957C22.2507 28.2796 22.2168 28.2683 22.1829 28.2619C22.1442 28.2586 22.1039 28.2586 22.0652 28.2619C22.0023 28.2586 21.9395 28.278 21.8895 28.3151C21.8669 28.3344 21.8492 28.3586 21.8379 28.386C21.8266 28.4134 21.8201 28.4425 21.8217 28.4731V30.2791C21.8282 30.3258 21.8234 30.3726 21.8088 30.4177C21.7943 30.4629 21.7701 30.5032 21.7379 30.537C21.7056 30.5709 21.6653 30.5983 21.6218 30.6145C21.5783 30.6322 21.5315 30.6386 21.4831 30.6354C21.4267 30.6354 21.3703 30.629 21.3138 30.6193C21.2638 30.6112 21.2155 30.5967 21.1687 30.5757L21.051 30.9128C21.1219 30.9466 21.1961 30.9708 21.2735 30.9869C21.359 31.0063 21.446 31.0176 21.5331 31.0176C21.6363 31.0224 21.7379 31.0063 21.8346 30.9708C21.9314 30.9337 22.0185 30.8773 22.091 30.8047C22.162 30.7257 22.2184 30.6338 22.2523 30.5338C22.2877 30.4339 22.3023 30.3274 22.2958 30.221M28.9295 29.1423C29.0069 28.9988 29.123 28.8811 29.2665 28.8053C29.4293 28.7166 29.6132 28.6714 29.8002 28.6763C30.0034 28.6634 30.2033 28.7311 30.3565 28.8649C30.4258 28.9455 30.4807 29.0375 30.5129 29.139C30.5468 29.2406 30.5597 29.3471 30.5516 29.4519V29.6744H28.8005C28.7972 29.4938 28.8392 29.3148 28.9214 29.1552M20.3205 29.6083V28.5344C20.2899 28.5182 20.256 28.507 20.2222 28.5005H20.1045C20.04 28.4973 19.9771 28.5166 19.9255 28.5537C19.9013 28.5731 19.8819 28.5973 19.8707 28.6263C19.8578 28.6537 19.8529 28.6859 19.8545 28.7166V29.6486C19.8674 29.8872 19.8045 30.1226 19.6756 30.3242C19.6143 30.4032 19.5337 30.4645 19.4434 30.5064C19.3531 30.5467 19.2531 30.5661 19.1531 30.5612C19.0596 30.5661 18.9645 30.55 18.8774 30.5129C18.7903 30.4774 18.7129 30.421 18.65 30.3516C18.5226 30.1807 18.4581 29.9711 18.471 29.7582C18.471 29.6615 18.4807 29.5663 18.4985 29.4712C18.513 29.368 18.5355 29.2664 18.5662 29.1681C18.4985 29.1197 18.4162 29.0939 18.334 29.0939C18.2824 29.0939 18.2324 29.1116 18.1889 29.1407C18.1469 29.1697 18.1131 29.2116 18.0937 29.26C18.0615 29.3309 18.0389 29.4051 18.026 29.4825C18.0115 29.5793 18.005 29.676 18.005 29.7727C17.9825 30.0985 18.0873 30.4193 18.2953 30.6709C18.4065 30.7805 18.5388 30.8644 18.6855 30.9176C18.8322 30.9724 18.987 30.995 19.1418 30.9837C19.9271 30.9837 20.3189 30.508 20.3189 29.5567M21.0187 33.3508C20.9526 33.3476 20.8865 33.3685 20.8333 33.4088C20.8075 33.4282 20.7882 33.454 20.7753 33.4846C20.7624 33.5137 20.7575 33.5459 20.7591 33.5782V34.5134C20.7591 34.9052 20.5769 35.1035 20.2093 35.1035C19.8416 35.1035 19.6594 34.9052 19.6594 34.5134V33.3992C19.6272 33.383 19.5933 33.3718 19.5578 33.3653C19.5159 33.3605 19.474 33.3605 19.4337 33.3653C19.3676 33.3637 19.3015 33.383 19.2482 33.4234C19.2241 33.4443 19.2047 33.4701 19.1934 33.4991C19.1805 33.5282 19.1757 33.5604 19.1789 33.5927V34.6327C19.1709 34.7585 19.1934 34.8859 19.2418 35.002C19.2902 35.1197 19.3643 35.2229 19.4595 35.3067C19.6707 35.4809 19.9384 35.5712 20.2125 35.5566C20.4866 35.5712 20.7575 35.4825 20.9688 35.3067C21.0623 35.2213 21.1364 35.1181 21.1848 35.0003C21.2332 34.8842 21.2558 34.7569 21.2493 34.6311V33.4121C21.2171 33.3959 21.1816 33.383 21.1445 33.3782C21.1042 33.3734 21.0639 33.3734 21.0236 33.3782M27.1284 30.4081C27.1058 30.4322 27.0864 30.4597 27.0751 30.4903C27.0622 30.5209 27.0574 30.5532 27.0574 30.587C27.0574 30.6531 27.0816 30.7177 27.1284 30.766C27.1509 30.7902 27.18 30.8079 27.2106 30.8208C27.2412 30.8337 27.2751 30.8402 27.3073 30.8402C27.3412 30.8402 27.3751 30.8354 27.4057 30.8225C27.4363 30.8096 27.4654 30.7902 27.4895 30.766C27.5347 30.7177 27.5605 30.6531 27.5605 30.587C27.5605 30.5548 27.5557 30.5209 27.5428 30.4903C27.5299 30.4597 27.5121 30.4322 27.4895 30.4081C27.4412 30.3613 27.3751 30.3355 27.3073 30.3371C27.2412 30.3371 27.1767 30.3613 27.1284 30.4081ZM29.7905 33.404C29.6519 33.3395 29.5003 33.3089 29.3487 33.3169C29.1036 33.3008 28.8617 33.3782 28.6731 33.5362C28.5925 33.6136 28.528 33.7055 28.4877 33.8104C28.4457 33.9136 28.428 34.0264 28.4344 34.1377V35.505H28.9166V34.2764C28.9166 33.9393 29.0827 33.7539 29.4132 33.7539C29.5583 33.7523 29.7018 33.7829 29.8324 33.8458C29.8631 33.8232 29.8873 33.7926 29.9034 33.7588C29.926 33.7168 29.9389 33.6717 29.9405 33.6233C29.9373 33.5765 29.9211 33.5298 29.8937 33.4911C29.8663 33.4524 29.8276 33.4234 29.7825 33.4072M27.5153 33.4653C27.3315 33.3653 27.1267 33.3137 26.9187 33.3169C26.7107 33.3137 26.5059 33.3653 26.3253 33.4653C26.1544 33.562 26.0109 33.7023 25.9109 33.87C25.8061 34.0409 25.7513 34.2393 25.7561 34.4408C25.7529 34.6424 25.8061 34.8423 25.9109 35.0149C26.0125 35.1826 26.1544 35.3212 26.3253 35.4164C26.5076 35.5163 26.7123 35.5679 26.9187 35.5647C27.1267 35.5679 27.3331 35.5163 27.5153 35.4164C27.6863 35.3212 27.8298 35.1826 27.9297 35.0149C28.0346 34.8423 28.0878 34.644 28.0845 34.4408C28.0878 34.2393 28.0346 34.0425 27.9297 33.87C27.8298 33.7007 27.6863 33.5604 27.5153 33.4653ZM27.496 34.8149C27.4412 34.9165 27.3589 35.002 27.259 35.0616C27.1574 35.1213 27.0397 35.1519 26.922 35.1487C26.8042 35.1503 26.6865 35.1197 26.585 35.0616C26.4866 35.002 26.406 34.9165 26.3528 34.8149C26.2931 34.702 26.2641 34.5779 26.2657 34.4505C26.2641 34.3247 26.2947 34.2006 26.3528 34.0893C26.406 33.9861 26.4866 33.899 26.585 33.8394C26.6882 33.7813 26.8042 33.7507 26.922 33.7523C27.0397 33.7523 27.1574 33.7813 27.259 33.8394C27.3589 33.899 27.4412 33.9861 27.496 34.0893C27.554 34.2006 27.5831 34.3247 27.5798 34.4505C27.5831 34.5763 27.554 34.702 27.496 34.8149ZM30.5129 33.3879C30.4468 33.3863 30.3807 33.4056 30.3275 33.4459C30.3033 33.4669 30.2839 33.4927 30.2727 33.5217C30.2598 33.5507 30.2549 33.583 30.2581 33.6152V35.5147H30.7435V33.4363C30.7112 33.4201 30.6774 33.4088 30.6419 33.4024C30.6 33.3976 30.5581 33.3976 30.5177 33.4024M30.5 32.4494C30.4613 32.4494 30.4226 32.4559 30.3871 32.4704C30.3517 32.4849 30.3178 32.5075 30.292 32.5349C30.2646 32.5623 30.2436 32.5945 30.2307 32.6316C30.2162 32.6671 30.2098 32.7058 30.2114 32.7445C30.2114 32.7832 30.2162 32.8219 30.2307 32.859C30.2452 32.8961 30.2662 32.9283 30.292 32.9574C30.3194 32.9848 30.3517 33.0073 30.3871 33.0219C30.4226 33.0364 30.4613 33.0428 30.5 33.0428C30.5387 33.0428 30.579 33.038 30.6145 33.0235C30.6516 33.009 30.6838 32.9864 30.7112 32.959C30.7387 32.9299 30.7596 32.8977 30.7725 32.8606C30.787 32.8235 30.7935 32.7848 30.7919 32.7461C30.7919 32.7074 30.787 32.6687 30.7725 32.6332C30.758 32.5978 30.737 32.5639 30.7096 32.5365C30.6822 32.5091 30.6484 32.4865 30.6129 32.472C30.5758 32.4575 30.5371 32.451 30.4984 32.4527L30.5 32.4494ZM18.6436 34.4747C18.563 34.2764 18.4775 34.0764 18.3969 33.8813C18.3162 33.6862 18.2388 33.5008 18.1598 33.3314L17.9615 32.8896C17.9035 32.7687 17.8599 32.68 17.8293 32.63C17.7906 32.601 17.7454 32.58 17.6971 32.5688C17.6422 32.5494 17.5858 32.5381 17.5278 32.5349C17.4391 32.5317 17.352 32.5559 17.2778 32.6058C17.202 32.6671 17.144 32.7477 17.1085 32.838C16.9698 33.1347 16.8344 33.4459 16.7006 33.7588C16.5651 34.0732 16.4377 34.386 16.3152 34.6875C16.1926 34.9891 16.0862 35.2648 15.9782 35.5179H16.4877C16.5377 35.3793 16.5861 35.2438 16.6361 35.1197C16.686 34.9955 16.7312 34.873 16.7747 34.7617H18.1953L18.2872 34.9939C18.3211 35.0923 18.3582 35.189 18.3953 35.2841C18.4323 35.3793 18.4598 35.4567 18.4823 35.5163H19.0419C18.9951 35.3809 18.9338 35.2229 18.8629 35.0439L18.6307 34.4731M16.9457 34.315C17.0037 34.1699 17.0634 34.0216 17.1279 33.8668L17.3165 33.4217C17.381 33.2799 17.4342 33.1557 17.4891 33.0477L17.5906 33.2637L17.7293 33.6007L17.8777 33.9716L18.0196 34.3263L16.9457 34.3167V34.315ZM24.5387 33.3298C24.3985 33.3298 24.2614 33.354 24.1308 33.404C24.0163 33.4475 23.9147 33.5185 23.8341 33.6104V32.443C23.8035 32.4252 23.768 32.414 23.7325 32.4091C23.6922 32.4043 23.6519 32.4043 23.6116 32.4091C23.5438 32.4075 23.4777 32.4269 23.4229 32.4672C23.3987 32.4881 23.3794 32.5139 23.3681 32.543C23.3552 32.572 23.3504 32.6042 23.3536 32.6365V35.5325H23.8357V34.3989C23.8309 34.3167 23.8422 34.2328 23.868 34.1554C23.8954 34.0764 23.9373 34.0055 23.9937 33.9442C24.1147 33.8361 24.2711 33.7813 24.4323 33.7894C24.5016 33.7829 24.5726 33.7926 24.6387 33.8168C24.7048 33.841 24.7645 33.8781 24.8145 33.9281C24.9032 34.0522 24.9451 34.2038 24.9322 34.357V35.5341H25.4175V34.2151C25.424 34.099 25.4062 33.9829 25.3659 33.8732C25.3256 33.7636 25.2643 33.6636 25.1837 33.5798C25.0983 33.4991 24.9967 33.4363 24.8854 33.396C24.7742 33.3556 24.6564 33.3395 24.5387 33.346M26.564 30.3629C26.4979 30.3629 26.4334 30.3871 26.385 30.4339C26.3624 30.458 26.3431 30.4854 26.3318 30.5161C26.3189 30.5467 26.3141 30.579 26.3141 30.6128C26.3141 30.679 26.3382 30.7434 26.385 30.7918C26.4076 30.816 26.4366 30.8337 26.4672 30.8466C26.4979 30.8595 26.5317 30.866 26.564 30.866C26.5979 30.866 26.6317 30.8612 26.6624 30.8483C26.693 30.8354 26.722 30.816 26.7462 30.7918C26.7913 30.7434 26.8171 30.679 26.8171 30.6128C26.8171 30.5806 26.8123 30.5467 26.7994 30.5161C26.7865 30.4854 26.7688 30.458 26.7462 30.4339C26.6978 30.3871 26.6317 30.3613 26.564 30.3629ZM22.6651 35.1326C22.5973 35.1519 22.5264 35.1632 22.4554 35.1632C22.4054 35.1664 22.3555 35.16 22.3087 35.1422C22.2619 35.1261 22.2184 35.0987 22.1829 35.0648C22.1491 35.0278 22.1233 34.9842 22.1071 34.9375C22.091 34.8907 22.0846 34.8407 22.0878 34.7907V33.8491H22.9005C22.9376 33.7813 22.9569 33.7055 22.9537 33.6298C22.9537 33.4782 22.8698 33.404 22.7005 33.404H22.0862V32.8509C22.0555 32.8316 22.0201 32.8203 21.9846 32.8138H21.8637C21.7959 32.8106 21.7282 32.83 21.675 32.8719C21.6508 32.8913 21.6315 32.917 21.6202 32.9461C21.6073 32.9751 21.6024 33.0057 21.6041 33.038V34.9036C21.5992 34.9987 21.6153 35.0923 21.6508 35.1809C21.6863 35.2696 21.7411 35.3486 21.8104 35.4131C21.962 35.5437 22.1571 35.6115 22.3571 35.6018C22.4893 35.6018 22.6199 35.5824 22.7457 35.5405C22.8553 35.5083 22.9569 35.4551 23.0456 35.3857L22.8505 35.0487C22.7941 35.0874 22.7312 35.1148 22.6651 35.1293M4.14432 34.7069C4.4652 34.7262 4.78447 34.6698 5.07955 34.5408C5.16985 34.494 5.24724 34.4231 5.29884 34.336C5.35044 34.2473 5.37624 34.1474 5.37302 34.0458C5.37624 33.9458 5.35528 33.8458 5.31174 33.7555C5.2682 33.6652 5.2021 33.5878 5.11986 33.5298C4.92636 33.3959 4.69578 33.3298 4.46198 33.3411C4.25397 33.3379 4.04918 33.3895 3.86859 33.4895C3.69767 33.583 3.55577 33.7217 3.46064 33.891C3.35905 34.0716 3.30745 34.2747 3.31229 34.4811C3.30745 34.6843 3.35583 34.8842 3.45419 35.0616C3.54932 35.2245 3.68799 35.3583 3.85569 35.447C4.0379 35.5437 4.24107 35.5921 4.44585 35.5889C4.55066 35.5889 4.65547 35.5792 4.76028 35.5615C4.86348 35.5454 4.96345 35.518 5.0602 35.4809C5.14243 35.4535 5.21983 35.418 5.29239 35.3728L5.11663 35.0358C4.94088 35.1358 4.74093 35.1874 4.53937 35.1842C4.36845 35.1906 4.19753 35.1455 4.05402 35.0519C3.99436 35.0149 3.94437 34.9649 3.90406 34.9068C3.86536 34.8488 3.83956 34.7827 3.82667 34.7133H4.14432M3.8057 34.3763C3.80409 34.2006 3.8702 34.0313 3.99114 33.9039C4.05241 33.8442 4.12497 33.7975 4.20398 33.7668C4.28299 33.7362 4.36845 33.7217 4.45391 33.7249C4.57324 33.7184 4.69094 33.7491 4.79092 33.812C4.82962 33.8361 4.86187 33.8716 4.88283 33.9119C4.9054 33.9522 4.91508 33.999 4.91508 34.0442C4.91508 34.2699 4.66837 34.3812 4.17979 34.3812H3.8186M32.227 35.1455C32.1576 35.1648 32.0867 35.1761 32.0141 35.1761C31.9641 35.1793 31.9141 35.1729 31.8674 35.1551C31.8206 35.139 31.7771 35.1116 31.7416 35.0777C31.7077 35.0407 31.6819 34.9971 31.6658 34.9504C31.6497 34.9036 31.6432 34.8536 31.6465 34.8036V33.8619H32.4591C32.4978 33.7958 32.5172 33.7201 32.5172 33.6427C32.5172 33.4911 32.4334 33.4169 32.2608 33.4169H31.6465V32.8638C31.6158 32.8445 31.5804 32.8332 31.5449 32.8267H31.424C31.3562 32.8235 31.2885 32.8429 31.2353 32.8848C31.2111 32.9041 31.1918 32.9299 31.1805 32.959C31.1676 32.988 31.1627 33.0186 31.1643 33.0509V34.9165C31.1595 35.0116 31.1756 35.1052 31.2111 35.1938C31.2466 35.2825 31.3014 35.3615 31.3707 35.426C31.5239 35.5566 31.7206 35.6244 31.9206 35.6147C32.0512 35.6147 32.1818 35.5937 32.306 35.5534C32.4156 35.5212 32.5172 35.468 32.6059 35.3986L32.4108 35.0616C32.356 35.0987 32.2931 35.1261 32.2286 35.1422M2.2916 31.7335C2.33836 31.6867 2.36578 31.6239 2.36578 31.5577C2.36578 31.49 2.33997 31.4239 2.2916 31.3755C2.26741 31.353 2.24 31.3336 2.20937 31.3223C2.17873 31.3094 2.14648 31.3046 2.11262 31.3046C2.07876 31.3046 2.04651 31.3094 2.01587 31.3223C1.98523 31.3352 1.95782 31.353 1.93363 31.3755C1.90945 31.3997 1.8901 31.4271 1.8772 31.4594C1.8643 31.49 1.85785 31.5239 1.85946 31.5577C1.85946 31.59 1.86591 31.6239 1.87881 31.6529C1.89171 31.6835 1.91106 31.7109 1.93363 31.7335C1.95621 31.7577 1.98362 31.777 2.01426 31.7899C2.04489 31.8028 2.07876 31.8093 2.11101 31.8077C2.14487 31.8077 2.17712 31.8028 2.20775 31.7899C2.23839 31.777 2.2658 31.7577 2.28838 31.7335H2.2916ZM7.23864 33.4685C7.06933 33.3895 6.88228 33.3508 6.69523 33.354C6.50819 33.3508 6.32276 33.3895 6.15183 33.4685C6.0051 33.5362 5.87933 33.6459 5.79064 33.7829C5.70196 33.9248 5.65681 34.0909 5.66165 34.2586V35.5405H6.14377V34.3795C6.14377 33.9877 6.32598 33.7926 6.69362 33.7926C6.76941 33.7878 6.84358 33.7974 6.91453 33.8232C6.98548 33.849 7.04998 33.8894 7.1048 33.941C7.20477 34.0651 7.25315 34.2215 7.24347 34.3795V35.5405H7.7256V34.2586C7.73043 34.0909 7.6869 33.9248 7.5966 33.7829C7.50953 33.6459 7.38376 33.5362 7.23541 33.4685H7.23864ZM8.76725 28.3215C8.73661 28.307 8.70275 28.2957 8.66889 28.2877H8.55118C8.48668 28.2844 8.42379 28.3038 8.3722 28.3409C8.34962 28.3602 8.33188 28.3844 8.3206 28.4118C8.30931 28.4392 8.30286 28.4683 8.30447 28.4989V29.6937H4.00887V29.0181C4.0121 28.8762 3.9734 28.7359 3.89761 28.6166C3.82344 28.5005 3.71702 28.407 3.59124 28.3505C3.44774 28.2861 3.28972 28.2538 3.13169 28.2554C2.97206 28.2522 2.81404 28.2861 2.66892 28.3538C2.54314 28.4118 2.43672 28.5037 2.36255 28.6198C2.28676 28.7392 2.24806 28.8778 2.25129 29.0181V30.608H1.61598C1.51601 30.6144 1.41603 30.5999 1.32412 30.5645C1.2306 30.529 1.14675 30.4742 1.07742 30.4032C0.945196 30.2452 0.877472 30.042 0.88876 29.8356C0.88876 29.7469 0.896821 29.6566 0.912946 29.5696C0.930683 29.4551 0.954871 29.3422 0.98712 29.2326C0.921009 29.1826 0.840386 29.1568 0.758151 29.1584C0.709777 29.1568 0.661401 29.1665 0.617865 29.1906C0.574328 29.2132 0.538854 29.2487 0.514667 29.2906C0.475968 29.3551 0.451783 29.4261 0.443721 29.5002C0.425984 29.597 0.419533 29.6953 0.419533 29.7937C0.406633 29.9646 0.429207 30.1355 0.487256 30.2968C0.545304 30.458 0.637214 30.6048 0.756537 30.7273C1.03227 30.945 1.37895 31.053 1.72885 31.0272H2.7318V29.1713C2.7318 28.8343 2.8737 28.6714 3.15427 28.6714C3.21232 28.6682 3.27037 28.6779 3.32358 28.7005C3.37679 28.723 3.42516 28.7569 3.46386 28.7988C3.54126 28.9069 3.57996 29.0375 3.5719 29.1697V30.0872H8.78982L8.76886 28.3183L8.76725 28.3215ZM8.5415 28.0216C8.57537 28.0216 8.60923 28.0152 8.63986 28.0023C8.6705 27.9894 8.69791 27.9684 8.72049 27.9442C8.74467 27.9216 8.76402 27.8942 8.77531 27.8636C8.78821 27.833 8.79466 27.8007 8.79466 27.7685C8.79466 27.7346 8.78821 27.7023 8.77531 27.6717C8.76241 27.6411 8.74306 27.6137 8.72049 27.5895C8.69791 27.5653 8.6705 27.5459 8.63986 27.533C8.60923 27.5201 8.57537 27.5137 8.54312 27.5153C8.50925 27.5153 8.47539 27.5217 8.44476 27.5346C8.41412 27.5475 8.38509 27.5669 8.36091 27.5895C8.33672 27.612 8.31737 27.6411 8.30447 27.6717C8.29157 27.7023 8.28351 27.7362 8.28351 27.7685C8.28351 27.8007 8.28996 27.8346 8.30447 27.8636C8.31737 27.8942 8.33672 27.9216 8.36091 27.9426C8.38509 27.9668 8.41251 27.9861 8.44476 27.999C8.47539 28.0119 8.50925 28.02 8.54312 28.02L8.5415 28.0216ZM1.42732 33.1476C1.59985 33.0541 1.79174 33.0073 1.98685 33.0122C2.14809 33.0122 2.30773 33.038 2.4593 33.0896C2.58668 33.1299 2.70278 33.2008 2.7963 33.296C2.85435 33.2557 2.90434 33.2057 2.94465 33.1476C2.97851 33.1009 2.99625 33.0444 2.99786 32.9864C2.99464 32.9396 2.98012 32.8945 2.95432 32.8558C2.92852 32.8171 2.89305 32.7848 2.84951 32.7639C2.73664 32.6913 2.61087 32.6413 2.47865 32.6155C2.32063 32.5768 2.15938 32.5591 1.99652 32.5575C1.70305 32.551 1.41281 32.6187 1.1532 32.7526C0.919396 32.8751 0.724288 33.0606 0.588842 33.2895C0.448557 33.5346 0.377609 33.812 0.382447 34.0925C0.375997 34.3779 0.446945 34.6601 0.588842 34.91C0.733963 35.1229 0.938746 35.2874 1.17578 35.3857C1.45635 35.5163 1.76433 35.5808 2.07392 35.5712H2.41092L2.74793 35.5438L3.00431 35.5099V34.1603C3.00915 34.1199 3.00431 34.0796 2.9898 34.0409C2.9769 34.0038 2.95432 33.9684 2.9253 33.941C2.89628 33.9119 2.8608 33.891 2.8221 33.8797C2.7834 33.8668 2.74309 33.8636 2.70278 33.87H1.8256C1.80786 33.9039 1.79174 33.941 1.78206 33.978C1.76916 34.02 1.7611 34.0635 1.7611 34.107C1.75949 34.1361 1.76433 34.1667 1.77561 34.1941C1.7869 34.2215 1.80464 34.2457 1.8256 34.2667C1.8514 34.2892 1.88042 34.3054 1.91267 34.3167C1.94492 34.3263 1.97878 34.3312 2.01103 34.3279H2.50767V35.0939C2.44962 35.0971 2.39319 35.0971 2.33514 35.0939H2.09166C1.77723 35.1132 1.46763 35.0132 1.22415 34.8133C1.11773 34.7117 1.03711 34.5876 0.983894 34.4505C0.930683 34.3134 0.908108 34.1667 0.917783 34.02C0.912945 33.8216 0.961319 33.6265 1.05645 33.4524C1.14353 33.2944 1.27253 33.1621 1.43055 33.0751M1.40636 31.7238C1.44022 31.7238 1.47247 31.719 1.50311 31.7061C1.53374 31.6932 1.56116 31.6738 1.58373 31.6497C1.63049 31.6029 1.6579 31.54 1.6579 31.4739C1.6579 31.4062 1.6321 31.3401 1.58373 31.2917C1.55954 31.2691 1.53213 31.2498 1.5015 31.2385C1.47086 31.2256 1.43861 31.2207 1.40475 31.2207C1.37089 31.2207 1.33864 31.2256 1.308 31.2385C1.27736 31.2514 1.24995 31.2691 1.22576 31.2917C1.20158 31.3159 1.18223 31.3433 1.16933 31.3755C1.15643 31.4062 1.14998 31.44 1.15159 31.4739C1.15159 31.5061 1.15804 31.54 1.17094 31.569C1.18384 31.5997 1.20319 31.6271 1.22576 31.6497C1.24834 31.6738 1.27575 31.6932 1.30639 31.7061C1.33702 31.719 1.37089 31.7254 1.40314 31.7238H1.40636ZM15.5541 26.8268C15.4912 26.8252 15.4299 26.8445 15.3783 26.88C15.3558 26.9009 15.338 26.9251 15.3267 26.9525C15.3155 26.98 15.3106 27.0106 15.3122 27.0412V29.626H14.6737C14.6124 29.6341 14.5495 29.626 14.4915 29.6067C14.4334 29.5873 14.3802 29.5518 14.3367 29.5083C14.2641 29.4003 14.2319 29.2697 14.2416 29.1407C14.2512 29.0133 14.2319 28.8843 14.1883 28.7633C14.1448 28.6424 14.0771 28.5328 13.9884 28.4392C13.8981 28.3554 13.7917 28.2909 13.6756 28.2506C13.5595 28.2087 13.4369 28.1909 13.3144 28.1974C13.1902 28.1925 13.0677 28.2119 12.9516 28.2554C12.8355 28.299 12.7291 28.3651 12.6404 28.4505C12.5565 28.5408 12.4904 28.6472 12.4485 28.7633C12.405 28.8794 12.3856 29.002 12.3921 29.1261C12.4066 29.2616 12.3695 29.3954 12.2872 29.5035C12.2421 29.5454 12.1889 29.576 12.1308 29.5954C12.0728 29.6147 12.0115 29.6212 11.9502 29.6147H11.3859V29.4325C11.3939 29.1971 11.3375 28.9633 11.2246 28.7569C11.1166 28.5715 10.957 28.4231 10.7651 28.328C10.5426 28.2216 10.2991 28.17 10.0524 28.1764C9.88791 28.17 9.72344 28.1974 9.57025 28.2538C9.44932 28.3038 9.39127 28.3715 9.39127 28.4602C9.39127 28.5037 9.40417 28.5473 9.42513 28.5844C9.44448 28.6247 9.47189 28.6601 9.50576 28.6892C9.5767 28.6569 9.65249 28.6343 9.72827 28.6182C9.82018 28.6005 9.9121 28.5924 10.0056 28.5908C10.1282 28.5827 10.2507 28.5989 10.3668 28.6408C10.4829 28.6811 10.5893 28.7456 10.6796 28.8278C10.7619 28.9101 10.8264 29.0084 10.8683 29.1181C10.9102 29.2277 10.9296 29.3422 10.9231 29.4599V29.6083H9.14456V30.0098H12.0035C12.1179 30.0098 12.2324 29.992 12.3405 29.9566C12.4404 29.9211 12.5259 29.8501 12.5775 29.7582C12.6678 29.8582 12.7807 29.9372 12.9048 29.9872C13.0306 30.0388 13.1644 30.0598 13.2999 30.0517C13.4337 30.0598 13.5675 30.0372 13.6901 29.9856C13.8143 29.934 13.9239 29.855 14.011 29.755C14.0755 29.8405 14.1609 29.9082 14.2593 29.9533C14.3577 29.9985 14.4641 30.0178 14.5721 30.0114H15.7363V26.8526C15.7057 26.8365 15.6718 26.8268 15.6379 26.8219C15.5992 26.8171 15.5589 26.8171 15.5202 26.8219M13.6304 29.5196C13.5885 29.568 13.5369 29.605 13.4789 29.6308C13.4208 29.6566 13.3563 29.6679 13.2934 29.6647C13.2305 29.6679 13.166 29.6566 13.108 29.6308C13.0499 29.605 12.9967 29.568 12.9564 29.5196C12.8742 29.4067 12.8323 29.268 12.8387 29.1278C12.8323 28.9875 12.8742 28.8488 12.9564 28.7359C12.9983 28.6876 13.0499 28.6505 13.108 28.6247C13.166 28.5989 13.2305 28.5876 13.2934 28.5908C13.3563 28.5876 13.4208 28.5989 13.4789 28.6247C13.5369 28.6505 13.5885 28.6876 13.6304 28.7359C13.7127 28.8488 13.7546 28.9875 13.7481 29.1278C13.7546 29.268 13.7127 29.4067 13.6304 29.5196ZM20.8333 26.8735C20.8107 26.8945 20.793 26.9187 20.7817 26.9461C20.7704 26.9735 20.7656 27.0041 20.7672 27.0348V30.0211H21.2267V26.8622C21.1977 26.8461 21.1655 26.8364 21.1316 26.8316C21.0929 26.8268 21.0526 26.8268 21.0139 26.8316C20.9494 26.83 20.8865 26.8477 20.8349 26.8848M8.86561 34.6698C9.18649 34.6891 9.50576 34.6327 9.80084 34.5037C9.89113 34.457 9.96853 34.386 10.0201 34.2989C10.0717 34.2102 10.0975 34.1103 10.0943 34.0087C10.0975 33.9087 10.0766 33.8087 10.033 33.7184C9.9895 33.6281 9.92338 33.5507 9.84115 33.4927C9.64765 33.3589 9.41707 33.2928 9.18326 33.304C8.97526 33.3008 8.77047 33.3524 8.58988 33.4524C8.41896 33.5459 8.27706 33.6846 8.18192 33.8539C8.08034 34.0345 8.02874 34.2377 8.03358 34.4441C8.02874 34.6472 8.07712 34.8472 8.17548 35.0245C8.27061 35.1874 8.40928 35.3212 8.57698 35.4099C8.75918 35.5067 8.96236 35.555 9.16714 35.5518C9.27195 35.5518 9.37676 35.5421 9.48157 35.5244C9.58477 35.5083 9.68474 35.4809 9.78149 35.4438C9.86372 35.4164 9.94112 35.3809 10.0137 35.3357L9.83792 34.9987C9.66216 35.0987 9.46383 35.1503 9.26066 35.1471C9.08974 35.1535 8.91882 35.1084 8.77531 35.0149C8.71565 34.9778 8.66566 34.9278 8.62535 34.8697C8.58665 34.8117 8.56085 34.7456 8.54795 34.6762H8.86561M8.5286 34.3392C8.5286 34.1635 8.59472 33.9942 8.71726 33.8668C8.77854 33.8071 8.8511 33.7604 8.93011 33.7297C9.00912 33.6991 9.09458 33.6846 9.18004 33.6878C9.29936 33.6814 9.41707 33.712 9.51704 33.7749C9.55574 33.7991 9.58799 33.8345 9.60895 33.8748C9.63153 33.9152 9.6412 33.9619 9.6412 34.0071C9.6412 34.2328 9.3945 34.3441 8.90592 34.3441H8.5415M18.9806 27.5653C18.9564 27.5879 18.937 27.6153 18.9241 27.6443C18.9112 27.6749 18.9032 27.7072 18.9032 27.7394C18.9032 27.7733 18.9112 27.8055 18.9241 27.8362C18.937 27.8668 18.9564 27.8942 18.9806 27.9184C19.0048 27.9426 19.0322 27.962 19.0644 27.9749C19.0951 27.9878 19.1289 27.9942 19.1628 27.9926C19.1967 27.9926 19.2289 27.9878 19.2595 27.9749C19.2902 27.962 19.3176 27.9426 19.3402 27.9184C19.3643 27.8958 19.3821 27.8668 19.395 27.8362C19.4079 27.8055 19.4143 27.7717 19.4143 27.7394C19.4143 27.7072 19.4079 27.6733 19.395 27.6443C19.3821 27.6137 19.3627 27.5862 19.3402 27.5637C19.3176 27.5395 19.2902 27.5185 19.2595 27.5056C19.2289 27.4927 19.195 27.4863 19.1612 27.4863C19.1273 27.4863 19.0935 27.4927 19.0628 27.5056C19.0322 27.5185 19.0032 27.5379 18.979 27.5637L18.9806 27.5653ZM16.2974 26.8913C16.2749 26.9122 16.2571 26.9364 16.2475 26.9654C16.2362 26.9929 16.2313 27.0235 16.2346 27.0541V30.0404H16.6941V26.8816C16.6635 26.8655 16.6296 26.8558 16.5957 26.851C16.557 26.8461 16.5167 26.8461 16.478 26.851C16.4135 26.8493 16.3507 26.8687 16.2991 26.9042M14.7446 32.3849C14.6785 32.3817 14.6124 32.4027 14.5592 32.443C14.5334 32.4623 14.5141 32.4881 14.5012 32.5188C14.4883 32.5478 14.4834 32.58 14.485 32.6123V35.5083H14.9672V32.4333C14.9365 32.4156 14.9011 32.4043 14.8656 32.3995C14.8253 32.3946 14.785 32.3946 14.7446 32.3995M11.7922 33.4105C11.6536 33.346 11.502 33.3169 11.3504 33.3266C11.1053 33.3089 10.8634 33.3863 10.6748 33.5427C10.5942 33.6201 10.5313 33.7136 10.4894 33.8168C10.4474 33.92 10.4297 34.0329 10.4361 34.1441V35.5147H10.9183V34.2393C10.9183 33.8877 11.0844 33.712 11.4149 33.712C11.5616 33.7088 11.7052 33.741 11.8374 33.8071C11.8664 33.7829 11.8906 33.7507 11.9051 33.7152C11.9293 33.6749 11.9422 33.6281 11.9422 33.5798C11.939 33.533 11.9228 33.4862 11.8938 33.4492C11.8664 33.4105 11.8277 33.3814 11.7826 33.3637M12.9161 33.296C12.7371 33.2863 12.5565 33.3169 12.3888 33.383C12.3405 33.3992 12.2969 33.4282 12.2647 33.4685C12.2324 33.5088 12.2131 33.5572 12.2099 33.6088C12.2099 33.6539 12.2228 33.7007 12.2437 33.741C12.2647 33.7765 12.2921 33.8087 12.3243 33.8362C12.3937 33.7829 12.4743 33.7475 12.5614 33.7313C12.6791 33.7007 12.8 33.6862 12.9226 33.6878C13.0886 33.6765 13.2531 33.7184 13.395 33.8055C13.4498 33.8507 13.4934 33.9087 13.5208 33.9748C13.5482 34.0409 13.5595 34.1119 13.553 34.1828C13.4708 34.1715 13.3886 34.1635 13.3063 34.1619H13.0322C12.7597 34.1409 12.4888 34.2038 12.2518 34.3409C12.1728 34.3989 12.1099 34.4763 12.068 34.565C12.026 34.6537 12.0067 34.752 12.0115 34.8504C12.0051 34.9568 12.026 35.0632 12.076 35.1584C12.126 35.2535 12.2002 35.3325 12.2921 35.3873C12.5404 35.5131 12.8178 35.5696 13.0951 35.5534C13.2338 35.5534 13.3853 35.5534 13.5579 35.5325C13.7304 35.5115 13.8949 35.505 14.0335 35.4857V34.2102C14.0432 34.0829 14.0223 33.9555 13.9723 33.8394C13.9223 33.7217 13.8465 33.6185 13.7498 33.5362C13.5047 33.3669 13.2096 33.2863 12.9129 33.3073M13.5563 35.1632C13.4902 35.1777 13.4224 35.1874 13.3531 35.1938H13.0967C12.9403 35.2035 12.7839 35.1761 12.6404 35.1132C12.5936 35.089 12.5565 35.0503 12.5307 35.0052C12.5049 34.9584 12.4936 34.9068 12.4985 34.8536C12.4969 34.802 12.5065 34.752 12.5259 34.7053C12.5469 34.6585 12.5775 34.6166 12.6162 34.5843C12.7484 34.515 12.8984 34.4844 13.0483 34.4973H13.3112C13.3934 34.5021 13.474 34.5118 13.5546 34.5279V35.1664L13.5563 35.1632ZM65.1309 26.8913C65.1083 26.9122 65.0905 26.9364 65.0793 26.9638C65.068 26.9912 65.0631 27.0219 65.0647 27.0525V30.0388H65.5243V26.88C65.4937 26.8639 65.4598 26.8542 65.4259 26.8493C65.3872 26.8445 65.3469 26.8445 65.3082 26.8493C65.2453 26.8477 65.1841 26.8671 65.1325 26.9026M60.3854 33.3605C60.3193 33.3589 60.2532 33.3782 60.1999 33.4185C60.1758 33.4395 60.1564 33.4653 60.1435 33.4943C60.1306 33.5233 60.1258 33.5556 60.129 33.5878V35.4873H60.6111V33.4088C60.5789 33.3927 60.545 33.3814 60.5095 33.375C60.4676 33.3702 60.4257 33.3702 60.3854 33.375M60.3676 32.422C60.3289 32.422 60.2902 32.4285 60.2548 32.443C60.2193 32.4575 60.1854 32.4801 60.1596 32.5075C60.1322 32.5349 60.1113 32.5671 60.0967 32.6042C60.0822 32.6397 60.0758 32.6784 60.0774 32.7171C60.0774 32.7558 60.0822 32.7945 60.0967 32.8316C60.1113 32.8687 60.1322 32.9009 60.158 32.9299C60.1854 32.9574 60.2177 32.9799 60.2532 32.9944C60.2886 33.009 60.3273 33.0154 60.366 33.0154C60.4047 33.0154 60.445 33.0106 60.4805 32.9961C60.5176 32.9815 60.5499 32.959 60.5773 32.9316C60.6047 32.9025 60.6256 32.8703 60.6385 32.8332C60.6514 32.7961 60.6595 32.7574 60.6579 32.7187C60.6579 32.68 60.653 32.6413 60.6385 32.6058C60.624 32.5704 60.6031 32.5365 60.5756 32.5091C60.5482 32.4817 60.5144 32.4591 60.4789 32.4446C60.4418 32.4301 60.4031 32.4236 60.3644 32.4252L60.3676 32.422ZM59.355 30.7612C59.3792 30.7386 59.3969 30.7096 59.4098 30.6789C59.4227 30.6483 59.4292 30.6145 59.4292 30.5822C59.4292 30.5483 59.4243 30.5161 59.4114 30.4854C59.3985 30.4548 59.3792 30.4274 59.355 30.4032C59.3324 30.3806 59.3034 30.3613 59.2728 30.35C59.2421 30.3387 59.2083 30.3323 59.176 30.3323C59.1422 30.3323 59.1099 30.3371 59.0793 30.35C59.0486 30.3629 59.0212 30.3806 58.997 30.4032C58.9487 30.45 58.9229 30.5145 58.9229 30.5822C58.9229 30.6499 58.9503 30.7128 58.997 30.7612C59.0196 30.7854 59.047 30.8047 59.0777 30.8176C59.1083 30.8305 59.1422 30.837 59.1744 30.8354C59.2083 30.8354 59.2405 30.8305 59.2712 30.8176C59.3018 30.8047 59.3292 30.7854 59.3518 30.7612H59.355ZM62.6525 33.4621C62.4687 33.3621 62.2639 33.3121 62.0559 33.3137C61.8479 33.3105 61.6431 33.3621 61.4625 33.4621C61.29 33.5588 61.1481 33.6975 61.0481 33.8668C60.9433 34.0377 60.8885 34.236 60.8933 34.4376C60.8901 34.6392 60.9433 34.8391 61.0481 35.0116C61.1481 35.1793 61.2916 35.318 61.4625 35.4131C61.6447 35.5131 61.8495 35.5647 62.0559 35.5615C62.2639 35.5631 62.4703 35.5131 62.6525 35.4131C62.8234 35.318 62.9669 35.1793 63.0669 35.0116C63.1685 34.8375 63.2217 34.6392 63.2185 34.4376C63.2217 34.2376 63.1685 34.0393 63.0669 33.8668C62.9669 33.6975 62.8234 33.5572 62.6525 33.4621ZM62.6332 34.8117C62.5783 34.9133 62.4961 34.9987 62.3961 35.0584C62.2945 35.1181 62.1768 35.1487 62.0591 35.1455C61.9414 35.1471 61.8237 35.1181 61.7221 35.0584C61.6221 34.9987 61.5415 34.9133 61.4851 34.8117C61.4286 34.6988 61.3996 34.573 61.4012 34.4473C61.4012 34.3215 61.4286 34.1973 61.4851 34.0861C61.5383 33.9829 61.6205 33.8958 61.7221 33.8362C61.8253 33.7781 61.9414 33.7475 62.0591 33.7491C62.1768 33.7491 62.2929 33.7781 62.3961 33.8362C62.4961 33.8958 62.5783 33.9829 62.6332 34.0861C62.6912 34.1973 62.7202 34.3215 62.717 34.4473C62.7202 34.573 62.6912 34.6988 62.6332 34.8117ZM56.896 33.3234C56.7154 33.3137 56.5364 33.3443 56.3687 33.4105C56.3204 33.4266 56.2768 33.4556 56.2446 33.4959C56.2123 33.5362 56.193 33.5846 56.1898 33.6362C56.1898 33.6814 56.2027 33.7265 56.2236 33.7684C56.2446 33.8039 56.272 33.8361 56.3042 33.8636C56.3736 33.812 56.4542 33.7749 56.5413 33.7588C56.659 33.7281 56.7799 33.7136 56.9025 33.7152C57.0685 33.7039 57.2346 33.7458 57.3749 33.8329C57.4297 33.8781 57.4733 33.9361 57.5007 34.0022C57.5281 34.0683 57.5394 34.1393 57.5329 34.2102C57.4523 34.199 57.3717 34.1909 57.2895 34.1893H57.0121C56.7412 34.1683 56.4703 34.2296 56.2365 34.3683C56.1575 34.4263 56.093 34.5037 56.0511 34.5924C56.0092 34.6811 55.9898 34.7794 55.9963 34.8778C55.9882 34.9842 56.0108 35.0906 56.0591 35.1858C56.1075 35.2809 56.1817 35.3599 56.2736 35.4147C56.5219 35.5405 56.7993 35.597 57.0766 35.5808C57.2153 35.5808 57.3701 35.5808 57.5394 35.5599C57.7087 35.5389 57.8764 35.5325 58.0183 35.5131V34.2377C58.028 34.1103 58.007 33.9829 57.957 33.8652C57.907 33.7475 57.8296 33.6443 57.7313 33.562C57.4862 33.3927 57.1911 33.3121 56.8944 33.3331M57.5394 35.1906C57.4717 35.2051 57.4023 35.2148 57.333 35.2213H57.0766C56.9218 35.2309 56.767 35.2035 56.6251 35.1406C56.5784 35.1164 56.5397 35.0794 56.5139 35.0326C56.4881 34.9858 56.4768 34.9326 56.48 34.881C56.4784 34.8294 56.4881 34.7794 56.509 34.7311C56.53 34.6843 56.5606 34.6424 56.6009 34.6101C56.7315 34.5392 56.8815 34.5085 57.0299 34.5231H57.2959C57.3781 34.5279 57.4588 34.5376 57.5394 34.5537V35.1922V35.1906ZM59.463 35.1229C59.3953 35.1422 59.3244 35.1519 59.2534 35.1535C59.2034 35.1568 59.1518 35.1503 59.1051 35.1326C59.0583 35.1164 59.0132 35.089 58.9761 35.0552C58.91 34.9794 58.8761 34.881 58.881 34.7811V33.8394H59.6985C59.7339 33.7717 59.7517 33.6959 59.7517 33.6201C59.7517 33.4685 59.6678 33.3943 59.4953 33.3943H58.881V32.8413C58.8503 32.8219 58.8148 32.8106 58.7794 32.8042H58.6584C58.5923 32.7993 58.5262 32.8203 58.473 32.8622C58.4488 32.8816 58.4278 32.9074 58.4149 32.9364C58.402 32.9654 58.3956 32.9961 58.3988 33.0283V34.8939C58.3956 34.9891 58.4117 35.0826 58.4472 35.1713C58.4827 35.2583 58.5359 35.339 58.6052 35.4035C58.7584 35.5341 58.9551 35.6018 59.1551 35.5921C59.2873 35.5921 59.4179 35.5712 59.5437 35.5308C59.6517 35.4986 59.7517 35.4454 59.8404 35.3761L59.6453 35.0391C59.5904 35.0761 59.5275 35.1035 59.463 35.1197M55.4142 32.4398C55.3755 32.4398 55.3368 32.4462 55.3013 32.4607C55.2658 32.4752 55.2319 32.4978 55.2061 32.5252C55.1787 32.5526 55.1578 32.5849 55.1433 32.622C55.1288 32.659 55.1223 32.6961 55.1239 32.7348C55.1239 32.7735 55.1288 32.8122 55.1433 32.8493C55.1578 32.8864 55.1787 32.9187 55.2045 32.9477C55.232 32.9751 55.2642 32.9977 55.2997 33.0122C55.3351 33.0267 55.3738 33.0331 55.4125 33.0331C55.4512 33.0331 55.4916 33.0283 55.527 33.0138C55.5641 32.9993 55.5964 32.9767 55.6238 32.9493C55.6512 32.9203 55.6721 32.888 55.6851 32.8509C55.6979 32.8139 55.706 32.7751 55.7044 32.7365C55.7044 32.6978 55.6996 32.659 55.6851 32.6236C55.6705 32.5881 55.6496 32.5542 55.6222 32.5268C55.5947 32.4994 55.5609 32.4768 55.5254 32.4623C55.4883 32.4478 55.4496 32.4414 55.4109 32.443L55.4142 32.4398ZM58.6294 30.7789C58.6536 30.7563 58.6713 30.7273 58.6842 30.6967C58.6971 30.666 58.7036 30.6322 58.7036 30.5999C58.7036 30.5661 58.6987 30.5338 58.6858 30.5032C58.6729 30.4726 58.6536 30.4451 58.6294 30.421C58.6068 30.3968 58.5778 30.379 58.5472 30.3677C58.5165 30.3548 58.4827 30.35 58.4504 30.35C58.4166 30.35 58.3843 30.3548 58.3537 30.3677C58.323 30.3806 58.2956 30.3984 58.2714 30.421C58.2472 30.4435 58.2279 30.4726 58.215 30.5032C58.2021 30.5338 58.1957 30.5677 58.1973 30.5999C58.1973 30.6338 58.2037 30.666 58.2166 30.6967C58.2295 30.7273 58.2472 30.7547 58.2714 30.7789C58.294 30.8031 58.3214 30.8225 58.3521 30.8354C58.3827 30.8483 58.4166 30.8547 58.4488 30.8531C58.4827 30.8531 58.5149 30.8483 58.5456 30.8354C58.5762 30.8225 58.6036 30.8031 58.6262 30.7789H58.6294ZM34.6666 33.3911C34.6005 33.3895 34.5344 33.4088 34.4812 33.4492C34.4586 33.4701 34.4393 33.4975 34.428 33.5266C34.4167 33.5556 34.4118 33.5878 34.4135 33.6185V34.5231C34.4231 34.6827 34.3731 34.8391 34.2716 34.9616C34.2183 35.0165 34.1522 35.0584 34.0813 35.0842C34.0103 35.1116 33.9329 35.1213 33.8572 35.1164C33.7846 35.1213 33.7104 35.1116 33.6427 35.0858C33.5734 35.0616 33.5105 35.0229 33.4557 34.9745C33.4057 34.9197 33.367 34.8568 33.3412 34.7875C33.317 34.7182 33.3057 34.644 33.3105 34.5698V33.4395C33.2767 33.4234 33.2428 33.4121 33.2057 33.4056C33.1638 33.4008 33.1219 33.4008 33.0816 33.4056C33.0154 33.404 32.951 33.4234 32.8994 33.4637C32.8752 33.4846 32.8558 33.5104 32.8445 33.5395C32.8316 33.5685 32.8268 33.6007 32.83 33.633V34.6827C32.8268 34.8439 32.8671 35.002 32.9477 35.1422C33.0283 35.2729 33.1461 35.3761 33.2847 35.4389C33.4379 35.5115 33.6056 35.547 33.7733 35.5438C33.9136 35.547 34.0523 35.5228 34.1813 35.4696C34.2828 35.4309 34.3715 35.3599 34.4344 35.2712V35.3922C34.4409 35.4825 34.428 35.5728 34.3973 35.6566C34.3667 35.7405 34.3167 35.8179 34.2522 35.8808C34.1006 35.992 33.9136 36.0468 33.7249 36.0356C33.6443 36.0404 33.5621 36.0404 33.4814 36.0356C33.3944 36.0356 33.3121 36.0114 33.2315 35.9952C33.1638 35.9791 33.0993 35.9581 33.0364 35.9307L32.9155 36.2919C33.0461 36.3403 33.1799 36.3758 33.317 36.3967C33.4686 36.4258 33.6217 36.4403 33.7765 36.4403C34.0797 36.4596 34.3796 36.3596 34.6102 36.1597C34.7134 36.0484 34.794 35.9178 34.844 35.7743C34.894 35.6308 34.9149 35.4776 34.9036 35.3261V33.4701C34.8698 33.454 34.8359 33.4427 34.7988 33.4363C34.7569 33.4314 34.715 33.4314 34.6747 33.4363M65.0696 33.4895C64.9003 33.4105 64.7132 33.3718 64.5262 33.375C64.3391 33.3718 64.1537 33.4105 63.9828 33.4895C63.836 33.5572 63.7103 33.6668 63.6216 33.8039C63.5345 33.9474 63.4894 34.1119 63.4926 34.2796V35.5615H63.9747V34.4005C63.9747 34.0087 64.1569 33.8136 64.5246 33.8136C64.6003 33.8087 64.6745 33.8184 64.7455 33.8442C64.8164 33.87 64.8809 33.9103 64.9357 33.9619C65.0373 34.0845 65.0857 34.2425 65.0744 34.4005V35.5615H65.5598V34.2796C65.5646 34.1119 65.5178 33.9458 65.4275 33.8039C65.3405 33.6668 65.2147 33.5572 65.0664 33.4895H65.0696ZM51.928 27.6169C51.9054 27.6411 51.8861 27.6685 51.8748 27.6991C51.8619 27.7298 51.8571 27.762 51.8571 27.7959C51.8571 27.862 51.8813 27.9265 51.928 27.9749C51.9506 27.999 51.978 28.0184 52.0086 28.0297C52.0393 28.0426 52.0715 28.049 52.1038 28.049C52.1376 28.049 52.1715 28.0442 52.2021 28.0313C52.2328 28.0184 52.2618 27.999 52.286 27.9749C52.3102 27.9523 52.3279 27.9233 52.3408 27.8926C52.3537 27.862 52.3602 27.8281 52.3602 27.7959C52.3602 27.762 52.3553 27.7298 52.3424 27.6991C52.3295 27.6685 52.3102 27.6411 52.286 27.6169C52.2376 27.5685 52.1715 27.5427 52.1038 27.5427C52.0377 27.5427 51.9748 27.5701 51.928 27.6169ZM64.5633 30.1065V26.9477C64.5326 26.9316 64.4988 26.9219 64.4649 26.9171C64.4262 26.9122 64.3859 26.9122 64.3472 26.9171C64.2827 26.9155 64.2214 26.9348 64.1682 26.9703C64.1456 26.9912 64.1295 27.0154 64.1182 27.0445C64.1069 27.0719 64.1021 27.1025 64.1053 27.1331V29.7179H63.4297C63.3717 29.7244 63.312 29.7179 63.2572 29.697C63.2024 29.676 63.1524 29.6421 63.1137 29.5986C63.0508 29.4857 63.0234 29.3567 63.033 29.2277V29.1326C63.0379 28.9391 62.9911 28.7488 62.8976 28.5795C62.8073 28.4231 62.6718 28.2957 62.509 28.2151C62.3203 28.1232 62.1123 28.078 61.9011 28.0829H61.6512C61.5721 28.0909 61.4931 28.1055 61.4141 28.1264C61.3593 28.1361 61.3077 28.1571 61.2626 28.1909C61.2448 28.2022 61.2303 28.2183 61.2206 28.2361C61.211 28.2538 61.2045 28.2748 61.2045 28.2957C61.2029 28.307 61.2029 28.3183 61.2045 28.3296H61.1207C60.9546 28.3264 60.7901 28.3683 60.645 28.4505C60.5047 28.5295 60.387 28.6472 60.308 28.7875C60.2257 28.9327 60.1838 29.0971 60.187 29.2632C60.1951 29.3825 60.1645 29.5002 60.1 29.6002C60.0564 29.6437 60.0032 29.6776 59.9452 29.697C59.8871 29.7163 59.8242 29.7211 59.763 29.7115H59.4727C59.376 29.7147 59.2792 29.6986 59.1889 29.6647C59.1551 29.6486 59.1244 29.626 59.0986 29.597C59.0744 29.568 59.0551 29.5357 59.0438 29.4986C59.0083 29.389 58.9938 29.2761 59.0003 29.1616V28.2603C58.9696 28.2441 58.9358 28.2328 58.9019 28.2264C58.8632 28.2232 58.8229 28.2232 58.7842 28.2264C58.7213 28.2232 58.6584 28.2425 58.6084 28.2796C58.5859 28.299 58.5681 28.3231 58.5568 28.3505C58.5456 28.378 58.5391 28.407 58.5407 28.4376V29.0891C58.5456 29.2035 58.5327 29.3164 58.5004 29.4261C58.4891 29.4632 58.4714 29.4954 58.4456 29.5244C58.4198 29.5535 58.3891 29.576 58.3553 29.5905C58.265 29.6276 58.1666 29.6454 58.0683 29.6405H57.778C57.6813 29.6437 57.5845 29.6276 57.4942 29.5938C57.4604 29.5776 57.4297 29.5535 57.4055 29.526C57.3814 29.497 57.362 29.4648 57.3491 29.4293C57.3169 29.3196 57.304 29.2052 57.3088 29.0923V28.2586C57.2782 28.2441 57.2443 28.2328 57.2104 28.2248H57.0927C57.0282 28.2216 56.9653 28.2393 56.9137 28.278C56.8912 28.2973 56.8734 28.3215 56.8621 28.3489C56.8509 28.3763 56.8444 28.4054 56.846 28.436V29.0874C56.8509 29.2019 56.838 29.3148 56.8057 29.4245C56.7944 29.4615 56.7767 29.4938 56.7509 29.5228C56.7251 29.5518 56.6945 29.5744 56.6606 29.5889C56.5703 29.6276 56.4719 29.6437 56.3736 29.6389H52.8842C52.8245 29.6454 52.7633 29.6389 52.7052 29.6228C52.6472 29.605 52.594 29.576 52.5472 29.5373C52.4746 29.4341 52.4408 29.3084 52.4521 29.1826V28.2312H51.8248C51.4991 28.2119 51.1782 28.3006 50.9073 28.4812C50.8009 28.5586 50.7138 28.6585 50.6558 28.7762C50.5977 28.894 50.5671 29.0246 50.5703 29.1552C50.5655 29.3148 50.6058 29.4728 50.6848 29.6115C50.7654 29.7437 50.8831 29.8501 51.0218 29.9179C51.1734 29.992 51.3411 30.0291 51.5104 30.0259C51.6458 30.034 51.7797 30.0114 51.9071 29.963C52.0328 29.913 52.1473 29.8372 52.2408 29.7389C52.2989 29.8308 52.3811 29.905 52.4811 29.9517C52.5859 30.0017 52.702 30.0275 52.8181 30.0259H56.3961C56.5654 30.034 56.7332 30.013 56.896 29.9646C57.004 29.9275 57.0943 29.8501 57.1492 29.7486C57.1959 29.8389 57.2701 29.913 57.3588 29.963C57.4475 30.013 57.5507 30.034 57.6523 30.0259H58.0908C58.2602 30.034 58.4279 30.013 58.5907 29.9646C58.6987 29.9259 58.7874 29.8485 58.8439 29.7486C58.8906 29.8389 58.9632 29.913 59.0519 29.963C59.1406 30.013 59.2421 30.034 59.3437 30.0259H59.8291C59.9516 30.0259 60.0742 30.013 60.1935 29.9824C60.316 29.9485 60.4208 29.8695 60.4902 29.7631C60.574 29.8469 60.674 29.9114 60.7837 29.955C60.9159 30.0066 61.0578 30.0307 61.1981 30.0259H62.2413C62.3655 30.0307 62.4896 30.0082 62.6057 29.9614C62.696 29.9243 62.7783 29.8663 62.8428 29.7921C62.9121 29.8905 63.0137 29.9614 63.1298 29.9904C63.241 30.0146 63.3539 30.0259 63.4668 30.0243H64.6116L64.5681 30.0952L64.5633 30.1065ZM52.0151 29.1681C52.0215 29.3116 51.9764 29.4519 51.8861 29.5631C51.8409 29.6115 51.7845 29.6486 51.7232 29.6728C51.662 29.697 51.5958 29.7082 51.5281 29.705C51.4652 29.7066 51.404 29.697 51.3459 29.6744C51.2879 29.6518 51.2347 29.6196 51.1895 29.576C51.146 29.5309 51.1121 29.4793 51.0911 29.4212C51.0686 29.3632 51.0589 29.3019 51.0621 29.239C51.0573 29.16 51.075 29.0826 51.1089 29.0117C51.1444 28.9407 51.196 28.8811 51.2605 28.8375C51.4378 28.7343 51.641 28.6859 51.8442 28.6988H52.0199L52.0135 29.1681H52.0151ZM61.5834 29.705H61.1448C61.0787 29.7066 61.0126 29.697 60.9513 29.6728C60.8901 29.6502 60.832 29.6147 60.7837 29.5696C60.7401 29.526 60.7046 29.4728 60.6821 29.4148C60.6595 29.3567 60.6482 29.2955 60.6482 29.2326C60.645 29.1665 60.6563 29.102 60.6788 29.0407C60.7014 28.9794 60.7353 28.923 60.7804 28.8746C60.824 28.8295 60.8772 28.794 60.9352 28.7698C60.9933 28.7456 61.0562 28.7343 61.119 28.7359C61.1819 28.7327 61.2464 28.7456 61.3045 28.7698C61.3625 28.7956 61.4141 28.8327 61.456 28.8811C61.5447 28.9907 61.5883 29.1294 61.5802 29.2697L61.5834 29.705ZM62.5719 29.2568C62.5799 29.3761 62.5509 29.4938 62.488 29.5938C62.4445 29.6373 62.3913 29.6695 62.3332 29.6889C62.2752 29.7082 62.2123 29.7131 62.151 29.705H62.0333V29.2293C62.043 29.0891 62.014 28.9488 61.9527 28.823C61.8898 28.6972 61.7963 28.5892 61.6786 28.5118H61.9043C62.0801 28.5037 62.2526 28.5634 62.3832 28.6811C62.4445 28.7424 62.4913 28.8149 62.5219 28.8956C62.5525 28.9762 62.567 29.0616 62.5622 29.1471L62.5719 29.2584V29.2568ZM51.2153 27.6169C51.1927 27.6411 51.1734 27.6685 51.1621 27.6991C51.1492 27.7298 51.1444 27.762 51.1444 27.7959C51.1444 27.862 51.1685 27.9265 51.2153 27.9749C51.2379 27.999 51.2653 28.0184 51.2959 28.0297C51.3266 28.0426 51.3588 28.049 51.3911 28.049C51.4249 28.049 51.4572 28.0442 51.4878 28.0313C51.5184 28.0184 51.5459 27.999 51.5684 27.9749C51.5926 27.9523 51.6104 27.9233 51.6233 27.8926C51.6362 27.862 51.6426 27.8281 51.6426 27.7959C51.6426 27.762 51.6378 27.7298 51.6249 27.6991C51.612 27.6685 51.5926 27.6411 51.5684 27.6169C51.5459 27.5927 51.5168 27.575 51.4862 27.5621C51.4556 27.5492 51.4217 27.5427 51.3895 27.5427C51.3233 27.5427 51.2605 27.5701 51.2137 27.6169H51.2153ZM56.6961 27.9974H57.4958V27.7942H57.2798C57.2217 27.7975 57.1653 27.7797 57.1185 27.7475C57.0992 27.7314 57.083 27.7104 57.0718 27.6878C57.0621 27.6636 57.0556 27.6395 57.0573 27.6137C57.0573 27.5943 57.0589 27.575 57.0669 27.5572C57.075 27.5395 57.0863 27.5234 57.1008 27.5121C57.1346 27.4847 57.1782 27.4718 57.2217 27.475C57.254 27.4701 57.2878 27.4701 57.3201 27.475C57.3507 27.483 57.3781 27.4976 57.4039 27.5153C57.4217 27.5008 57.4346 27.483 57.4459 27.4637C57.4555 27.4443 57.462 27.4218 57.4652 27.4008C57.4636 27.3782 57.4555 27.3573 57.441 27.3395C57.4265 27.3218 57.4088 27.3089 57.3878 27.3024C57.3265 27.2766 57.2588 27.2638 57.1927 27.2654C57.0976 27.2621 57.004 27.2928 56.9299 27.3524C56.896 27.3798 56.8702 27.4153 56.8525 27.4556C56.8347 27.4959 56.8267 27.5379 56.8283 27.5814C56.8283 27.6201 56.838 27.6572 56.8525 27.6927C56.867 27.7265 56.888 27.7572 56.917 27.7797H56.7315L56.6977 27.9958L56.6961 27.9974ZM55.4577 33.3605C55.3916 33.3589 55.3255 33.3782 55.2723 33.4185C55.2481 33.4395 55.2287 33.4653 55.2158 33.4943C55.2029 33.5233 55.1981 33.5556 55.2013 33.5878V35.4873H55.6834V33.4088C55.6512 33.3927 55.6173 33.3814 55.5819 33.375C55.5399 33.3702 55.498 33.3702 55.4577 33.375M44.293 33.3734C44.2269 33.3718 44.1608 33.3911 44.1076 33.4314C44.0834 33.4524 44.064 33.4782 44.0511 33.5072C44.0382 33.5362 44.0334 33.5685 44.0366 33.6007V35.5002H44.5188V33.4217C44.4865 33.4056 44.4526 33.3943 44.4172 33.3879C44.3752 33.383 44.3333 33.383 44.293 33.3879M43.1014 35.0745C42.9692 35.11 42.8305 35.1277 42.6934 35.1277C42.4983 35.1326 42.3065 35.0874 42.1339 34.9955C41.9775 34.9101 41.8469 34.7827 41.7598 34.6279C41.6695 34.4569 41.6228 34.2651 41.6276 34.0716C41.6228 33.8749 41.6647 33.6814 41.7518 33.504C41.8324 33.346 41.9566 33.2137 42.1097 33.1218C42.271 33.0267 42.4564 32.9799 42.6435 32.9832C42.7983 32.9832 42.9514 33.0138 43.0949 33.0702C43.2239 33.117 43.34 33.1944 43.432 33.296C43.49 33.2621 43.54 33.2137 43.5771 33.1573C43.6125 33.1073 43.6335 33.0477 43.6351 32.9848C43.6335 32.938 43.619 32.8929 43.5964 32.8542C43.5722 32.8138 43.54 32.78 43.5013 32.7558C43.3933 32.6784 43.2723 32.622 43.1433 32.5897C42.9837 32.5462 42.8192 32.5252 42.6547 32.5252C42.3693 32.5204 42.0872 32.5881 41.834 32.7203C41.6034 32.8445 41.4132 33.0331 41.2874 33.2637C41.1519 33.5104 41.0858 33.7862 41.0923 34.0667C41.0858 34.3441 41.1535 34.6182 41.2874 34.8601C41.4164 35.0842 41.6066 35.2696 41.834 35.3938C42.0823 35.526 42.3597 35.5921 42.6402 35.5857C42.8337 35.5857 43.0272 35.5615 43.2143 35.5115C43.3723 35.4728 43.5239 35.4051 43.6593 35.3164L43.4303 34.9278C43.3271 34.9955 43.2127 35.0439 43.0933 35.0697M44.2656 32.4365C44.2269 32.4349 44.1882 32.4414 44.1511 32.4559C44.1156 32.4704 44.0834 32.493 44.056 32.5204C44.0286 32.5478 44.0076 32.58 43.9931 32.6171C43.9786 32.6526 43.9721 32.6913 43.9737 32.73C43.9737 32.7687 43.9786 32.8074 43.9931 32.8445C44.0076 32.8816 44.0286 32.9138 44.0544 32.9429C44.0818 32.9703 44.114 32.9928 44.1495 33.0073C44.185 33.0219 44.2237 33.0283 44.264 33.0267C44.3027 33.0283 44.3414 33.0219 44.3785 33.0073C44.4139 32.9928 44.4462 32.9703 44.4736 32.9429C44.5107 32.9122 44.5413 32.8735 44.5591 32.8284C44.5768 32.7832 44.5833 32.7348 44.5784 32.6865C44.58 32.6478 44.5736 32.6091 44.5591 32.572C44.5446 32.5365 44.522 32.5026 44.4946 32.4768C44.4672 32.4494 44.4349 32.4269 44.3994 32.4123C44.364 32.3978 44.3253 32.3914 44.2849 32.393M37.7964 33.4314C37.6126 33.3314 37.4078 33.2815 37.1998 33.2831C36.9918 33.2799 36.787 33.3314 36.6064 33.4314C36.4339 33.5282 36.292 33.6668 36.192 33.8362C36.0872 34.0071 36.0324 34.2054 36.0372 34.407C36.034 34.6085 36.0872 34.8085 36.192 34.981C36.292 35.1487 36.4355 35.2874 36.6064 35.3825C36.7886 35.4825 36.9934 35.5341 37.1998 35.5308C37.4078 35.5325 37.6142 35.4825 37.7964 35.3825C37.9673 35.2874 38.1108 35.1487 38.2108 34.981C38.3124 34.8068 38.3656 34.6085 38.3624 34.407C38.3656 34.207 38.3124 34.0087 38.2108 33.8362C38.1108 33.6668 37.9673 33.5266 37.7964 33.4314ZM37.7754 34.7811C37.7206 34.8826 37.6384 34.9681 37.5384 35.0278C37.4368 35.0874 37.3191 35.1181 37.2014 35.1148C37.0837 35.1164 36.966 35.0858 36.8644 35.0278C36.7644 34.9681 36.6838 34.8826 36.6274 34.7811C36.5709 34.6682 36.5419 34.5424 36.5435 34.4166C36.5435 34.2909 36.5709 34.1667 36.6274 34.0554C36.6806 33.9522 36.7628 33.8652 36.8644 33.8055C36.9676 33.7475 37.0837 33.7168 37.2014 33.7184C37.3191 33.7184 37.4352 33.7475 37.5384 33.8055C37.6384 33.8652 37.7206 33.9522 37.7754 34.0554C37.8335 34.1667 37.8625 34.2909 37.8593 34.4166C37.8625 34.5424 37.8335 34.6682 37.7754 34.7811ZM41.2455 30.0259C41.3599 30.0259 41.4744 30.0082 41.5825 29.9727C41.684 29.9372 41.7695 29.8663 41.8227 29.7744C41.913 29.8743 42.0243 29.9533 42.1484 30.0033C42.2726 30.0549 42.408 30.0759 42.5419 30.0678C42.666 30.0759 42.7886 30.0582 42.9047 30.0162C43.0208 29.9743 43.1272 29.9082 43.2159 29.8227C43.2981 29.7324 43.3626 29.626 43.4045 29.5099C43.4465 29.3938 43.4642 29.2713 43.4577 29.1487C43.4658 29.0229 43.4481 28.8956 43.4045 28.7762C43.361 28.6569 43.2949 28.5489 43.2078 28.457C43.1191 28.3699 43.0127 28.3038 42.8966 28.2603C42.7805 28.2167 42.6564 28.1974 42.5322 28.2038C42.408 28.199 42.2855 28.2183 42.1694 28.2619C42.0533 28.3054 41.9469 28.3715 41.8582 28.457C41.7727 28.5457 41.705 28.6521 41.6615 28.7682C41.6179 28.8843 41.597 29.0084 41.6018 29.1326C41.6163 29.268 41.5792 29.4019 41.497 29.5099C41.4519 29.5518 41.3986 29.5841 41.3406 29.6018C41.2825 29.6212 41.2213 29.6276 41.16 29.6212H37.7384C37.6787 29.6276 37.6174 29.6212 37.5594 29.6051C37.5013 29.5873 37.4481 29.5583 37.4013 29.5196C37.3272 29.4164 37.2933 29.2906 37.3062 29.1648V28.2135H36.679C36.3532 28.1941 36.0324 28.2828 35.7615 28.4634C35.6551 28.5408 35.568 28.6408 35.5099 28.7585C35.4519 28.8762 35.4212 29.0068 35.4245 29.1374C35.4196 29.2971 35.4599 29.4551 35.539 29.5938C35.6196 29.726 35.7373 29.8324 35.876 29.9001C36.0275 29.9743 36.1952 30.0114 36.3645 30.0082C36.5 30.0162 36.6338 29.9937 36.7612 29.9453C36.887 29.8953 37.0015 29.8195 37.095 29.7211C37.153 29.8131 37.2337 29.8856 37.332 29.934C37.4384 29.984 37.5529 30.0098 37.669 30.0082H41.2229L41.2471 30.0291L41.2455 30.0259ZM42.1968 28.7408C42.2387 28.6924 42.2903 28.6537 42.3484 28.6279C42.4064 28.6021 42.4709 28.5908 42.5338 28.5956C42.5983 28.5924 42.6612 28.6037 42.7192 28.6279C42.7773 28.6537 42.8289 28.6908 42.8708 28.7408C42.9531 28.8536 42.995 28.9923 42.9885 29.1326C42.995 29.2729 42.9531 29.4116 42.8708 29.5244C42.8289 29.5728 42.7773 29.6115 42.7192 29.6373C42.6612 29.6631 42.5967 29.6744 42.5338 29.6695C42.4693 29.6728 42.4064 29.6615 42.3484 29.6373C42.2903 29.6115 42.2387 29.5744 42.1968 29.5244C42.1113 29.4116 42.0678 29.2729 42.0759 29.1326C42.0694 28.9923 42.1113 28.8536 42.1968 28.7408ZM36.8708 29.0778C36.8773 29.2213 36.8321 29.3616 36.7418 29.4728C36.6967 29.5212 36.6403 29.5583 36.579 29.5825C36.5177 29.6067 36.45 29.618 36.3839 29.6147C36.321 29.6163 36.2597 29.6067 36.2017 29.5841C36.1436 29.5615 36.0904 29.5293 36.0453 29.4857C36.0017 29.4406 35.9679 29.389 35.9469 29.3309C35.9243 29.2729 35.9147 29.2116 35.9179 29.1487C35.913 29.0697 35.9308 28.9923 35.9646 28.9214C36.0001 28.8504 36.0517 28.7908 36.1162 28.7472C36.2936 28.644 36.4968 28.5956 36.6999 28.6085H36.8757L36.8692 29.0778H36.8708ZM36.0711 27.525C36.0485 27.5492 36.0291 27.5766 36.0179 27.6072C36.005 27.6378 36.0001 27.6701 36.0001 27.704C36.0001 27.7701 36.0243 27.8346 36.0711 27.8829C36.0936 27.9071 36.121 27.9265 36.1517 27.9378C36.1823 27.9507 36.2146 27.9571 36.2468 27.9571C36.2807 27.9571 36.3129 27.9523 36.3436 27.9394C36.3742 27.9265 36.4016 27.9071 36.4242 27.8829C36.4484 27.8604 36.4661 27.8313 36.479 27.8007C36.4919 27.7701 36.4984 27.7362 36.4984 27.704C36.4984 27.6701 36.4935 27.6378 36.4806 27.6072C36.4677 27.5766 36.4484 27.5492 36.4242 27.525C36.4016 27.5008 36.3726 27.4831 36.342 27.4702C36.3113 27.4573 36.2775 27.4508 36.2452 27.4508C36.1791 27.4508 36.1162 27.4782 36.0695 27.525H36.0711ZM36.7838 27.525C36.7612 27.5492 36.7419 27.5766 36.7306 27.6072C36.7177 27.6378 36.7128 27.6701 36.7128 27.704C36.7128 27.7701 36.737 27.8346 36.7838 27.8829C36.8063 27.9071 36.8338 27.9265 36.8644 27.9378C36.895 27.9507 36.9273 27.9571 36.9595 27.9571C36.9934 27.9571 37.0273 27.9523 37.0579 27.9394C37.0885 27.9265 37.1176 27.9071 37.1417 27.8829C37.1659 27.8604 37.1837 27.8313 37.1966 27.8007C37.2095 27.7701 37.2159 27.7362 37.2159 27.704C37.2159 27.6701 37.2111 27.6378 37.1982 27.6072C37.1853 27.5766 37.1659 27.5492 37.1417 27.525C37.0934 27.4766 37.0273 27.4508 36.9595 27.4508C36.8934 27.4508 36.8305 27.4782 36.7838 27.525ZM39.612 32.3479C39.3669 32.3317 39.1251 32.4107 38.9364 32.5704C38.8574 32.6574 38.7977 32.7574 38.759 32.8687C38.7203 32.9783 38.7058 33.096 38.7139 33.2121V35.4696H39.1799V33.7813H40.0135C40.0506 33.7136 40.07 33.6378 40.0667 33.562C40.0667 33.4105 39.9829 33.3363 39.8136 33.3363H39.1799V33.2073C39.1799 32.8703 39.3315 32.7219 39.6427 32.7219C39.7233 32.7219 39.8039 32.7316 39.8829 32.7526C39.9523 32.7719 40.0168 32.8026 40.0748 32.8429C40.1135 32.8235 40.1441 32.7929 40.1667 32.7558C40.1893 32.7187 40.2006 32.6768 40.199 32.6332C40.199 32.5978 40.1909 32.5623 40.1732 32.5317C40.1554 32.501 40.1312 32.4736 40.1006 32.4543C39.9523 32.3656 39.7797 32.3253 39.6072 32.3398M46.9116 33.3363C46.8504 33.3331 46.7891 33.3508 46.7391 33.3863C46.6859 33.4347 46.644 33.4959 46.6214 33.5653C46.5505 33.741 46.4763 33.9023 46.3989 34.099C46.3215 34.2941 46.2505 34.436 46.1828 34.5988C46.1151 34.7601 46.0587 34.8649 46.0103 34.9359C45.8716 34.6521 45.7442 34.3683 45.6185 34.0925C45.4943 33.8152 45.3959 33.5733 45.3218 33.3669C45.2943 33.3492 45.2637 33.3395 45.2299 33.3363C45.1895 33.3315 45.1492 33.3315 45.1089 33.3363C45.046 33.3331 44.9831 33.354 44.9332 33.3943C44.9106 33.4137 44.8928 33.4379 44.8816 33.4637C44.8703 33.4911 44.8638 33.5201 44.8654 33.5491C44.8719 33.5943 44.8832 33.6378 44.8993 33.6814C44.9235 33.7442 44.9541 33.8216 44.9912 33.9135C45.0686 34.0958 45.1766 34.3247 45.3121 34.5892C45.4475 34.852 45.5991 35.1535 45.7603 35.4534H46.236C46.3005 35.3357 46.3715 35.1971 46.4521 35.0423C46.5327 34.8875 46.6101 34.7246 46.6891 34.5601C46.7665 34.3941 46.8439 34.2231 46.9116 34.0812C46.9794 33.9394 47.0406 33.791 47.0906 33.6733C47.1293 33.5911 47.16 33.504 47.1858 33.4169C47.1519 33.3895 47.1132 33.3685 47.0713 33.3556C47.0197 33.3395 46.9665 33.3298 46.9133 33.3282M54.6305 33.3266C54.5692 33.3234 54.508 33.3411 54.458 33.3766C54.4048 33.425 54.3628 33.4862 54.3403 33.5556C54.2693 33.7313 54.1951 33.8926 54.1177 34.0893C54.0403 34.2844 53.9694 34.4263 53.9017 34.5892C53.8339 34.7504 53.7775 34.8552 53.7324 34.9262C53.5937 34.6424 53.4631 34.3586 53.3373 34.0829C53.2131 33.8055 53.1148 33.5636 53.0406 33.3572C53.0148 33.3411 52.9842 33.3298 52.9535 33.3266C52.9116 33.3218 52.8697 33.3218 52.8294 33.3266C52.7665 33.3234 52.7036 33.3444 52.6536 33.3847C52.6327 33.404 52.6149 33.4282 52.6036 33.4556C52.5924 33.483 52.5875 33.512 52.5891 33.5411C52.594 33.5862 52.6053 33.6314 52.623 33.6733C52.6439 33.7378 52.673 33.8152 52.7101 33.9055C52.7875 34.0877 52.8955 34.3167 53.0309 34.5811C53.1664 34.8439 53.318 35.1455 53.4792 35.4454H53.9549C54.0194 35.3277 54.0935 35.189 54.1709 35.0342C54.2483 34.8794 54.329 34.7166 54.408 34.5521C54.4854 34.386 54.5628 34.2151 54.6305 34.0732C54.6982 33.9313 54.7595 33.7829 54.8095 33.6652C54.8482 33.583 54.8788 33.4959 54.9046 33.4088C54.8708 33.3814 54.8321 33.3605 54.7901 33.3476C54.7385 33.3314 54.6853 33.3218 54.6321 33.3202M48.4241 29.9888V26.83C48.3935 26.8155 48.3596 26.8042 48.3258 26.7994C48.2871 26.7945 48.2468 26.7945 48.2081 26.7994C48.1436 26.7977 48.0807 26.8155 48.0291 26.8542C48.0065 26.8752 47.9888 26.8993 47.9775 26.9268C47.9662 26.9542 47.9614 26.9848 47.963 27.0154V29.6002H46.4005C46.257 29.6067 46.1183 29.5551 46.0119 29.4583C45.9619 29.4083 45.9232 29.3487 45.8974 29.2826C45.8716 29.2164 45.8603 29.1471 45.8635 29.0762C45.8619 29.0068 45.8716 28.9391 45.8974 28.8746C45.9216 28.8101 45.9587 28.7521 46.0054 28.7021C46.057 28.6537 46.1183 28.615 46.1844 28.5908C46.2505 28.5666 46.3215 28.5553 46.3924 28.5602C46.4876 28.5602 46.5827 28.5779 46.673 28.6102C46.7585 28.6392 46.8391 28.6843 46.9052 28.7456C46.9471 28.7198 46.9842 28.6827 47.01 28.6408C47.0358 28.5973 47.0503 28.5489 47.0535 28.4989C47.0535 28.4683 47.0455 28.4392 47.0326 28.4118C47.0197 28.3844 47.0003 28.3618 46.9761 28.3425C46.9068 28.2796 46.823 28.2361 46.7327 28.2135C46.615 28.178 46.4924 28.1619 46.3682 28.1635C46.1909 28.1603 46.0151 28.1974 45.8555 28.2715C45.7152 28.336 45.5991 28.4408 45.5185 28.5715C45.4346 28.7134 45.3927 28.8762 45.3975 29.0407C45.3959 29.1552 45.4121 29.2697 45.4475 29.3777C45.4733 29.4648 45.5217 29.5454 45.5862 29.6099H44.4043V26.8526C44.3736 26.8365 44.3398 26.8268 44.3059 26.8219C44.2672 26.8171 44.2269 26.8171 44.1882 26.8219C44.1253 26.8203 44.064 26.8381 44.0124 26.8752C43.9899 26.8945 43.9705 26.9203 43.9592 26.9477C43.9479 26.9751 43.9431 27.0058 43.9447 27.0364V30.0227H48.4274L48.4241 29.9824V29.9888ZM49.1465 26.7865C49.0836 26.7848 49.0224 26.8026 48.9708 26.8397C48.9482 26.859 48.9288 26.8848 48.9175 26.9122C48.9063 26.9396 48.9014 26.9703 48.903 27.0009V29.9872H49.3626V26.8284C49.332 26.8123 49.2981 26.8026 49.2642 26.7977C49.2255 26.7929 49.1852 26.7929 49.1465 26.7977M52.4408 34.4134L52.1973 33.82C52.1134 33.6249 52.036 33.4395 51.957 33.2702C51.8796 33.1009 51.8151 32.9525 51.7587 32.8284C51.7216 32.7381 51.6781 32.651 51.6265 32.5688C51.5878 32.5381 51.5426 32.5172 51.4943 32.5075C51.4394 32.4881 51.383 32.4768 51.325 32.4736C51.2363 32.4704 51.1492 32.4946 51.075 32.5446C50.9992 32.6058 50.9412 32.6865 50.9057 32.7768C50.7703 33.0735 50.6364 33.3847 50.4978 33.6975C50.3591 34.0103 50.2349 34.3247 50.1124 34.6263C49.9898 34.9278 49.8834 35.2035 49.7754 35.4567H50.2849L50.4333 35.0584C50.48 34.9294 50.5284 34.8117 50.5719 34.7004H52.0022C52.036 34.7762 52.0667 34.8536 52.0941 34.9326C52.1312 35.031 52.165 35.1277 52.2021 35.2229C52.2392 35.318 52.2699 35.3954 52.2892 35.4551H52.8487C52.802 35.3196 52.7407 35.1616 52.6697 34.9826C52.5988 34.8036 52.5214 34.6117 52.4375 34.4118L52.4408 34.4134ZM50.7525 34.2554C50.8106 34.1103 50.8702 33.9619 50.9347 33.8071C50.9992 33.6523 51.0637 33.5072 51.1266 33.3621C51.1895 33.217 51.2443 33.096 51.2959 32.988C51.3201 33.038 51.3572 33.1089 51.3975 33.2041C51.4378 33.2992 51.4846 33.4105 51.5362 33.5411C51.5862 33.6733 51.6345 33.7878 51.6845 33.9119L51.8264 34.2667L50.7525 34.257V34.2554ZM48.6305 32.3479C48.5644 32.3462 48.4983 32.3656 48.4451 32.4059C48.4209 32.4269 48.4016 32.4527 48.3887 32.4817C48.3758 32.5107 48.3709 32.543 48.3741 32.5752V35.4712H48.8563V32.3962C48.824 32.3801 48.7902 32.3688 48.7547 32.3624C48.7128 32.3575 48.6708 32.3575 48.6305 32.3624M47.6711 32.4059C47.6324 32.4043 47.5937 32.4107 47.5566 32.4252C47.5212 32.4398 47.4889 32.4623 47.4615 32.4897C47.4341 32.5172 47.4131 32.5494 47.3986 32.5865C47.3841 32.6236 47.3776 32.6607 47.3793 32.6994C47.3793 32.7381 47.3841 32.7768 47.3986 32.8138C47.4131 32.8509 47.4341 32.8832 47.4599 32.9122C47.4873 32.9396 47.5195 32.9622 47.555 32.9767C47.5905 32.9912 47.6292 32.9977 47.6695 32.9961C47.7082 32.9977 47.7469 32.9912 47.784 32.9767C47.8195 32.9622 47.8517 32.9396 47.8791 32.9122C47.9065 32.8848 47.9291 32.8509 47.9436 32.8138C47.9581 32.7768 47.9646 32.7381 47.963 32.6994C47.9646 32.6607 47.9581 32.622 47.9436 32.5849C47.9291 32.5494 47.9065 32.5155 47.8791 32.4897C47.8517 32.4623 47.8195 32.4398 47.784 32.4252C47.7485 32.4107 47.7098 32.4043 47.6695 32.4059H47.6711ZM47.6711 33.3572C47.605 33.3556 47.5389 33.375 47.4857 33.4153C47.4615 33.4363 47.4421 33.4621 47.4292 33.4911C47.4163 33.5201 47.4115 33.5524 47.4147 33.5846V35.4841H47.8969V33.4056C47.8646 33.3895 47.8307 33.3782 47.7953 33.3718C47.7534 33.3669 47.7114 33.3669 47.6711 33.3718M19.6078 23.1552C20.0787 22.3006 20.7688 21.5863 21.6057 21.0864C22.4635 20.5865 23.4407 20.3253 24.4339 20.3334C25.4272 20.3253 26.4044 20.5849 27.2622 21.0864C28.1007 21.5863 28.7892 22.3006 29.26 23.1552C29.3245 23.2665 29.4664 23.5664 29.4664 23.5664H32.9429L26.693 9.0913C26.2608 8.10286 25.6804 7.08379 24.4581 7.08379C23.2359 7.08379 22.6489 8.09641 22.22 9.0913L15.9492 23.5535H19.4224C19.4224 23.5535 19.5675 23.2536 19.6288 23.1423M24.4549 11.6051L26.922 17.6809C26.1189 17.46 25.2885 17.3455 24.4549 17.3439C23.6212 17.3471 22.7908 17.46 21.9878 17.6809L24.4549 11.6051ZM41.0794 23.8663C42.3258 23.8824 43.5609 23.6405 44.7074 23.1536C45.7555 22.7037 46.6665 21.9845 47.3502 21.0719C47.9791 20.1979 48.3903 19.1869 48.5483 18.1227H45.0847C44.8896 18.9128 44.4317 19.6126 43.7851 20.1076C43.003 20.6978 42.0436 21.0058 41.0649 20.9816C40.1716 20.988 39.2928 20.7559 38.5204 20.306C37.7448 19.848 37.1208 19.174 36.7241 18.3646C36.2565 17.4019 36.0243 16.3425 36.0485 15.2735C36.0243 14.2028 36.2565 13.1418 36.7241 12.1792C37.1208 11.3713 37.7448 10.6973 38.5204 10.2378C39.2928 9.7895 40.1716 9.55569 41.0649 9.56214C42.0436 9.53956 43.003 9.84755 43.7851 10.4361C44.3446 10.8602 44.7655 11.4423 44.9928 12.1066H48.4967C48.3161 11.1536 47.9275 10.2539 47.3567 9.47023C46.6746 8.55596 45.762 7.83842 44.7139 7.38854C43.5658 6.90964 42.3306 6.67422 41.0858 6.6968C39.6443 6.6839 38.2221 7.01929 36.9386 7.67556C35.6696 8.34473 34.6166 9.36058 33.9007 10.6054C33.1009 12.0308 32.7026 13.6465 32.7462 15.2799C32.7026 16.9134 33.1009 18.5274 33.9007 19.9512C34.615 21.1961 35.6696 22.2119 36.9386 22.8811C38.2221 23.5374 39.6443 23.8727 41.0858 23.8598M9.31387 14.4092C9.11876 14.3979 8.92527 14.4286 8.74306 14.4979C8.56085 14.5672 8.39638 14.6736 8.25771 14.8123C8.12065 14.9494 8.01262 15.1155 7.94328 15.2977C7.87394 15.4799 7.84331 15.675 7.85459 15.8685C7.84814 16.062 7.88039 16.2539 7.95134 16.4345C8.02229 16.615 8.12871 16.7779 8.26577 16.915C8.40283 17.052 8.56569 17.1585 8.74467 17.2294C8.92366 17.3003 9.11715 17.3342 9.31065 17.3278H12.6243C12.5759 17.8808 12.4098 18.4162 12.1389 18.8999C11.868 19.3836 11.4971 19.8045 11.0521 20.1351C10.2636 20.7188 9.30097 21.0171 8.32221 20.9848C7.42084 20.9929 6.53399 20.7591 5.75356 20.3092C4.97796 19.8496 4.35716 19.1692 3.97179 18.3549C3.51546 17.3842 3.29294 16.3216 3.32035 15.2493C3.29617 14.1802 3.52675 13.1192 3.99597 12.1582C4.39264 11.3487 5.01666 10.6731 5.79226 10.2136C6.56624 9.77176 7.44503 9.5444 8.33672 9.55569C9.31549 9.5315 10.2749 9.83948 11.0569 10.4296C11.6213 10.8586 12.0438 11.4455 12.2679 12.1179H15.7718C15.5912 11.1601 15.201 10.2555 14.6269 9.46862C13.9432 8.55596 13.0322 7.83842 11.9841 7.39015C10.8312 6.90803 9.59122 6.67261 8.34317 6.69841C6.90163 6.6839 5.47783 7.01929 4.19592 7.67717C2.92691 8.34634 1.87397 9.3622 1.15804 10.607C0.358259 12.0308 -0.0400193 13.6449 0.00351721 15.2783C-0.0416317 16.915 0.348586 18.5355 1.13385 19.9722C1.84173 21.2219 2.89627 22.2393 4.17173 22.902C5.46654 23.5615 6.90324 23.8969 8.35607 23.8808C9.56703 23.9002 10.7683 23.6712 11.8857 23.2052C13.4289 22.5102 14.6398 21.2396 15.2606 19.6642C15.9733 17.976 15.9588 16.033 15.8959 14.4302L9.31387 14.4092ZM52.6794 23.1407C53.1503 22.2861 53.8404 21.5718 54.6773 21.0719C55.5351 20.5704 56.5122 20.3108 57.5055 20.3189C58.4988 20.3108 59.476 20.5704 60.3338 21.0719C61.1723 21.5718 61.8608 22.2861 62.3316 23.1407C62.3961 23.2519 62.538 23.5519 62.538 23.5519H66.0145L59.7436 9.08969C59.3115 8.10125 58.731 7.08217 57.5087 7.08217C56.2865 7.08217 55.6996 8.0948 55.2674 9.08969L48.9659 23.5519H52.4424C52.4424 23.5519 52.5875 23.2519 52.6488 23.1407M57.4765 11.6051L59.9436 17.6809C59.1389 17.46 58.3101 17.3455 57.4765 17.3439C56.6428 17.3471 55.814 17.46 55.0094 17.6809L57.4765 11.6051Z" fill="#313B71"/>
<defs>
<linearGradient id="paint0_linear_4529_3374" x1="98.649" y1="23.3549" x2="70.9356" y2="18.2466" gradientUnits="userSpaceOnUse">
<stop stop-color="#2A35D7"/>
<stop offset="0.57" stop-color="#519ABD"/>
<stop offset="1" stop-color="#6DE2AC"/>
</linearGradient>
</defs>
</svg>
