<svg width="152" height="36" viewBox="0 0 152 36" fill="none" xmlns="http://www.w3.org/2000/svg">
<path d="M2.91512 21.1772V20.7635C2.91512 20.707 2.93393 20.6694 3.00915 20.6694H4.1752C4.23162 20.6694 4.26924 20.6882 4.26924 20.7635V23.6784C4.26924 23.8665 4.30685 23.9981 4.36327 24.0734C4.4385 24.1486 4.53254 24.1674 4.7018 24.1674H4.98391C5.22841 24.1674 5.37886 24.3555 5.37886 24.7504C5.37886 24.9761 5.36006 25.1077 5.28483 25.2206C5.22841 25.2958 5.13437 25.3334 5.00272 25.3334H4.00594C3.70502 25.3334 3.46053 25.277 3.27246 25.2018C3.10319 25.1077 2.99035 24.9197 2.93393 24.6564C2.80228 24.7692 2.63301 24.8444 2.44494 24.9197C2.27567 24.9761 2.04999 25.0137 1.86191 25.0137C1.61742 25.0137 1.37293 24.9761 1.14724 24.9197C0.921555 24.8632 0.714674 24.7504 0.54541 24.6C0.376145 24.4683 0.244495 24.2614 0.131651 24.017C0.0376153 23.7913 0 23.4904 0 23.1707C0 22.7757 0.0564219 22.4748 0.169265 22.2304C0.263301 21.9859 0.432567 21.779 0.601832 21.6285C0.771097 21.4969 0.996782 21.3841 1.22247 21.3276C1.44816 21.2712 1.69265 21.2336 1.93714 21.2336L2.91512 21.1772ZM0.977976 19.9924C0.921554 19.9924 0.88394 19.9736 0.88394 19.8984V18.9768C0.88394 18.9204 0.902747 18.8828 0.977976 18.8828H1.93714C1.99357 18.8828 2.03118 18.9016 2.03118 18.9768V19.8984C2.03118 19.9548 2.01237 19.9924 1.93714 19.9924H0.977976ZM2.14402 23.8289C2.36971 23.8289 2.57659 23.7725 2.72705 23.622C2.8587 23.4904 2.93393 23.2835 2.93393 22.9826V22.3244H2.18164C1.95595 22.3244 1.74907 22.3808 1.59861 22.4936C1.46696 22.6065 1.37293 22.8133 1.37293 23.1331C1.37293 23.3963 1.44816 23.5844 1.59861 23.6784C1.74907 23.7725 1.89953 23.8289 2.14402 23.8289ZM2.44494 19.9924C2.38852 19.9924 2.3509 19.9736 2.3509 19.8984V18.9768C2.3509 18.9204 2.36971 18.8828 2.44494 18.8828H3.40411C3.46053 18.8828 3.49814 18.9016 3.49814 18.9768V19.8984C3.49814 19.9548 3.47934 19.9924 3.40411 19.9924H2.44494Z" fill="#36302B"/>
<path d="M6.16835 21.4417C6.16835 21.3853 6.18716 21.3477 6.26239 21.3477H7.42844C7.48486 21.3477 7.52247 21.3665 7.52247 21.4417V23.6797C7.54128 23.8301 7.5977 23.9617 7.72935 24.0746C7.8422 24.1686 8.03027 24.2062 8.25595 24.2062H8.48164C8.61329 24.2062 8.70733 24.2438 8.76375 24.3379C8.82017 24.4319 8.85779 24.5636 8.85779 24.7704C8.85779 25.1654 8.72613 25.3534 8.46283 25.3534C8.23715 25.3534 8.01146 25.3346 7.82339 25.2594C7.65412 25.203 7.50366 25.0901 7.37201 24.8645C7.27798 25.0525 7.12752 25.1842 6.90183 25.2594C6.71376 25.3158 6.43165 25.3534 6.07432 25.3534H5.13396C5.00231 25.3534 4.90827 25.3158 4.85185 25.2406C4.79543 25.1654 4.75781 25.0149 4.75781 24.7892C4.75781 24.5635 4.77662 24.4319 4.85185 24.3191C4.90827 24.225 5.00231 24.1874 5.13396 24.1874H5.73579C5.92386 24.1874 6.05551 24.131 6.13074 24.0182C6.18716 23.9053 6.20597 23.7173 6.20597 23.4164L6.16835 21.4417ZM5.56652 27.3093C5.5101 27.3093 5.47249 27.2905 5.47249 27.2153V26.2937C5.47249 26.2373 5.49129 26.1997 5.56652 26.1997H6.52569C6.58211 26.1997 6.61973 26.2185 6.61973 26.2937V27.2153C6.61973 27.2717 6.60092 27.3093 6.52569 27.3093H5.56652ZM7.01468 27.3093C6.95826 27.3093 6.92064 27.2905 6.92064 27.2153V26.2937C6.92064 26.2373 6.93945 26.1997 7.01468 26.1997H7.97385C8.03027 26.1997 8.06788 26.2185 8.06788 26.2937V27.2153C8.06788 27.2717 8.04908 27.3093 7.97385 27.3093H7.01468Z" fill="#36302B"/>
<path d="M9.53507 21.4381C9.53507 21.3817 9.55388 21.3441 9.6291 21.3441H10.7952C10.8516 21.3441 10.8892 21.3629 10.8892 21.4381V23.6761C10.908 23.8265 10.9644 23.9582 11.0961 24.071C11.2089 24.1651 11.397 24.2027 11.6227 24.2027H11.8484C11.98 24.2027 12.074 24.2403 12.1305 24.3343C12.1869 24.4284 12.2245 24.56 12.2245 24.7669C12.2245 25.1618 12.0929 25.3499 11.8296 25.3499C11.6039 25.3499 11.3782 25.3311 11.1901 25.2558C11.0208 25.1994 10.8704 25.0866 10.7387 24.8609C10.6447 25.049 10.4942 25.1806 10.2686 25.2558C10.0805 25.3122 9.79837 25.3499 9.44103 25.3499H8.46306C8.33141 25.3499 8.23737 25.3122 8.18095 25.237C8.12453 25.1618 8.08691 25.0113 8.08691 24.7857C8.08691 24.56 8.10572 24.4283 8.18095 24.3155C8.23737 24.2215 8.33141 24.1839 8.46306 24.1839H9.06489C9.25296 24.1839 9.38461 24.1274 9.45984 24.0146C9.51626 23.9018 9.53507 23.7137 9.53507 23.4128V21.4381ZM8.97085 20.385C8.91443 20.385 8.87682 20.3662 8.87682 20.2909V19.3694C8.87682 19.313 8.89562 19.2754 8.97085 19.2754H9.93002C9.98644 19.2754 10.0241 19.2942 10.0241 19.3694V20.2909C10.0241 20.3474 10.0053 20.385 9.93002 20.385H8.97085ZM10.4378 20.385C10.3814 20.385 10.3438 20.3662 10.3438 20.2909V19.3694C10.3438 19.313 10.3626 19.2754 10.4378 19.2754H11.397C11.4534 19.2754 11.491 19.2942 11.491 19.3694V20.2909C11.491 20.3474 11.4722 20.385 11.397 20.385H10.4378Z" fill="#36302B"/>
<path d="M17.5281 25.3512C17.2836 25.3512 17.0767 25.2948 16.9263 25.2195C16.7758 25.1255 16.663 25.0127 16.5877 24.8622C16.4937 25.0503 16.3621 25.1819 16.174 25.276C16.0047 25.3324 15.7414 25.37 15.4405 25.37H15.0832C14.8387 25.37 14.6318 25.3136 14.4813 25.2383C14.3309 25.1443 14.218 25.0315 14.124 24.881C14.03 25.0691 13.8983 25.2195 13.7102 25.2948C13.541 25.3512 13.2777 25.3888 12.958 25.3888H11.8107C11.6791 25.3888 11.585 25.3512 11.5286 25.2948C11.4722 25.2195 11.4346 25.0879 11.4346 24.8622C11.4346 24.6365 11.4534 24.4673 11.5286 24.3921C11.585 24.298 11.6791 24.2604 11.8107 24.2604H12.4502C12.6194 24.2604 12.7511 24.204 12.7887 24.1288C12.8451 24.0347 12.8639 23.8655 12.8639 23.621V22.1917C12.8639 22.1353 12.8827 22.0977 12.958 22.0977H14.124C14.1804 22.0977 14.218 22.1165 14.218 22.1917V23.7526C14.218 23.9595 14.2745 24.0912 14.4061 24.1664C14.5378 24.2228 14.6694 24.2604 14.8387 24.2604C14.9515 24.2604 15.0644 24.2416 15.1208 24.2228C15.196 24.204 15.2524 24.1664 15.2712 24.11C15.29 24.0535 15.3277 23.9971 15.3277 23.9031C15.3465 23.8091 15.3465 23.715 15.3465 23.6022V22.1917C15.3465 22.1353 15.3653 22.0977 15.4405 22.0977H16.6066C16.663 22.0977 16.7006 22.1165 16.7006 22.1917V23.7338C16.7006 23.9407 16.757 24.0723 16.8887 24.1664C17.0203 24.2228 17.152 24.2604 17.34 24.2604C17.4529 24.2604 17.5469 24.2416 17.6033 24.2228C17.6598 24.204 17.6974 24.1664 17.735 24.11C17.7538 24.0535 17.7914 23.9971 17.7914 23.9031C17.7914 23.8091 17.8102 23.715 17.8102 23.6022V21.5335C17.8102 21.4771 17.829 21.4395 17.9043 21.4395H19.0703C19.1267 21.4395 19.1643 21.4583 19.1643 21.5335V23.7715C19.1831 23.9219 19.2396 24.0535 19.3712 24.1664C19.4841 24.2604 19.6721 24.298 19.8978 24.298H20.1235C20.2552 24.298 20.3492 24.3356 20.4056 24.4297C20.462 24.5237 20.4996 24.6554 20.4996 24.8622C20.4996 25.2572 20.368 25.4452 20.1047 25.4452C19.879 25.4452 19.6533 25.4264 19.4653 25.3512C19.296 25.2948 19.1455 25.1819 19.0139 24.9563C18.9198 25.1255 18.7882 25.2572 18.6189 25.3512C18.4497 25.4076 18.2616 25.4452 18.0171 25.4452L17.5281 25.3512Z" fill="#36302B"/>
<path d="M20.1232 25.3508C19.9916 25.3508 19.8975 25.3132 19.8411 25.2192C19.7847 25.1251 19.7471 24.9935 19.7471 24.7866C19.7471 24.5797 19.7659 24.4481 19.8411 24.3164C19.8975 24.2224 19.9916 24.1848 20.1232 24.1848H22.4741C22.6246 24.1848 22.7374 24.166 22.8315 24.1472C22.9255 24.1284 23.0007 24.0908 23.0571 24.0155C23.1136 23.9403 23.1512 23.8839 23.17 23.7711C23.1888 23.677 23.2076 23.5454 23.2076 23.3573C23.2076 23.2257 23.1888 23.094 23.1512 22.9624C23.1324 22.8496 23.0571 22.7367 23.0007 22.6427C22.9255 22.5486 22.8315 22.4734 22.6998 22.417C22.5682 22.3606 22.4365 22.323 22.2296 22.323C22.0227 22.323 21.8347 22.3606 21.6842 22.4358C21.5338 22.511 21.3833 22.6051 21.2516 22.7367C21.214 22.7743 21.1576 22.7931 21.12 22.7555L20.5558 22.0785C20.4994 22.0221 20.4994 21.9845 20.537 21.9468C20.7627 21.74 21.0072 21.5519 21.2893 21.4014C21.5714 21.2698 21.9287 21.1758 22.3613 21.1758C22.775 21.1758 23.1136 21.2322 23.3957 21.345C23.6778 21.4579 23.9035 21.6271 24.0915 21.834C24.2608 22.0409 24.3925 22.2854 24.4865 22.5486C24.5617 22.8119 24.5993 23.1128 24.5993 23.4137C24.5993 23.8275 24.5617 24.1284 24.5053 24.3729C24.4301 24.6174 24.336 24.8242 24.2044 24.9747C24.0727 25.1063 23.9035 25.2003 23.6966 25.2568C23.5085 25.3132 23.264 25.332 23.0195 25.332L20.1232 25.3508ZM21.8347 27.269C21.7783 27.269 21.7406 27.2502 21.7406 27.175V26.2535C21.7406 26.1971 21.7594 26.1595 21.8347 26.1595H23.0195C23.0759 26.1595 23.1136 26.1783 23.1136 26.2535V27.175C23.1136 27.2314 23.0948 27.269 23.0195 27.269H21.8347Z" fill="#36302B"/>
<path d="M26.3866 27.3081C26.3302 27.3081 26.2926 27.2893 26.2926 27.2141V26.255C26.2926 26.1986 26.3114 26.1609 26.3866 26.1609H27.4775C27.6091 26.1609 27.722 26.1421 27.816 26.1233C27.91 26.1045 28.0041 26.0669 28.0793 26.0105C28.1357 25.9541 28.1921 25.8788 28.2298 25.766C28.2674 25.6532 28.2862 25.5403 28.2862 25.3523H27.3834C26.7628 25.3523 26.2926 25.2206 25.9541 24.9009C25.6156 24.5812 25.4463 24.0922 25.4463 23.3776C25.4463 22.9638 25.5027 22.6253 25.6156 22.362C25.7284 22.0988 25.8789 21.8543 26.0857 21.685C26.2738 21.5157 26.5183 21.3841 26.7628 21.3277C27.0073 21.2525 27.2706 21.2148 27.5339 21.2148C27.7972 21.2148 28.0793 21.2525 28.3238 21.3089C28.5683 21.3653 28.794 21.4781 29.0009 21.6474C29.1889 21.7979 29.3394 22.0423 29.471 22.3056C29.5651 22.5689 29.6403 22.9262 29.6403 23.3212V24.2051H30.2797C30.5242 24.2051 30.6747 24.3931 30.6747 24.7881C30.6747 25.0137 30.6559 25.183 30.5807 25.2582C30.5054 25.3334 30.4302 25.3523 30.2985 25.3523H29.6591V25.5215C29.6591 26.1233 29.5086 26.5559 29.1889 26.8568C28.888 27.1389 28.4178 27.2893 27.7784 27.2893H26.3866V27.3081ZM27.5715 22.3244C27.327 22.3244 27.1201 22.4185 26.9697 22.5877C26.838 22.757 26.7628 23.0203 26.7628 23.3024C26.7628 23.6409 26.838 23.8854 26.9885 23.9982C27.1201 24.111 27.327 24.1675 27.5903 24.1675H28.3238V23.2647C28.3238 22.6441 28.0605 22.3244 27.5715 22.3244Z" fill="#36302B"/>
<path d="M31.0884 18.9768C31.0884 18.9204 31.1072 18.8828 31.1825 18.8828H32.3485C32.4049 18.8828 32.4425 18.9016 32.4425 18.9768V23.6784C32.4614 23.8477 32.5178 23.9605 32.6306 24.0734C32.7435 24.1674 32.9315 24.205 33.1572 24.205H33.3829C33.5146 24.205 33.6086 24.2426 33.665 24.3367C33.7214 24.4307 33.7591 24.5623 33.7591 24.7692C33.7591 25.1641 33.6274 25.3522 33.3641 25.3522C33.1384 25.3522 32.9127 25.3334 32.7247 25.2582C32.5554 25.2018 32.4049 25.0889 32.2733 24.8632C32.1792 25.0325 32.0476 25.1641 31.8407 25.2582C31.6714 25.3146 31.4081 25.3522 31.1072 25.3522H30.2609C30.1293 25.3522 30.0352 25.3334 29.9788 25.2958C29.9224 25.2582 29.8848 25.1642 29.8848 25.0325C29.8848 24.9573 29.9036 24.8821 29.9036 24.7692C29.9224 24.6752 29.9412 24.6 29.96 24.5059C29.9788 24.4307 30.0164 24.3555 30.0728 24.2991C30.1293 24.2426 30.1669 24.205 30.2421 24.205H30.5618C30.6559 24.205 30.7499 24.1862 30.8251 24.1486C30.8815 24.111 30.9192 24.0546 30.9568 23.9793C30.9756 23.9041 31.0132 23.8289 31.0132 23.7161C31.0132 23.622 31.032 23.4904 31.032 23.3587L31.0884 18.9768Z" fill="#36302B"/>
<path d="M33.3644 25.3498C33.2328 25.3498 33.1387 25.331 33.0823 25.2933C33.0259 25.2557 32.9883 25.1617 32.9883 25.0301C32.9883 24.9548 33.0071 24.8796 33.0071 24.7668C33.0259 24.6727 33.0447 24.5975 33.0635 24.5035C33.0823 24.4282 33.1199 24.353 33.1764 24.2966C33.2328 24.2402 33.2704 24.2026 33.3456 24.2026H33.6653C33.8158 24.2026 33.9286 24.165 34.0039 24.1085C34.0791 24.0333 34.0979 23.9017 34.0979 23.7136V19.012C34.0979 18.9556 34.1167 18.918 34.1919 18.918H35.358C35.4144 18.918 35.452 18.9368 35.452 19.012V24.165C35.452 24.5787 35.358 24.8796 35.1887 25.0677C35.0195 25.2557 34.7185 25.3498 34.3424 25.3498H33.3644Z" fill="#36302B"/>
<path d="M37.9908 25.2394C37.9908 25.2958 37.972 25.3334 37.8968 25.3334H36.7308C36.6743 25.3334 36.6367 25.3146 36.6367 25.2394V18.9768C36.6367 18.9204 36.6555 18.8828 36.7308 18.8828H37.8968C37.9532 18.8828 37.9908 18.9016 37.9908 18.9768V25.2394Z" fill="#36302B"/>
<path d="M46.9989 24.0913C47.0741 24.0161 47.0929 23.8844 47.0929 23.6964V21.4396C47.0929 21.3832 47.1117 21.3456 47.187 21.3456H48.353C48.4094 21.3456 48.447 21.3644 48.447 21.4396V24.1477C48.447 24.5615 48.353 24.8624 48.1837 25.0504C48.0145 25.2385 47.7136 25.3325 47.3186 25.3325H42.3723C41.9586 25.3325 41.6953 25.2385 41.526 25.0504C41.3567 24.8624 41.2627 24.5427 41.2627 24.1477V22.0414C41.2627 21.985 41.2815 21.9474 41.3567 21.9474H42.5228C42.5792 21.9474 42.6168 21.9662 42.6168 22.0414V23.6776C42.6168 23.8656 42.6544 23.9973 42.7108 24.0725C42.7861 24.1477 42.8801 24.1665 43.0494 24.1665H46.6228C46.8108 24.2042 46.9237 24.1665 46.9989 24.0913ZM43.6512 20.9318C43.5948 20.9318 43.5572 20.913 43.5572 20.8378V19.9163C43.5572 19.8599 43.576 19.8223 43.6512 19.8223H44.6104C44.6668 19.8223 44.7044 19.8411 44.7044 19.9163V20.8378C44.7044 20.8942 44.6856 20.9318 44.6104 20.9318H43.6512ZM45.1182 20.9318C45.0618 20.9318 45.0241 20.913 45.0241 20.8378V19.9163C45.0241 19.8599 45.0429 19.8223 45.1182 19.8223H46.0773C46.1338 19.8223 46.1714 19.8411 46.1714 19.9163V20.8378C46.1714 20.8942 46.1526 20.9318 46.0773 20.9318H45.1182Z" fill="#36302B"/>
<path d="M49.501 18.9768C49.501 18.9204 49.5198 18.8828 49.595 18.8828H50.7611C50.8175 18.8828 50.8551 18.9016 50.8551 18.9768V23.6784C50.8551 23.8665 50.8927 23.9982 50.9491 24.0734C51.0244 24.1486 51.1184 24.1674 51.2877 24.1674H51.551C51.6826 24.1674 51.7766 24.2238 51.8331 24.2991C51.8895 24.3931 51.9271 24.5435 51.9271 24.7692C51.9271 24.9949 51.9083 25.1642 51.8331 25.2206C51.7766 25.277 51.6826 25.3146 51.551 25.3146H50.6106C50.1968 25.3146 49.9335 25.2206 49.7643 25.0325C49.595 24.8444 49.501 24.5247 49.501 24.1298V18.9768Z" fill="#36302B"/>
<path d="M54.5217 25.4072C54.1832 25.4072 53.8823 25.3696 53.6002 25.2756C53.3181 25.1815 53.0736 25.0499 52.8855 24.8054C52.7915 24.9371 52.6974 25.0311 52.5846 25.0875C52.4717 25.1439 52.3589 25.2003 52.2461 25.238C52.1332 25.2756 52.0204 25.2944 51.9075 25.2944C51.7947 25.2944 51.7006 25.3132 51.6066 25.3132C51.475 25.3132 51.3809 25.2756 51.3245 25.2003C51.2681 25.1251 51.2305 24.9747 51.2305 24.7678C51.2305 24.5421 51.2493 24.3729 51.3245 24.2976C51.3809 24.2036 51.475 24.166 51.6066 24.166H51.8699C52.0016 24.166 52.1332 24.1096 52.2649 23.9967C52.3777 23.8839 52.4341 23.6582 52.4529 23.3197V23.1316C52.4529 22.7367 52.5094 22.4358 52.6222 22.1913C52.735 21.9468 52.8855 21.7212 53.0924 21.5895C53.2805 21.4391 53.5249 21.3262 53.7694 21.2698C54.0139 21.2134 54.2772 21.1758 54.5593 21.1758C54.8414 21.1758 55.1048 21.2134 55.3492 21.2698C55.5937 21.3262 55.8194 21.4391 56.0263 21.6083C56.2144 21.7776 56.3648 22.0033 56.4965 22.2666C56.6093 22.5298 56.6658 22.906 56.6658 23.3009C56.6658 23.6958 56.6093 24.0155 56.5153 24.2788C56.4213 24.5421 56.252 24.7678 56.0639 24.9182C55.8947 25.0687 55.6502 25.1815 55.3869 25.2568C55.1048 25.3696 54.8226 25.4072 54.5217 25.4072ZM54.5217 22.323C53.9951 22.323 53.7318 22.6239 53.7318 23.2821C53.7318 23.6394 53.7882 23.9027 53.9199 24.0343C54.0515 24.166 54.2396 24.2412 54.5217 24.2412C54.785 24.2412 54.9919 24.1848 55.1236 24.0343C55.2552 23.8839 55.3116 23.6394 55.3116 23.2821C55.2928 22.6615 55.0483 22.323 54.5217 22.323Z" fill="#36302B"/>
<path d="M59.2053 24.2043C59.3558 24.2043 59.4875 24.1855 59.6003 24.1667C59.7131 24.1479 59.7696 24.1103 59.8072 24.0727C59.8636 24.0163 59.8824 23.9599 59.9012 23.8846C59.92 23.8094 59.92 23.7154 59.92 23.5837V23.076C59.92 22.8315 59.8636 22.6434 59.7131 22.5306C59.5815 22.4365 59.3746 22.3613 59.0737 22.3613H57.9829C57.9265 22.3613 57.8888 22.3425 57.8888 22.2673V21.2893C57.8888 21.2329 57.9076 21.1953 57.9829 21.1953H59.4875C60.0893 21.1953 60.5218 21.327 60.8604 21.5902C61.1989 21.8535 61.3494 22.2861 61.3494 22.9255V23.7154C61.3682 23.8658 61.4246 23.9975 61.5562 24.1103C61.6691 24.2043 61.8572 24.242 62.0828 24.242H62.2897C62.4214 24.242 62.5154 24.2796 62.5718 24.3736C62.6283 24.4676 62.6659 24.5993 62.6659 24.8061C62.6659 25.2011 62.5342 25.3891 62.2709 25.3891C62.0076 25.3891 61.7819 25.3515 61.5939 25.2951C61.4058 25.2387 61.2553 25.0882 61.1237 24.8626C61.0108 25.0694 60.8604 25.2011 60.6535 25.2951C60.4654 25.3703 60.2021 25.408 59.9012 25.408H57.6067C57.5503 25.408 57.5127 25.3891 57.5127 25.3139V24.3548C57.5127 24.2984 57.5315 24.2608 57.6067 24.2608L59.2053 24.2043Z" fill="#36302B"/>
<path d="M62.6657 21.9459C62.8913 21.7202 63.1358 21.5322 63.4179 21.4005C63.7001 21.2689 64.0574 21.1936 64.4523 21.1936C64.8849 21.1936 65.2234 21.2501 65.5056 21.3629C65.7877 21.4757 66.0322 21.645 66.2202 21.8707C66.3895 22.0775 66.5211 22.3408 66.6152 22.6229C66.6904 22.905 66.728 23.2247 66.728 23.5632V23.7137C66.7468 23.8642 66.8221 23.977 66.9349 24.071C67.0477 24.1651 67.217 24.2027 67.4427 24.2027H67.6684C67.8 24.2027 67.8941 24.2403 67.9505 24.3343C68.0069 24.4284 68.0445 24.56 68.0445 24.7669C68.0445 25.1618 67.9129 25.3499 67.6496 25.3499C67.3863 25.3499 67.1418 25.3122 66.9537 25.2558C66.7656 25.1994 66.6152 25.0301 66.4647 24.7857C66.3331 25.0113 66.1638 25.1806 65.9193 25.2558C65.6936 25.3311 65.4115 25.3687 65.0918 25.3687H62.1955C62.0638 25.3687 61.9698 25.3311 61.9134 25.237C61.857 25.143 61.8193 25.0113 61.8193 24.8045C61.8193 24.5976 61.8381 24.466 61.9134 24.3531C61.9698 24.2591 62.0638 24.2215 62.2143 24.2215H64.5652C64.7156 24.2215 64.8285 24.2027 64.9225 24.1839C65.0166 24.1651 65.0918 24.1274 65.1482 24.071C65.2046 24.0146 65.2423 23.9394 65.2611 23.8453C65.2799 23.7513 65.2987 23.6385 65.2987 23.5068C65.2987 23.3564 65.2799 23.2059 65.2423 23.0555C65.2234 22.9238 65.1482 22.7922 65.0918 22.6982C65.0166 22.6041 64.9225 22.5289 64.7909 22.4537C64.6592 22.3785 64.5276 22.3596 64.3207 22.3596C64.1138 22.3596 63.9257 22.3973 63.7753 22.4725C63.6248 22.5477 63.4744 22.6417 63.3427 22.7734C63.3051 22.811 63.2487 22.8298 63.2111 22.7922L62.6469 22.1152C62.6469 22.0211 62.6469 21.9835 62.6657 21.9459ZM63.9257 20.385C63.8693 20.385 63.8317 20.3662 63.8317 20.2909V19.3694C63.8317 19.313 63.8505 19.2754 63.9257 19.2754H65.1106C65.167 19.2754 65.2046 19.2942 65.2046 19.3694V20.2909C65.2046 20.3474 65.1858 20.385 65.1106 20.385H63.9257Z" fill="#36302B"/>
<path d="M67.6867 25.3498C67.555 25.3498 67.461 25.331 67.4046 25.2933C67.3482 25.2557 67.3105 25.1617 67.3105 25.0301C67.3105 24.9548 67.3294 24.8796 67.3294 24.7668C67.3482 24.6727 67.367 24.5975 67.3858 24.5035C67.4046 24.4282 67.4422 24.353 67.4986 24.2966C67.555 24.2402 67.5927 24.2026 67.6679 24.2026H67.9876C68.1381 24.2026 68.2509 24.165 68.3261 24.1085C68.4014 24.0333 68.4202 23.9017 68.4202 23.7136V19.012C68.4202 18.9556 68.439 18.918 68.5142 18.918H69.6803C69.7367 18.918 69.7743 18.9368 69.7743 19.012V24.165C69.7743 24.5787 69.6803 24.8796 69.511 25.0677C69.3417 25.2557 69.0408 25.3498 68.6647 25.3498H67.6867Z" fill="#36302B"/>
<path d="M72.2946 25.2394C72.2946 25.2958 72.2757 25.3334 72.2005 25.3334H71.0345C70.978 25.3334 70.9404 25.3146 70.9404 25.2394V18.9768C70.9404 18.9204 70.9592 18.8828 71.0345 18.8828H72.2005C72.2569 18.8828 72.2946 18.9016 72.2946 18.9768V25.2394Z" fill="#36302B"/>
<path d="M74.2128 27.3057C74.1564 27.3057 74.1188 27.2869 74.1188 27.2116V26.2525C74.1188 26.1961 74.1376 26.1585 74.2128 26.1585H75.3036C75.4353 26.1585 75.5293 26.1397 75.6422 26.1397C75.7362 26.1209 75.8114 26.0832 75.9055 26.0456C75.9807 25.9892 76.0371 25.914 76.0747 25.8012C76.1124 25.7071 76.1312 25.5567 76.1312 25.3686H75.7174C75.3224 25.3686 75.0027 25.3498 74.7018 25.3122C74.4009 25.2746 74.1376 25.1805 73.9307 25.0489C73.7238 24.9173 73.5358 24.7104 73.4417 24.4471C73.3477 24.1838 73.2725 23.8453 73.2725 23.4127C73.2725 22.999 73.3289 22.6605 73.4417 22.3972C73.5546 22.1339 73.705 21.8894 73.9119 21.7202C74.1 21.5509 74.3445 21.4193 74.589 21.3628C74.8335 21.3064 75.0968 21.25 75.3601 21.25C75.6234 21.25 75.9055 21.2876 76.15 21.344C76.3945 21.4005 76.6201 21.5133 76.827 21.6825C77.0151 21.833 77.1656 22.0775 77.2972 22.3408C77.4289 22.6041 77.4665 22.9614 77.4665 23.3563V25.5755C77.4665 26.1773 77.316 26.6098 76.9963 26.9107C76.6954 27.1928 76.2252 27.3433 75.5858 27.3433L74.2128 27.3057ZM75.3789 22.322C75.1156 22.322 74.9087 22.416 74.777 22.5853C74.6454 22.7545 74.589 23.0178 74.589 23.2999C74.589 23.6384 74.6642 23.8829 74.8147 23.9957C74.9463 24.1086 75.1532 24.165 75.4165 24.165H76.15V23.2623C76.1124 22.6417 75.8867 22.322 75.3789 22.322Z" fill="#36302B"/>
<path d="M85.4785 25.1422C85.4785 25.5559 85.422 25.8944 85.3092 26.1577C85.1963 26.4398 85.0271 26.6655 84.8014 26.8535C84.5945 27.0228 84.3312 27.1544 84.0491 27.2673C83.7482 27.3613 83.4285 27.3989 83.1087 27.3989C82.789 27.3989 82.4693 27.3613 82.1684 27.2673C81.8675 27.1733 81.623 27.0416 81.3973 26.8535C81.1716 26.6843 81.0023 26.421 80.8707 26.1389C80.739 25.8568 80.6826 25.4995 80.6826 25.1046C80.6826 24.8036 80.739 24.4651 80.8143 24.1454C80.9083 23.8257 81.04 23.506 81.2092 23.2427C81.228 23.2051 81.2844 23.1863 81.3409 23.2239L82.3565 23.5436C82.3753 23.5624 82.4129 23.5624 82.4129 23.6C82.4129 23.6188 82.4129 23.6565 82.3941 23.6565C82.3 23.8257 82.2248 24.0514 82.1496 24.2583C82.0743 24.4651 82.0367 24.7284 82.0367 25.0105C82.0367 25.2362 82.0555 25.4243 82.1308 25.5747C82.1872 25.7252 82.2624 25.838 82.3753 25.932C82.4693 26.0261 82.601 26.0825 82.7138 26.1389C82.8454 26.1765 82.9771 26.1953 83.1087 26.1953C83.4285 26.1953 83.6918 26.1013 83.861 25.932C84.0303 25.7628 84.1243 25.4619 84.1243 25.0857V18.9925C84.1243 18.9361 84.1431 18.8984 84.2184 18.8984H85.3844C85.4408 18.8984 85.4785 18.9172 85.4785 18.9925V23.6941C85.4973 23.8445 85.5537 23.9762 85.6853 24.089C85.7982 24.183 85.9862 24.2206 86.2119 24.2206H86.4376C86.5693 24.2206 86.6633 24.2583 86.7197 24.3523C86.7761 24.4463 86.8138 24.578 86.8138 24.7848C86.8138 25.1798 86.6821 25.3678 86.4188 25.3678C86.2307 25.3678 86.0239 25.349 85.8734 25.3114C85.7229 25.2738 85.5913 25.1986 85.4596 25.0669L85.4785 25.1422Z" fill="#36302B"/>
<path d="M89.09 21.1748C89.4097 21.1748 89.7106 21.2125 89.9551 21.2689C90.2184 21.3441 90.4441 21.4381 90.6322 21.5698C90.8014 21.7014 90.9519 21.8707 91.0648 22.0775C91.1588 22.2844 91.1964 22.5101 91.1964 22.7922C91.1964 23.0931 91.14 23.3564 90.9895 23.5821C90.8579 23.8077 90.6886 24.0146 90.4441 24.1839C90.5005 24.1839 90.5382 24.1651 90.5946 24.1651C90.651 24.1651 90.6886 24.1651 90.745 24.1651H91.7042C91.8358 24.1651 91.9299 24.2027 91.9863 24.2779C92.0427 24.3531 92.0803 24.5036 92.0803 24.7481C92.0803 24.9549 92.0615 25.1054 91.9863 25.2182C91.9299 25.3123 91.8358 25.3499 91.7042 25.3499H90.3125C90.0868 25.3499 89.8611 25.3311 89.673 25.3311C89.4661 25.3122 89.2781 25.237 89.09 25.143C88.8831 25.2558 88.6574 25.3122 88.4129 25.3311C88.1872 25.3499 87.9616 25.3499 87.7735 25.3499H86.4006C86.2689 25.3499 86.1749 25.3123 86.1185 25.2182C86.062 25.1242 86.0244 24.9925 86.0244 24.7481C86.0244 24.56 86.0432 24.4095 86.1185 24.3155C86.1749 24.2215 86.2689 24.1839 86.4006 24.1839H87.6983C87.4914 24.0522 87.3033 23.8453 87.1717 23.6009C87.04 23.3752 86.9648 23.0931 86.9648 22.811C86.9648 22.5477 87.0212 22.3032 87.0964 22.0964C87.1905 21.9083 87.3221 21.739 87.529 21.5886C87.6983 21.4569 87.9428 21.3629 88.2061 21.2877C88.4694 21.2125 88.7703 21.1748 89.09 21.1748ZM87.9051 20.385C87.8487 20.385 87.8111 20.3662 87.8111 20.2909V19.3694C87.8111 19.313 87.8299 19.2754 87.9051 19.2754H88.8643C88.9207 19.2754 88.9583 19.2942 88.9583 19.3694V20.2909C88.9583 20.3474 88.9395 20.385 88.8643 20.385H87.9051ZM89.09 22.1152C88.9019 22.1152 88.695 22.1716 88.5446 22.3032C88.3941 22.4349 88.3189 22.6229 88.3189 22.905C88.3189 23.1871 88.3941 23.4316 88.5446 23.6009C88.695 23.7701 88.8643 23.9018 89.09 24.0334C89.2969 23.9394 89.4849 23.8077 89.6354 23.6009C89.7859 23.4128 89.8611 23.1871 89.8611 22.905C89.8611 22.6417 89.7859 22.4161 89.6354 22.3032C89.4661 22.1716 89.2781 22.1152 89.09 22.1152ZM89.3533 20.385C89.2969 20.385 89.2593 20.3662 89.2593 20.2909V19.3694C89.2593 19.313 89.2781 19.2754 89.3533 19.2754H90.3125C90.3689 19.2754 90.4065 19.2942 90.4065 19.3694V20.2909C90.4065 20.3474 90.3877 20.385 90.3125 20.385H89.3533Z" fill="#36302B"/>
<path d="M93.773 24.8609C93.679 25.049 93.5097 25.1806 93.3217 25.2558C93.1336 25.3122 92.8515 25.3499 92.5318 25.3499H91.7795C91.6478 25.3499 91.5538 25.3311 91.4974 25.2934C91.4409 25.2558 91.4033 25.1618 91.4033 25.0302C91.4033 24.9549 91.4033 24.8609 91.4221 24.7669C91.4409 24.6728 91.4597 24.5976 91.4785 24.5036C91.4973 24.4283 91.5538 24.3719 91.5914 24.2967C91.6478 24.2403 91.7042 24.2215 91.7795 24.2215H92.0804C92.2684 24.2215 92.4001 24.1651 92.4753 24.0522C92.5318 23.9582 92.5506 23.7513 92.5506 23.4504V21.4381C92.5506 21.3817 92.607 21.3629 92.6822 21.3441C92.7762 21.3253 92.8515 21.3253 92.9267 21.3253H93.7918C93.8483 21.3253 93.8859 21.3441 93.8859 21.4193V23.6573C93.9047 23.8077 93.9611 23.9394 94.0927 24.0522C94.2056 24.1463 94.3937 24.1839 94.6193 24.1839H94.845C94.9767 24.1839 95.0707 24.2215 95.1271 24.3155C95.1836 24.4095 95.2212 24.5412 95.2212 24.7481C95.2212 25.143 95.0895 25.3311 94.8262 25.3311C94.6005 25.3311 94.3749 25.3122 94.1868 25.237C94.0363 25.1994 93.9047 25.0678 93.773 24.8609ZM92.6446 20.385C92.5882 20.385 92.5506 20.3662 92.5506 20.2909V19.3694C92.5506 19.313 92.5694 19.2754 92.6446 19.2754H93.8294C93.8859 19.2754 93.9235 19.2942 93.9235 19.3694V20.2909C93.9235 20.3474 93.9047 20.385 93.8294 20.385H92.6446Z" fill="#36302B"/>
<path d="M94.8068 25.3498C94.6752 25.3498 94.5811 25.331 94.5247 25.2933C94.4683 25.2557 94.4307 25.1617 94.4307 25.0301C94.4307 24.9548 94.4495 24.8796 94.4495 24.7668C94.4495 24.6539 94.4871 24.5975 94.5059 24.5035C94.5247 24.4282 94.5623 24.353 94.6187 24.2966C94.6752 24.2402 94.7128 24.2026 94.788 24.2026H95.1077C95.2582 24.2026 95.371 24.165 95.4463 24.1085C95.5215 24.0333 95.5403 23.9017 95.5403 23.7136V19.012C95.5403 18.9556 95.5591 18.918 95.6343 18.918H96.8004C96.8568 18.918 96.8944 18.9368 96.8944 19.012V24.165C96.8944 24.5787 96.8004 24.8796 96.6311 25.0677C96.4618 25.2557 96.1609 25.3498 95.7848 25.3498H94.8068Z" fill="#36302B"/>
<path d="M99.4528 25.2394C99.4528 25.2958 99.4339 25.3334 99.3587 25.3334H98.1927C98.1362 25.3334 98.0986 25.3146 98.0986 25.2394V18.9768C98.0986 18.9204 98.1174 18.8828 98.1927 18.8828H99.3587C99.4151 18.8828 99.4528 18.9016 99.4528 18.9768V25.2394Z" fill="#36302B"/>
<path d="M104.756 25.4063C104.455 25.4063 104.173 25.3687 103.928 25.3123C103.665 25.2558 103.439 25.143 103.251 24.9737C103.082 24.8233 102.913 24.5788 102.8 24.3343C102.706 24.071 102.649 23.7325 102.649 23.3564C102.649 22.9238 102.706 22.6041 102.819 22.322C102.932 22.0587 103.082 21.8143 103.289 21.6638C103.477 21.4945 103.721 21.3817 103.966 21.3253C104.21 21.2689 104.493 21.2313 104.756 21.2313C105.019 21.2313 105.301 21.2689 105.546 21.3253C105.79 21.3817 106.016 21.4945 106.223 21.6638C106.43 21.8331 106.561 22.0587 106.693 22.322C106.825 22.5853 106.862 22.9614 106.862 23.3564C106.862 23.7513 106.806 24.071 106.712 24.3343C106.618 24.5976 106.467 24.8233 106.26 24.9737C106.091 25.1242 105.847 25.237 105.583 25.3123C105.32 25.3687 105.038 25.4063 104.756 25.4063ZM103.533 20.385C103.477 20.385 103.439 20.3662 103.439 20.2909V19.3694C103.439 19.313 103.458 19.2754 103.533 19.2754H104.493C104.549 19.2754 104.587 19.2942 104.587 19.3694V20.2909C104.587 20.3474 104.568 20.385 104.493 20.385H103.533ZM104.756 22.322C104.229 22.322 103.966 22.6229 103.966 23.2812C103.966 23.6385 104.022 23.9018 104.154 24.0334C104.286 24.1651 104.474 24.2403 104.737 24.2403C105 24.2403 105.207 24.1839 105.339 24.0334C105.47 23.883 105.527 23.6385 105.527 23.2812C105.527 22.6605 105.264 22.322 104.756 22.322ZM105 20.385C104.944 20.385 104.906 20.3662 104.906 20.2909V19.3694C104.906 19.313 104.925 19.2754 105 19.2754H105.959C106.016 19.2754 106.054 19.2942 106.054 19.3694V20.2909C106.054 20.3474 106.035 20.385 105.959 20.385H105Z" fill="#36302B"/>
<path d="M107.427 27.3068C107.371 27.3068 107.333 27.288 107.333 27.2128V26.2537C107.333 26.1973 107.352 26.1596 107.427 26.1596H107.634C107.897 26.1596 108.085 26.1032 108.179 25.9716C108.273 25.8399 108.349 25.6331 108.349 25.3698V21.4768C108.349 21.4204 108.367 21.3828 108.443 21.3828H109.609C109.665 21.3828 109.703 21.4016 109.703 21.4768V25.4074C109.703 26.0656 109.552 26.5546 109.233 26.8555C108.932 27.1564 108.461 27.3256 107.841 27.3256L107.427 27.3068Z" fill="#36302B"/>
<path d="M112.167 25.2394C112.167 25.2958 112.148 25.3334 112.073 25.3334H110.907C110.85 25.3334 110.812 25.3146 110.812 25.2394V18.9768C110.812 18.9204 110.831 18.8828 110.907 18.8828H112.073C112.129 18.8828 112.167 18.9016 112.167 18.9768V25.2394Z" fill="#36302B"/>
<path d="M112.863 27.3057C112.806 27.3057 112.769 27.2869 112.769 27.2117V26.2526C112.769 26.1962 112.787 26.1585 112.863 26.1585H113.069C113.333 26.1585 113.521 26.1021 113.615 25.9705C113.709 25.8388 113.784 25.632 113.784 25.3687V21.4757C113.784 21.4193 113.803 21.3817 113.878 21.3817H115.044C115.101 21.3817 115.138 21.4005 115.138 21.4757V25.4063C115.138 26.0645 114.988 26.5535 114.668 26.8544C114.367 27.1553 113.897 27.3245 113.276 27.3245L112.863 27.3057ZM113.859 20.385C113.803 20.385 113.765 20.3662 113.765 20.2909V19.3694C113.765 19.313 113.784 19.2754 113.859 19.2754H115.044C115.101 19.2754 115.138 19.2942 115.138 19.3694V20.2909C115.138 20.3474 115.119 20.385 115.044 20.385H113.859Z" fill="#36302B"/>
<path d="M116.999 27.3057C116.943 27.3057 116.905 27.2869 116.905 27.2116V26.2525C116.905 26.1961 116.924 26.1585 116.999 26.1585H118.09C118.222 26.1585 118.316 26.1397 118.429 26.1397C118.523 26.1209 118.598 26.0832 118.692 26.0456C118.767 25.9892 118.824 25.914 118.861 25.8012C118.899 25.6883 118.918 25.5567 118.918 25.3686H118.542C118.147 25.3686 117.827 25.3498 117.526 25.3122C117.225 25.2746 116.962 25.1805 116.755 25.0489C116.548 24.9173 116.36 24.7104 116.266 24.4471C116.172 24.1838 116.097 23.8453 116.097 23.4127C116.097 22.999 116.153 22.6605 116.266 22.3972C116.379 22.1339 116.529 21.8894 116.736 21.7202C116.924 21.5509 117.169 21.4193 117.413 21.3628C117.658 21.3064 117.921 21.25 118.184 21.25C118.448 21.25 118.73 21.2876 118.974 21.344C119.219 21.4005 119.444 21.5133 119.651 21.6825C119.839 21.833 119.99 22.0775 120.121 22.3408C120.234 22.6041 120.291 22.9614 120.291 23.3563V25.5755C120.291 26.1773 120.14 26.6098 119.821 26.9107C119.52 27.1928 119.049 27.3433 118.41 27.3433L116.999 27.3057ZM118.184 22.322C117.921 22.322 117.714 22.416 117.582 22.5853C117.451 22.7545 117.394 23.0178 117.394 23.2999C117.394 23.6384 117.47 23.8829 117.62 23.9957C117.771 24.1086 117.959 24.165 118.222 24.165H118.955V23.2623C118.937 22.6417 118.673 22.322 118.184 22.322Z" fill="#36302B"/>
<path d="M0.0566406 29.6599C0.0566406 29.6223 0.0754484 29.6035 0.113063 29.6035H0.790122C0.846544 29.6035 0.865351 29.6223 0.884158 29.6599L1.88094 31.8979H1.89975L2.85892 29.6599C2.87772 29.6223 2.91534 29.6035 2.95295 29.6035H3.63001C3.66763 29.6035 3.68643 29.6223 3.68643 29.6599V33.4588C3.68643 33.4964 3.66763 33.5152 3.63001 33.5152H2.97176C2.93414 33.5152 2.91534 33.4964 2.91534 33.4588V31.2397H2.89653L2.18186 32.8946C2.16305 32.9511 2.12543 32.9699 2.08782 32.9699H1.69287C1.63645 32.9699 1.59883 32.9511 1.59883 32.8946L0.884158 31.2585H0.865351V33.4776C0.865351 33.5152 0.846544 33.534 0.808929 33.534H0.150677C0.113062 33.534 0.0942545 33.5152 0.0942545 33.4776V29.6787H0.0566406V29.6599Z" fill="#36302B"/>
<path d="M4.77712 30.2994C4.73951 30.2994 4.7207 30.2805 4.7207 30.2429V29.6599C4.7207 29.6223 4.73951 29.6035 4.77712 29.6035H5.47299C5.51061 29.6035 5.52941 29.6223 5.52941 29.6599V30.2429C5.52941 30.2805 5.51061 30.2994 5.47299 30.2994H4.77712ZM4.77712 33.534C4.73951 33.534 4.7207 33.5152 4.7207 33.4776V30.8071C4.7207 30.7695 4.73951 30.7507 4.77712 30.7507H5.47299C5.51061 30.7507 5.52941 30.7695 5.52941 30.8071V33.4776C5.52941 33.5152 5.51061 33.534 5.47299 33.534H4.77712Z" fill="#36302B"/>
<path d="M8.25638 33.5324C8.21877 33.5324 8.19996 33.5136 8.19996 33.476V31.8774C8.19996 31.727 8.16234 31.6141 8.10592 31.5201C8.0495 31.4261 7.93666 31.3885 7.7862 31.3885C7.63574 31.3885 7.5417 31.4449 7.46647 31.5201C7.39125 31.6141 7.35363 31.727 7.35363 31.8774V33.476C7.35363 33.5136 7.33482 33.5324 7.29721 33.5324H6.60134C6.56373 33.5324 6.54492 33.5136 6.54492 33.476V30.8055C6.54492 30.7679 6.56373 30.749 6.60134 30.749H7.29721C7.33482 30.749 7.35363 30.7679 7.35363 30.8055V30.9935C7.41005 30.8995 7.50409 30.8431 7.61693 30.7679C7.72978 30.7114 7.88024 30.6738 8.06831 30.6738C8.21877 30.6738 8.35041 30.6926 8.48207 30.749C8.59491 30.8055 8.70775 30.8619 8.78298 30.9559C8.85821 31.05 8.91463 31.144 8.95225 31.2756C8.98986 31.4073 9.00867 31.5389 9.00867 31.7082V33.4572C9.00867 33.4948 8.98986 33.5136 8.95225 33.5136H8.25638V33.5324Z" fill="#36302B"/>
<path d="M10.0242 30.2994C9.98658 30.2994 9.96777 30.2805 9.96777 30.2429V29.6599C9.96777 29.6223 9.98658 29.6035 10.0242 29.6035H10.7201C10.7577 29.6035 10.7765 29.6223 10.7765 29.6599V30.2429C10.7765 30.2805 10.7577 30.2994 10.7201 30.2994H10.0242ZM10.0242 33.534C9.98658 33.534 9.96777 33.5152 9.96777 33.4776V30.8071C9.96777 30.7695 9.98658 30.7507 10.0242 30.7507H10.7201C10.7577 30.7507 10.7765 30.7695 10.7765 30.8071V33.4776C10.7765 33.5152 10.7577 33.534 10.7201 33.534H10.0242Z" fill="#36302B"/>
<path d="M12.8836 33.5888C12.6015 33.5888 12.3382 33.5512 12.1313 33.4572C11.9244 33.3631 11.7363 33.2879 11.6235 33.1563C11.6047 33.1375 11.6047 33.0999 11.6235 33.081L12.0184 32.6485C12.0372 32.6297 12.0749 32.6297 12.0937 32.6485C12.2065 32.7425 12.357 32.8177 12.5074 32.8742C12.6391 32.9306 12.8083 32.9494 12.9588 32.9494C13.0904 32.9494 13.2033 32.9306 13.2785 32.8742C13.3349 32.8177 13.3726 32.7613 13.3726 32.6861C13.3726 32.6297 13.3537 32.5733 13.2973 32.5357C13.2409 32.498 13.1469 32.4792 12.9964 32.4604L12.6955 32.4228C12.3946 32.404 12.1689 32.31 12.0184 32.1595C11.868 32.0279 11.7927 31.821 11.7927 31.5577C11.7927 31.2944 11.8868 31.0499 12.0937 30.8995C12.2817 30.749 12.5826 30.6738 12.94 30.6738C13.1657 30.6738 13.4102 30.6926 13.5794 30.7679C13.7675 30.8243 13.918 30.8995 14.0684 31.0123C14.0872 31.0311 14.0872 31.0688 14.0684 31.1064L13.7487 31.5013C13.7299 31.5201 13.6923 31.5201 13.6735 31.5201C13.5794 31.4637 13.4666 31.4073 13.3349 31.3697C13.2033 31.332 13.0716 31.3132 12.9024 31.3132C12.7895 31.3132 12.6955 31.332 12.6391 31.3697C12.5826 31.4073 12.545 31.4637 12.545 31.5389C12.545 31.5953 12.5638 31.6518 12.6203 31.6894C12.6767 31.727 12.7707 31.7458 12.9212 31.7646L13.2221 31.8022C13.5418 31.821 13.7863 31.915 13.9368 32.0655C14.0684 32.1971 14.1625 32.404 14.1625 32.6485C14.1625 32.9306 14.0496 33.1751 13.8427 33.3443C13.5794 33.5136 13.2785 33.5888 12.8836 33.5888Z" fill="#36302B"/>
<path d="M15.8921 33.5525C15.5724 33.5525 15.3467 33.4773 15.215 33.3268C15.0834 33.1952 15.027 32.9319 15.027 32.6122V31.3334C15.027 31.3146 15.0082 31.2958 14.9894 31.2958H14.8201C14.7825 31.2958 14.7637 31.2769 14.7637 31.2393V30.7504C14.7637 30.7127 14.7825 30.6939 14.8201 30.6939H14.9894C15.0082 30.6939 15.027 30.6751 15.027 30.6563V29.9041C15.027 29.8665 15.0458 29.8477 15.0834 29.8477H15.7605C15.7981 29.8477 15.8169 29.8665 15.8169 29.9041V30.6563C15.8169 30.6751 15.8357 30.6939 15.8545 30.6939H16.193C16.2306 30.6939 16.2494 30.7127 16.2494 30.7504V31.2393C16.2494 31.2769 16.2306 31.2958 16.193 31.2958H15.8545C15.8357 31.2958 15.8169 31.3146 15.8169 31.3334V32.5746C15.8169 32.6686 15.8357 32.7438 15.8733 32.8003C15.9109 32.8379 15.9673 32.8567 16.0614 32.8567H16.193C16.2306 32.8567 16.2494 32.8755 16.2494 32.9131V33.4961C16.2494 33.5337 16.2306 33.5525 16.193 33.5525H15.8921Z" fill="#36302B"/>
<path d="M17.2088 33.5324C17.1712 33.5324 17.1523 33.5136 17.1523 33.476V30.8055C17.1523 30.7679 17.1712 30.749 17.2088 30.749H17.9046C17.9422 30.749 17.9611 30.7679 17.9611 30.8055V31.0311C18.0175 30.9183 18.1115 30.8431 18.2432 30.7679C18.356 30.7114 18.5065 30.6738 18.6945 30.6738C18.7886 30.6738 18.8638 30.6926 18.9578 30.7114C19.0331 30.7302 19.1083 30.7679 19.1835 30.8243C19.2023 30.8431 19.2023 30.8807 19.2023 30.8995L18.8826 31.5013C18.8638 31.5201 18.8262 31.5201 18.8074 31.5201C18.6757 31.4261 18.5441 31.3885 18.3936 31.3885C18.262 31.4073 18.1303 31.4449 18.0739 31.5577C18.0175 31.6706 17.9799 31.8022 17.9799 31.9903V33.4572C17.9799 33.4948 17.9611 33.5136 17.9234 33.5136L17.2088 33.5324Z" fill="#36302B"/>
<path d="M20.0488 34.5665C20.0112 34.5665 19.9924 34.5477 19.9924 34.51V33.9459C19.9924 33.9082 20.0112 33.8894 20.0488 33.8894H20.1616C20.2557 33.8894 20.3309 33.8706 20.3873 33.833C20.4437 33.7954 20.4813 33.7202 20.519 33.6073L20.5942 33.4005L19.5598 30.824C19.541 30.7864 19.5598 30.7676 19.6162 30.7676H20.3497C20.3873 30.7676 20.4061 30.7864 20.4061 30.824L20.9703 32.4225H20.9891L21.5157 30.824C21.5345 30.7864 21.5534 30.7676 21.5722 30.7676H22.2868C22.3244 30.7676 22.3433 30.7864 22.3433 30.824L21.2148 33.7954C21.1584 33.9459 21.102 34.0775 21.0456 34.1903C20.9891 34.3032 20.9139 34.3596 20.8387 34.4348C20.7634 34.4912 20.6882 34.5289 20.5754 34.5665C20.4813 34.5853 20.3685 34.6041 20.2368 34.6041L20.0488 34.5665Z" fill="#36302B"/>
<path d="M25.8602 33.591C25.5593 33.591 25.3148 33.5346 25.0891 33.4029C24.8822 33.2713 24.7318 33.0832 24.6377 32.8199C24.6189 32.7259 24.5813 32.6319 24.5813 32.519C24.5625 32.425 24.5625 32.2933 24.5625 32.1617C24.5625 32.0301 24.5813 31.8984 24.5813 31.8044C24.6001 31.7104 24.6189 31.5975 24.6377 31.5035C24.713 31.259 24.8634 31.0521 25.0891 30.9205C25.296 30.7888 25.5593 30.7324 25.8602 30.7324C26.1611 30.7324 26.4056 30.7888 26.6313 30.9205C26.8382 31.0521 26.9886 31.2402 27.0827 31.5035C27.1015 31.5975 27.1391 31.6916 27.1391 31.8044C27.1579 31.8984 27.1579 32.0301 27.1579 32.1617C27.1579 32.2933 27.1391 32.425 27.1391 32.519C27.1203 32.6131 27.1015 32.7259 27.0827 32.8199C27.0074 33.0644 26.857 33.2713 26.6313 33.4029C26.3868 33.5346 26.1423 33.591 25.8602 33.591ZM25.8602 32.914C26.0859 32.914 26.2175 32.8199 26.2928 32.6131C26.3116 32.5566 26.3116 32.4814 26.3304 32.425C26.3492 32.3686 26.3492 32.2745 26.3492 32.1617C26.3492 32.0489 26.3492 31.9548 26.3304 31.8984C26.3116 31.842 26.3116 31.7668 26.2928 31.7104C26.2363 31.5223 26.0859 31.4094 25.8602 31.4094C25.6345 31.4094 25.5029 31.5035 25.4276 31.7104C25.4088 31.7668 25.4088 31.842 25.39 31.8984C25.3712 31.9548 25.3712 32.0489 25.3712 32.1617C25.3712 32.2745 25.3712 32.3686 25.39 32.425C25.4088 32.4814 25.4088 32.5566 25.4276 32.6131C25.4841 32.8011 25.6157 32.914 25.8602 32.914Z" fill="#36302B"/>
<path d="M28.1735 33.534C28.1359 33.534 28.1171 33.5152 28.1171 33.4776V31.3713C28.1171 31.3525 28.0983 31.3337 28.0795 31.3337H27.8914C27.8538 31.3337 27.835 31.3149 27.835 31.2773V30.7883C27.835 30.7507 27.8538 30.7319 27.8914 30.7319H28.0606C28.0795 30.7319 28.0983 30.7131 28.0983 30.6943V30.5626C28.0983 30.2241 28.1735 29.9608 28.3239 29.8292C28.4744 29.6975 28.7377 29.6035 29.0762 29.6035H29.3772C29.4148 29.6035 29.4336 29.6223 29.4336 29.6599V30.2053C29.4336 30.2429 29.4148 30.2617 29.3772 30.2617H29.2079C29.0762 30.2617 29.001 30.2805 28.9634 30.3182C28.9258 30.3558 28.907 30.431 28.907 30.5438V30.6755C28.907 30.6943 28.9258 30.7131 28.9446 30.7131H29.4148C29.4524 30.7131 29.4712 30.7319 29.4712 30.7695V31.2585C29.4712 31.2961 29.4524 31.3149 29.4148 31.3149H28.9446C28.9258 31.3149 28.907 31.3337 28.907 31.3525V33.4588C28.907 33.4964 28.8882 33.5152 28.8506 33.5152H28.1547V33.534H28.1735Z" fill="#36302B"/>
<path d="M32.6687 33.5348C32.6311 33.5348 32.6123 33.516 32.6123 33.4784V30.4129C32.6123 30.3941 32.5935 30.3753 32.5747 30.3753H31.5779C31.5403 30.3753 31.5215 30.3565 31.5215 30.3189V29.6795C31.5215 29.6419 31.5403 29.623 31.5779 29.623H34.4742C34.5118 29.623 34.5306 29.6419 34.5306 29.6795V30.3189C34.5306 30.3565 34.5118 30.3753 34.4742 30.3753H33.4774C33.4586 30.3753 33.4398 30.3941 33.4398 30.4129V33.4784C33.4398 33.516 33.421 33.5348 33.3834 33.5348H32.6687Z" fill="#36302B"/>
<path d="M35.3201 33.5324C35.2825 33.5324 35.2637 33.5136 35.2637 33.476V30.8055C35.2637 30.7679 35.2825 30.749 35.3201 30.749H36.016C36.0536 30.749 36.0724 30.7679 36.0724 30.8055V31.0311C36.1288 30.9183 36.2228 30.8431 36.3545 30.7679C36.4673 30.7114 36.6178 30.6738 36.8059 30.6738C36.8999 30.6738 36.9751 30.6926 37.0692 30.7114C37.1444 30.7302 37.2196 30.7679 37.2948 30.8243C37.3137 30.8431 37.3137 30.8807 37.3137 30.8995L36.9939 31.5013C36.9751 31.5201 36.9375 31.5201 36.9187 31.5201C36.7871 31.4261 36.6554 31.3885 36.5049 31.3885C36.3733 31.4073 36.2416 31.4449 36.1852 31.5577C36.1288 31.6706 36.0912 31.8022 36.0912 31.9903V33.4572C36.0912 33.4948 36.0724 33.5136 36.0348 33.5136L35.3201 33.5324Z" fill="#36302B"/>
<path d="M39.4956 33.5331C39.458 33.5331 39.4392 33.5143 39.4392 33.4767V33.3075C39.364 33.4015 39.2699 33.4767 39.1571 33.5331C39.0443 33.5895 38.8938 33.6084 38.6869 33.6084C38.5741 33.6084 38.4612 33.5895 38.3484 33.5519C38.2356 33.5331 38.1415 33.4767 38.0475 33.4015C37.9723 33.3451 37.897 33.251 37.8594 33.1382C37.803 33.0442 37.7842 32.9125 37.7842 32.7433C37.7842 32.4424 37.8782 32.1979 38.0851 32.0662C38.292 31.9346 38.5929 31.8405 38.9126 31.8405H39.4204C39.4392 31.8405 39.458 31.8217 39.458 31.8029V31.7089C39.458 31.5773 39.4204 31.4832 39.3452 31.4268C39.2699 31.3704 39.1195 31.3328 38.875 31.3328C38.7433 31.3328 38.6117 31.3516 38.5177 31.3892C38.4236 31.4268 38.3484 31.4644 38.2732 31.5208C38.2544 31.5397 38.2167 31.5396 38.1979 31.502L37.9346 31.0319C37.9158 30.9943 37.9158 30.9755 37.9534 30.9567C38.0663 30.8814 38.2167 30.8062 38.386 30.7686C38.5553 30.7122 38.7433 30.6934 38.9878 30.6934C39.2135 30.6934 39.4204 30.7122 39.5709 30.7498C39.7213 30.7874 39.853 30.8438 39.9658 30.919C40.0599 30.9943 40.1351 31.0883 40.1727 31.2199C40.2103 31.3516 40.2291 31.4832 40.2291 31.6713V33.4391C40.2291 33.4767 40.2103 33.4955 40.1727 33.4955L39.4956 33.5331ZM38.9126 32.9877C39.2511 32.9877 39.4392 32.8561 39.4392 32.5928V32.4047C39.4392 32.3859 39.4204 32.3671 39.4016 32.3671H39.0066C38.6869 32.3671 38.4989 32.4612 38.4989 32.668C38.5177 32.8749 38.6493 32.9877 38.9126 32.9877Z" fill="#36302B"/>
<path d="M42.899 33.5324C42.8613 33.5324 42.8425 33.5136 42.8425 33.476V31.8774C42.8425 31.727 42.8049 31.6141 42.7485 31.5201C42.6921 31.4261 42.5792 31.3885 42.4288 31.3885C42.2971 31.3885 42.1843 31.4449 42.1091 31.5201C42.0338 31.6141 41.9962 31.727 41.9962 31.8774V33.476C41.9962 33.5136 41.9774 33.5324 41.9398 33.5324H41.2439C41.2063 33.5324 41.1875 33.5136 41.1875 33.476V30.8055C41.1875 30.7679 41.2063 30.749 41.2439 30.749H41.9398C41.9774 30.749 41.9962 30.7679 41.9962 30.8055V30.9935C42.0526 30.8995 42.1467 30.8431 42.2595 30.7679C42.3724 30.7114 42.5228 30.6738 42.7109 30.6738C42.8613 30.6738 42.993 30.6926 43.1246 30.749C43.2375 30.8055 43.3503 30.8619 43.4256 30.9559C43.5008 31.05 43.5572 31.144 43.5948 31.2756C43.6324 31.4073 43.6512 31.5389 43.6512 31.7082V33.4572C43.6512 33.4948 43.6324 33.5136 43.5948 33.5136H42.899V33.5324Z" fill="#36302B"/>
<path d="M45.7205 33.5888C45.4384 33.5888 45.1751 33.5512 44.9682 33.4572C44.7613 33.3631 44.5732 33.2879 44.4604 33.1563C44.4416 33.1375 44.4416 33.0999 44.4604 33.081L44.8553 32.6485C44.8742 32.6297 44.9118 32.6297 44.9306 32.6485C45.0434 32.7425 45.1939 32.8177 45.3443 32.8742C45.476 32.9306 45.6452 32.9494 45.7957 32.9494C45.9462 32.9494 46.0402 32.9306 46.1154 32.8742C46.1718 32.8177 46.2095 32.7613 46.2095 32.6861C46.2095 32.6297 46.1907 32.5733 46.1342 32.5357C46.0778 32.498 45.9838 32.4792 45.8333 32.4604L45.5324 32.4228C45.2315 32.404 45.0058 32.31 44.8553 32.1595C44.7049 32.0279 44.6297 31.821 44.6297 31.5577C44.6297 31.2944 44.7237 31.0499 44.9306 30.8995C45.1375 30.749 45.4196 30.6738 45.7769 30.6738C46.0026 30.6738 46.2471 30.6926 46.4163 30.7679C46.6044 30.8243 46.7549 30.8995 46.9053 31.0123C46.9241 31.0311 46.9241 31.0688 46.9053 31.1064L46.5856 31.5013C46.5668 31.5201 46.5292 31.5201 46.5104 31.5201C46.4163 31.4637 46.3035 31.4073 46.1719 31.3697C46.0402 31.332 45.9085 31.3132 45.7393 31.3132C45.6264 31.3132 45.5324 31.332 45.476 31.3697C45.4196 31.4073 45.3819 31.4637 45.3819 31.5389C45.3819 31.5953 45.4008 31.6518 45.4572 31.6894C45.5136 31.727 45.6076 31.7458 45.7581 31.7646L46.059 31.8022C46.3787 31.821 46.6232 31.915 46.7737 32.0655C46.9053 32.1971 46.9994 32.404 46.9994 32.6485C46.9994 32.9306 46.8865 33.1751 46.6796 33.3443C46.4351 33.5136 46.1342 33.5888 45.7205 33.5888Z" fill="#36302B"/>
<path d="M47.864 34.5667C47.8264 34.5667 47.8076 34.5479 47.8076 34.5103V30.8055C47.8076 30.7679 47.8264 30.749 47.864 30.749H48.5599C48.5975 30.749 48.6163 30.7679 48.6163 30.8055V30.9935C48.6728 30.8995 48.7668 30.8243 48.8796 30.7679C48.9925 30.7114 49.1429 30.6738 49.3498 30.6738C49.5755 30.6738 49.7824 30.7302 49.9516 30.8431C50.1021 30.9559 50.2149 31.1064 50.2902 31.3509C50.3278 31.4637 50.3466 31.5765 50.3654 31.6894C50.3842 31.8022 50.3842 31.9527 50.3842 32.1407C50.3842 32.31 50.3654 32.4604 50.3654 32.5921C50.3654 32.7237 50.3278 32.8178 50.2902 32.9306C50.2149 33.1563 50.1021 33.3255 49.9516 33.4384C49.8012 33.5512 49.6131 33.6076 49.3498 33.6076C49.1805 33.6076 49.0113 33.5888 48.8796 33.5136C48.7668 33.4572 48.6728 33.3819 48.6163 33.2879V34.5291C48.6163 34.5668 48.5975 34.5856 48.5599 34.5856L47.864 34.5667ZM49.0865 32.9118C49.3122 32.9118 49.4438 32.8178 49.5191 32.6109C49.5379 32.5545 49.5379 32.498 49.5567 32.4416C49.5755 32.3852 49.5755 32.2724 49.5755 32.1595C49.5755 32.0467 49.5755 31.9339 49.5567 31.8774C49.5379 31.821 49.5379 31.7458 49.5191 31.7082C49.4627 31.5201 49.3122 31.4073 49.0865 31.4073C48.8608 31.4073 48.7292 31.5013 48.6539 31.7082C48.6351 31.7646 48.6351 31.821 48.6163 31.8774C48.5975 31.9339 48.5975 32.0467 48.5975 32.1595C48.5975 32.2724 48.5975 32.3852 48.6163 32.4416C48.6351 32.498 48.6351 32.5733 48.6539 32.6109C48.7292 32.7989 48.8608 32.9118 49.0865 32.9118Z" fill="#36302B"/>
<path d="M52.4159 33.591C52.1149 33.591 51.8705 33.5346 51.6448 33.4029C51.4379 33.2713 51.2874 33.0832 51.1934 32.8199C51.1746 32.7259 51.137 32.6319 51.137 32.519C51.1182 32.425 51.1182 32.2933 51.1182 32.1617C51.1182 32.0301 51.137 31.8984 51.137 31.8044C51.1558 31.7104 51.1746 31.5975 51.1934 31.5035C51.2686 31.259 51.4191 31.0521 51.6448 30.9205C51.8516 30.7888 52.1149 30.7324 52.4159 30.7324C52.7168 30.7324 52.9613 30.7888 53.187 30.9205C53.3938 31.0521 53.5443 31.2402 53.6383 31.5035C53.6571 31.5975 53.6948 31.6916 53.6948 31.8044C53.7136 31.8984 53.7136 32.0301 53.7136 32.1617C53.7136 32.2933 53.6948 32.425 53.6948 32.519C53.6759 32.6131 53.6571 32.7259 53.6383 32.8199C53.5631 33.0644 53.4126 33.2713 53.187 33.4029C52.9613 33.5346 52.7168 33.591 52.4159 33.591ZM52.4159 32.914C52.6415 32.914 52.7732 32.8199 52.8484 32.6131C52.8672 32.5566 52.8672 32.4814 52.886 32.425C52.9048 32.3686 52.9048 32.2745 52.9048 32.1617C52.9048 32.0489 52.9048 31.9548 52.886 31.8984C52.8672 31.842 52.8672 31.7668 52.8484 31.7104C52.792 31.5223 52.6415 31.4094 52.4159 31.4094C52.1902 31.4094 52.0585 31.5035 51.9833 31.7104C51.9645 31.7668 51.9645 31.842 51.9457 31.8984C51.9269 31.9548 51.9269 32.0489 51.9269 32.1617C51.9269 32.2745 51.9269 32.3686 51.9457 32.425C51.9645 32.4814 51.9645 32.5566 51.9833 32.6131C52.0585 32.8011 52.1902 32.914 52.4159 32.914Z" fill="#36302B"/>
<path d="M54.6355 33.5324C54.5979 33.5324 54.5791 33.5136 54.5791 33.476V30.8055C54.5791 30.7679 54.5979 30.749 54.6355 30.749H55.3314C55.369 30.749 55.3878 30.7679 55.3878 30.8055V31.0311C55.4442 30.9183 55.5383 30.8431 55.6699 30.7679C55.7828 30.7114 55.9332 30.6738 56.1213 30.6738C56.2153 30.6738 56.2906 30.6926 56.3846 30.7114C56.4598 30.7302 56.5351 30.7679 56.6103 30.8243C56.6291 30.8431 56.6291 30.8807 56.6291 30.8995L56.3094 31.5013C56.2906 31.5201 56.2529 31.5201 56.2341 31.5201C56.1025 31.4261 55.9708 31.3885 55.8204 31.3885C55.6887 31.4073 55.5571 31.4449 55.5007 31.5577C55.4442 31.6518 55.4066 31.8022 55.4066 31.9903V33.4572C55.4066 33.4948 55.3878 33.5136 55.3502 33.5136L54.6355 33.5324Z" fill="#36302B"/>
<path d="M58.2466 33.5525C57.9269 33.5525 57.7012 33.4773 57.5695 33.3268C57.4379 33.1952 57.3815 32.9319 57.3815 32.6122V31.3334C57.3815 31.3146 57.3627 31.2958 57.3439 31.2958H57.1746C57.137 31.2958 57.1182 31.2769 57.1182 31.2393V30.7504C57.1182 30.7127 57.137 30.6939 57.1746 30.6939H57.3439C57.3627 30.6939 57.3815 30.6751 57.3815 30.6563V29.9041C57.3815 29.8665 57.4003 29.8477 57.4379 29.8477H58.1149C58.1526 29.8477 58.1714 29.8665 58.1714 29.9041V30.6563C58.1714 30.6751 58.1902 30.6939 58.209 30.6939H58.5475C58.5851 30.6939 58.6039 30.7127 58.6039 30.7504V31.2393C58.6039 31.2769 58.5851 31.2958 58.5475 31.2958H58.209C58.1902 31.2958 58.1714 31.3146 58.1714 31.3334V32.5746C58.1714 32.6686 58.1902 32.7438 58.2278 32.8003C58.2654 32.8379 58.3218 32.8567 58.4159 32.8567H58.5475C58.5851 32.8567 58.6039 32.8755 58.6039 32.9131V33.4961C58.6039 33.5337 58.5851 33.5525 58.5475 33.5525H58.2466Z" fill="#36302B"/>
<path d="M62.7407 33.5331C62.7031 33.5331 62.6843 33.5143 62.6843 33.4767V33.3075C62.6091 33.4015 62.5151 33.4767 62.4022 33.5331C62.2894 33.5895 62.1389 33.6084 61.932 33.6084C61.8192 33.6084 61.7064 33.5895 61.5935 33.5519C61.4807 33.5331 61.3866 33.4767 61.2926 33.4015C61.2174 33.3451 61.1421 33.251 61.1045 33.1382C61.0481 33.0442 61.0293 32.9125 61.0293 32.7433C61.0293 32.4424 61.1233 32.1979 61.3302 32.0662C61.5371 31.9346 61.838 31.8405 62.1577 31.8405H62.6655C62.6843 31.8405 62.7031 31.8217 62.7031 31.8029V31.7089C62.7031 31.5773 62.6655 31.4832 62.5903 31.4268C62.5151 31.3704 62.3646 31.3328 62.1201 31.3328C61.9885 31.3328 61.8568 31.3516 61.7628 31.3892C61.6687 31.4268 61.5935 31.4644 61.5183 31.5208C61.4995 31.5397 61.4619 31.5396 61.4431 31.502L61.1798 31.0319C61.1609 30.9943 61.1609 30.9755 61.1986 30.9567C61.3114 30.8814 61.4619 30.8062 61.6311 30.7686C61.8004 30.7122 61.9885 30.6934 62.233 30.6934C62.4775 30.6934 62.6655 30.7122 62.816 30.7498C62.9664 30.7874 63.0981 30.8438 63.2109 30.919C63.3238 30.9943 63.3802 31.0883 63.4178 31.2199C63.4554 31.3516 63.4742 31.4832 63.4742 31.6713V33.4391C63.4742 33.4767 63.4554 33.4955 63.4178 33.4955L62.7407 33.5331ZM62.1389 32.9877C62.4775 32.9877 62.6655 32.8561 62.6655 32.5928V32.4047C62.6655 32.3859 62.6467 32.3671 62.6279 32.3671H62.233C61.9132 32.3671 61.7252 32.4612 61.7252 32.668C61.7628 32.8749 61.8944 32.9877 62.1389 32.9877Z" fill="#36302B"/>
<path d="M66.1636 33.5324C66.126 33.5324 66.1072 33.5136 66.1072 33.476V31.8774C66.1072 31.727 66.0696 31.6141 66.0132 31.5201C65.9567 31.4261 65.8439 31.3885 65.6934 31.3885C65.543 31.3885 65.4489 31.4449 65.3737 31.5201C65.2985 31.6141 65.2609 31.727 65.2609 31.8774V33.476C65.2609 33.5136 65.2421 33.5324 65.2044 33.5324H64.5086C64.471 33.5324 64.4521 33.5136 64.4521 33.476V30.8055C64.4521 30.7679 64.471 30.749 64.5086 30.749H65.2044C65.2421 30.749 65.2609 30.7679 65.2609 30.8055V30.9935C65.3173 30.8995 65.4113 30.8431 65.5242 30.7679C65.637 30.7114 65.7875 30.6738 65.9755 30.6738C66.126 30.6738 66.2576 30.6926 66.3893 30.749C66.5021 30.8055 66.615 30.8619 66.6902 30.9559C66.7654 31.05 66.8219 31.144 66.8595 31.2756C66.8971 31.4073 66.9159 31.5389 66.9159 31.7082V33.4572C66.9159 33.4948 66.8971 33.5136 66.8595 33.5136H66.1636V33.5324Z" fill="#36302B"/>
<path d="M69.5684 33.534C69.5308 33.534 69.512 33.5152 69.512 33.4776V33.2896C69.4556 33.3836 69.3616 33.4588 69.2487 33.5152C69.1359 33.5717 68.9854 33.6093 68.7785 33.6093C68.5529 33.6093 68.346 33.5529 68.1767 33.44C68.0263 33.3272 67.9134 33.1767 67.8382 32.9323C67.8006 32.8194 67.7818 32.7066 67.7629 32.5937C67.7441 32.4809 67.7441 32.3304 67.7441 32.1424C67.7441 31.9543 67.7629 31.8039 67.7629 31.691C67.7818 31.597 67.8006 31.4653 67.8382 31.3525C67.9134 31.1268 68.0263 30.9576 68.1767 30.8447C68.3272 30.7319 68.5152 30.6755 68.7785 30.6755C68.9478 30.6755 69.1171 30.6943 69.2487 30.7695C69.3616 30.8447 69.4556 30.9012 69.512 30.9952V29.6599C69.512 29.6223 69.5308 29.6035 69.5684 29.6035H70.2643C70.3019 29.6035 70.3207 29.6223 70.3207 29.6599V33.4588C70.3207 33.4964 70.3019 33.5152 70.2643 33.5152L69.5684 33.534ZM69.0418 32.9134C69.2675 32.9134 69.3992 32.8194 69.4744 32.6125C69.4932 32.5561 69.4932 32.4997 69.512 32.4433C69.5308 32.3869 69.5308 32.274 69.5308 32.1612C69.5308 32.0483 69.5308 31.9355 69.512 31.8791C69.4932 31.8227 69.4932 31.7474 69.4744 31.7098C69.418 31.5218 69.2675 31.4089 69.0418 31.4089C68.835 31.4089 68.6845 31.503 68.6093 31.7098C68.5905 31.7663 68.5905 31.8227 68.5717 31.8791C68.5528 31.9355 68.5529 32.0483 68.5529 32.1612C68.5529 32.274 68.5528 32.3869 68.5717 32.4433C68.5905 32.4997 68.5905 32.5749 68.6093 32.6125C68.6657 32.8006 68.8162 32.9134 69.0418 32.9134Z" fill="#36302B"/>
<path d="M72.9717 29.6599C72.9717 29.6223 72.9905 29.6035 73.0281 29.6035H73.7616C73.7992 29.6035 73.818 29.6223 73.818 29.6599V32.7254C73.818 32.7442 73.8368 32.763 73.8556 32.763H75.5859C75.6235 32.763 75.6423 32.7818 75.6423 32.8194V33.4588C75.6423 33.4964 75.6235 33.5152 75.5859 33.5152H73.0469C73.0093 33.5152 72.9905 33.4964 72.9905 33.4588V29.6599H72.9717Z" fill="#36302B"/>
<path d="M77.5614 33.591C77.2605 33.591 77.016 33.5346 76.7903 33.4029C76.5646 33.2713 76.4329 33.0832 76.3389 32.8199C76.3201 32.7259 76.2825 32.6319 76.2825 32.519C76.2825 32.4062 76.2637 32.2933 76.2637 32.1617C76.2637 32.0301 76.2825 31.8984 76.2825 31.8044C76.3013 31.7104 76.3201 31.5975 76.3389 31.5035C76.4141 31.259 76.5646 31.0521 76.7903 30.9205C76.9972 30.7888 77.2605 30.7324 77.5614 30.7324C77.8623 30.7324 78.1068 30.7888 78.3325 30.9205C78.5393 31.0521 78.6898 31.2402 78.7838 31.5035C78.8026 31.5975 78.8403 31.6916 78.8403 31.8044C78.8591 31.8984 78.8591 32.0301 78.8591 32.1617C78.8591 32.2933 78.8403 32.425 78.8403 32.519C78.8403 32.6131 78.8026 32.7259 78.7838 32.8199C78.7086 33.0644 78.5582 33.2713 78.3325 33.4029C78.1256 33.5346 77.8435 33.591 77.5614 33.591ZM77.5614 32.914C77.7871 32.914 77.9187 32.8199 77.9939 32.6131C78.0127 32.5566 78.0127 32.4814 78.0315 32.425C78.0504 32.3686 78.0504 32.2745 78.0504 32.1617C78.0504 32.0489 78.0504 31.9548 78.0315 31.8984C78.0127 31.842 78.0127 31.7668 77.9939 31.7104C77.9375 31.5223 77.7871 31.4094 77.5614 31.4094C77.3545 31.4094 77.204 31.5035 77.1288 31.7104C77.11 31.7668 77.11 31.842 77.0912 31.8984C77.0724 31.9548 77.0724 32.0489 77.0724 32.1617C77.0724 32.2745 77.0724 32.3686 77.0912 32.425C77.11 32.4814 77.11 32.5566 77.1288 32.6131C77.1852 32.8011 77.3357 32.914 77.5614 32.914Z" fill="#36302B"/>
<path d="M80.7205 34.6413C80.6265 34.6413 80.5136 34.6225 80.4196 34.6225C80.3255 34.6036 80.2315 34.566 80.1187 34.5284C80.0246 34.4908 79.9494 34.4532 79.8554 34.3968C79.7801 34.3404 79.7237 34.3027 79.6673 34.2275C79.6485 34.2087 79.6485 34.1711 79.6673 34.1335L80.081 33.7009C80.0998 33.6821 80.1375 33.6821 80.1751 33.7009C80.2691 33.7762 80.3443 33.8326 80.4384 33.8702C80.5324 33.9078 80.6264 33.9266 80.7393 33.9266C80.9274 33.9266 81.0778 33.8702 81.1719 33.7762C81.2659 33.6821 81.3035 33.5129 81.3035 33.306V33.0803C81.2471 33.1744 81.153 33.2496 81.0402 33.306C80.9274 33.3624 80.7769 33.4 80.5888 33.4C80.3631 33.4 80.1563 33.3436 79.987 33.2308C79.8365 33.1179 79.7237 32.9675 79.6485 32.723C79.6297 32.629 79.5921 32.5161 79.5921 32.4221C79.5732 32.3281 79.5732 32.1964 79.5732 32.0272C79.5732 31.8579 79.5921 31.7639 79.5921 31.6322C79.5921 31.5006 79.6297 31.4254 79.6485 31.3313C79.7237 31.1057 79.8177 30.9364 79.987 30.8236C80.1375 30.7107 80.3255 30.6543 80.5888 30.6543C80.7581 30.6543 80.9086 30.6731 81.0402 30.7483C81.153 30.8047 81.2471 30.88 81.3035 30.974V30.7859C81.3035 30.7483 81.3223 30.7295 81.3599 30.7295H82.0558C82.0934 30.7295 82.1122 30.7483 82.1122 30.7859V33.212C82.1122 34.1523 81.6608 34.6413 80.7205 34.6413ZM80.8333 32.7418C80.9274 32.7418 81.0214 32.723 81.0966 32.6666C81.1531 32.6102 81.2095 32.5349 81.2283 32.4409C81.2471 32.3845 81.2471 32.3469 81.2659 32.2717C81.2847 32.2152 81.2847 32.14 81.2847 32.046C81.2847 31.9519 81.2847 31.8955 81.2659 31.8203C81.2471 31.7639 81.2471 31.7075 81.2283 31.651C81.2095 31.557 81.1531 31.4818 81.0966 31.4254C81.0402 31.3689 80.9462 31.3501 80.8333 31.3501C80.7205 31.3501 80.6453 31.3689 80.57 31.4254C80.5136 31.4818 80.4572 31.557 80.4384 31.651C80.4196 31.7075 80.4196 31.7451 80.4008 31.8203C80.382 31.8767 80.3819 31.9519 80.3819 32.046C80.3819 32.14 80.382 32.1964 80.4008 32.2717C80.4196 32.3281 80.4196 32.3845 80.4384 32.4409C80.476 32.5349 80.5136 32.6102 80.57 32.6666C80.6264 32.723 80.7205 32.7418 80.8333 32.7418Z" fill="#36302B"/>
<path d="M83.1658 30.2994C83.1282 30.2994 83.1094 30.2805 83.1094 30.2429V29.6599C83.1094 29.6223 83.1282 29.6035 83.1658 29.6035H83.8617C83.8993 29.6035 83.9181 29.6223 83.9181 29.6599V30.2429C83.9181 30.2805 83.8993 30.2994 83.8617 30.2994H83.1658ZM83.1658 33.534C83.1282 33.534 83.1094 33.5152 83.1094 33.4776V30.8071C83.1094 30.7695 83.1282 30.7507 83.1658 30.7507H83.8617C83.8993 30.7507 83.9181 30.7695 83.9181 30.8071V33.4776C83.9181 33.5152 83.8993 33.534 83.8617 33.534H83.1658Z" fill="#36302B"/>
<path d="M86.0056 33.5888C85.7235 33.5888 85.4602 33.5512 85.2533 33.4572C85.0465 33.3631 84.8584 33.2879 84.7456 33.1563C84.7267 33.1375 84.7267 33.0999 84.7456 33.081L85.1405 32.6485C85.1593 32.6297 85.1969 32.6297 85.2157 32.6485C85.3286 32.7425 85.479 32.8177 85.6295 32.8742C85.7611 32.9306 85.9304 32.9494 86.0809 32.9494C86.2313 32.9494 86.3254 32.9306 86.4006 32.8742C86.457 32.8177 86.4946 32.7613 86.4946 32.6861C86.4946 32.6297 86.4758 32.5733 86.4194 32.5357C86.363 32.498 86.2689 32.4792 86.1185 32.4604L85.8176 32.4228C85.5166 32.404 85.291 32.31 85.1405 32.1595C84.9901 32.0279 84.9148 31.821 84.9148 31.5577C84.9148 31.2944 85.0089 31.0499 85.2157 30.8995C85.4038 30.749 85.7047 30.6738 86.0621 30.6738C86.2877 30.6738 86.5322 30.6926 86.7015 30.7679C86.8896 30.8243 87.04 30.8995 87.1905 31.0123C87.2093 31.0311 87.2093 31.0688 87.1905 31.1064L86.8708 31.5013C86.852 31.5201 86.8143 31.5201 86.7955 31.5201C86.7015 31.4637 86.5887 31.4073 86.457 31.3697C86.3254 31.332 86.1937 31.3132 86.0244 31.3132C85.9116 31.3132 85.8176 31.332 85.7611 31.3697C85.7047 31.4073 85.6671 31.4637 85.6671 31.5389C85.6671 31.5953 85.6859 31.6518 85.7423 31.6894C85.7988 31.727 85.8928 31.7458 86.0433 31.7646L86.3442 31.8022C86.6639 31.821 86.9084 31.915 87.0588 32.0655C87.1905 32.1971 87.2657 32.404 87.2657 32.6485C87.2657 32.9306 87.1529 33.1751 86.946 33.3443C86.7391 33.5136 86.4194 33.5888 86.0056 33.5888Z" fill="#36302B"/>
<path d="M89.0523 33.5525C88.7325 33.5525 88.5068 33.4773 88.3752 33.3268C88.2435 33.1952 88.1871 32.9319 88.1871 32.6122V31.3334C88.1871 31.3146 88.1683 31.2958 88.1495 31.2958H87.9802C87.9426 31.2958 87.9238 31.2769 87.9238 31.2393V30.7504C87.9238 30.7127 87.9426 30.6939 87.9802 30.6939H88.1495C88.1683 30.6939 88.1871 30.6751 88.1871 30.6563V29.9041C88.1871 29.8665 88.2059 29.8477 88.2436 29.8477H88.9206C88.9582 29.8477 88.977 29.8665 88.977 29.9041V30.6563C88.977 30.6751 88.9958 30.6939 89.0146 30.6939H89.3532C89.3908 30.6939 89.4096 30.7127 89.4096 30.7504V31.2393C89.4096 31.2769 89.3908 31.2958 89.3532 31.2958H89.0146C88.9958 31.2958 88.977 31.3146 88.977 31.3334V32.5746C88.977 32.6686 88.9958 32.7438 89.0334 32.8003C89.0711 32.8379 89.1275 32.8567 89.2215 32.8567H89.3532C89.3908 32.8567 89.4096 32.8755 89.4096 32.9131V33.4961C89.4096 33.5337 89.3908 33.5525 89.3532 33.5525H89.0523Z" fill="#36302B"/>
<path d="M90.3308 30.2994C90.2932 30.2994 90.2744 30.2805 90.2744 30.2429V29.6599C90.2744 29.6223 90.2932 29.6035 90.3308 29.6035H91.0267C91.0643 29.6035 91.0831 29.6223 91.0831 29.6599V30.2429C91.0831 30.2805 91.0643 30.2994 91.0267 30.2994H90.3308ZM90.3308 33.534C90.2932 33.534 90.2744 33.5152 90.2744 33.4776V30.8071C90.2744 30.7695 90.2932 30.7507 90.3308 30.7507H91.0267C91.0643 30.7507 91.0831 30.7695 91.0831 30.8071V33.4776C91.0831 33.5152 91.0643 33.534 91.0267 33.534H90.3308Z" fill="#36302B"/>
<path d="M93.2271 33.5881C92.9262 33.5881 92.6817 33.5317 92.4749 33.4C92.268 33.2684 92.1363 33.0803 92.0235 32.7982C92.0047 32.723 91.9671 32.629 91.9671 32.5161C91.9482 32.4221 91.9482 32.2905 91.9482 32.1212C91.9482 31.9707 91.9671 31.8579 91.9671 31.7263C91.9859 31.6322 92.0047 31.5194 92.0235 31.4442C92.0987 31.1809 92.2492 30.974 92.4749 30.8424C92.6817 30.7107 92.945 30.6543 93.2271 30.6543C93.4528 30.6543 93.6973 30.7107 93.8666 30.7859C94.0358 30.88 94.1675 31.0116 94.2991 31.1809C94.318 31.1997 94.318 31.2373 94.2803 31.2561L93.7725 31.557C93.7349 31.5758 93.7161 31.5758 93.6785 31.5382C93.6221 31.463 93.5469 31.4066 93.4904 31.3689C93.434 31.3313 93.34 31.3125 93.2459 31.3125C93.1519 31.3125 93.0579 31.3313 92.9826 31.3878C92.9074 31.4442 92.851 31.5194 92.8322 31.6134C92.8134 31.6698 92.8134 31.7263 92.7946 31.8015C92.7758 31.8767 92.7758 31.9708 92.7758 32.0836C92.7758 32.1964 92.7758 32.2905 92.7946 32.3657C92.8134 32.4409 92.8134 32.4973 92.8322 32.5538C92.851 32.6478 92.9074 32.723 92.9826 32.7794C93.0579 32.8358 93.1519 32.8546 93.2459 32.8546C93.34 32.8546 93.4152 32.8358 93.4904 32.7982C93.5469 32.7606 93.6221 32.7042 93.6785 32.629C93.6973 32.6102 93.7349 32.5914 93.7725 32.6102L94.2803 32.9299C94.2991 32.9487 94.2991 32.9863 94.2991 33.0051C94.2051 33.1555 94.0735 33.2684 93.8666 33.4C93.6785 33.5317 93.4528 33.5881 93.2271 33.5881Z" fill="#36302B"/>
<path d="M98.0795 33.5876C97.929 33.5876 97.7786 33.5688 97.6093 33.55C97.4777 33.5312 97.3272 33.4935 97.1767 33.4371C97.0451 33.3807 96.9322 33.3431 96.8194 33.2679C96.7254 33.2115 96.6313 33.1362 96.5561 33.061C96.5373 33.0422 96.5373 33.0046 96.5561 32.967L96.9887 32.4592C97.0075 32.4404 97.0451 32.4404 97.0827 32.4592C97.2144 32.5532 97.3648 32.6473 97.5529 32.7225C97.7222 32.7977 97.9102 32.8353 98.1359 32.8353C98.3616 32.8353 98.4932 32.7977 98.6061 32.7037C98.7001 32.6096 98.7754 32.5156 98.7754 32.3652C98.7754 32.2523 98.7377 32.1583 98.6437 32.0831C98.5685 32.0078 98.3992 31.9514 98.1547 31.9326L97.9478 31.9138C97.5341 31.8574 97.2332 31.7445 97.0451 31.5565C96.857 31.3684 96.7442 31.0863 96.7442 30.7478C96.7442 30.5785 96.763 30.4093 96.8382 30.24C96.8946 30.1084 96.9887 29.9767 97.1015 29.8451C97.2144 29.7323 97.3648 29.6758 97.5341 29.6194C97.7033 29.563 97.8914 29.5254 98.1171 29.5254C98.3804 29.5254 98.6249 29.563 98.8506 29.6194C99.0763 29.6946 99.2831 29.7887 99.4524 29.9203C99.49 29.9391 99.49 29.9768 99.4712 30.0144L99.1327 30.5409C99.1139 30.5597 99.0763 30.5785 99.0575 30.5597C98.9258 30.4657 98.7565 30.3905 98.6061 30.3341C98.4744 30.2776 98.3052 30.2588 98.1359 30.2588C97.9666 30.2588 97.835 30.2965 97.741 30.3717C97.6469 30.4469 97.6093 30.5409 97.6093 30.6726C97.6093 30.7854 97.6469 30.8795 97.741 30.9359C97.835 31.0111 97.9855 31.0675 98.2111 31.0863L98.418 31.1051C98.8318 31.1616 99.1327 31.2744 99.3208 31.4624C99.5088 31.6505 99.6217 31.9326 99.6217 32.2899C99.6217 32.4592 99.6029 32.6285 99.5276 32.7977C99.4712 32.9482 99.3772 33.0798 99.2455 33.1926C99.1139 33.2867 98.9634 33.3807 98.7565 33.4559C98.5309 33.55 98.3428 33.5876 98.0795 33.5876Z" fill="#36302B"/>
<path d="M101.635 33.5867C101.334 33.5867 101.033 33.5302 100.845 33.3798C100.657 33.2293 100.506 33.0413 100.412 32.778C100.393 32.6839 100.356 32.6087 100.356 32.4959C100.337 32.4018 100.337 32.2702 100.337 32.1009C100.337 31.9693 100.356 31.8377 100.356 31.706C100.375 31.612 100.393 31.518 100.412 31.4239C100.487 31.1794 100.638 30.9726 100.845 30.8221C101.052 30.6905 101.315 30.6152 101.597 30.6152C101.898 30.6152 102.161 30.6717 102.368 30.8221C102.575 30.9538 102.707 31.1418 102.801 31.4051C102.819 31.4615 102.819 31.4991 102.838 31.5368C102.857 31.5932 102.857 31.6308 102.857 31.706C102.876 31.7624 102.876 31.8377 102.876 31.9317C102.876 32.0257 102.876 32.1009 102.876 32.2326C102.876 32.2702 102.857 32.289 102.819 32.289H101.127C101.108 32.289 101.089 32.3078 101.089 32.3266C101.089 32.383 101.108 32.4207 101.127 32.4771C101.164 32.5899 101.221 32.6839 101.334 32.7404C101.447 32.7968 101.559 32.8344 101.691 32.8344C101.823 32.8344 101.954 32.8156 102.048 32.778C102.142 32.7404 102.236 32.6839 102.312 32.6087C102.349 32.5899 102.368 32.5899 102.387 32.6087L102.782 32.9472C102.801 32.966 102.801 33.0037 102.782 33.0225C102.65 33.1541 102.481 33.2858 102.274 33.361C102.124 33.5302 101.898 33.5867 101.635 33.5867ZM102.067 31.8377C102.086 31.8377 102.105 31.8189 102.105 31.8C102.105 31.7624 102.105 31.7248 102.086 31.6872C102.067 31.6496 102.067 31.6308 102.067 31.5932C102.048 31.4991 101.973 31.4239 101.898 31.3675C101.823 31.3111 101.729 31.2923 101.597 31.2923C101.465 31.2923 101.39 31.3111 101.296 31.3675C101.221 31.4239 101.164 31.4991 101.127 31.5932C101.108 31.612 101.108 31.6496 101.108 31.6872C101.108 31.706 101.089 31.7436 101.089 31.8C101.089 31.8189 101.108 31.8377 101.127 31.8377H102.067Z" fill="#36302B"/>
<path d="M103.798 33.5324C103.76 33.5324 103.741 33.5136 103.741 33.476V30.8055C103.741 30.7679 103.76 30.749 103.798 30.749H104.493C104.531 30.749 104.55 30.7679 104.55 30.8055V31.0311C104.606 30.9183 104.7 30.8431 104.832 30.7679C104.945 30.7114 105.095 30.6738 105.283 30.6738C105.377 30.6738 105.453 30.6926 105.547 30.7114C105.641 30.7302 105.697 30.7679 105.772 30.8243C105.791 30.8431 105.791 30.8807 105.791 30.8995L105.471 31.5013C105.453 31.5201 105.415 31.5201 105.396 31.5201C105.265 31.4261 105.133 31.3885 104.982 31.3885C104.851 31.4073 104.719 31.4449 104.663 31.5577C104.606 31.6706 104.569 31.8022 104.569 31.9903V33.4572C104.569 33.4948 104.55 33.5136 104.512 33.5136L103.798 33.5324Z" fill="#36302B"/>
<path d="M107.276 33.5314C107.238 33.5314 107.22 33.5126 107.22 33.475L106.223 30.8045C106.204 30.7669 106.223 30.748 106.279 30.748H106.994C107.032 30.748 107.05 30.7669 107.069 30.8045L107.615 32.4406H107.633L108.16 30.8045C108.179 30.7669 108.198 30.748 108.235 30.748H108.95C108.988 30.748 109.006 30.7669 109.006 30.8045L108.01 33.475C107.991 33.5126 107.972 33.5314 107.953 33.5314H107.276Z" fill="#36302B"/>
<path d="M109.721 30.2994C109.684 30.2994 109.665 30.2805 109.665 30.2429V29.6599C109.665 29.6223 109.684 29.6035 109.721 29.6035H110.417C110.455 29.6035 110.474 29.6223 110.474 29.6599V30.2429C110.474 30.2805 110.455 30.2994 110.417 30.2994H109.721ZM109.721 33.534C109.684 33.534 109.665 33.5152 109.665 33.4776V30.8071C109.665 30.7695 109.684 30.7507 109.721 30.7507H110.417C110.455 30.7507 110.474 30.7695 110.474 30.8071V33.4776C110.474 33.5152 110.455 33.534 110.417 33.534H109.721Z" fill="#36302B"/>
<path d="M112.636 33.5881C112.335 33.5881 112.091 33.5317 111.884 33.4C111.677 33.2684 111.545 33.0803 111.433 32.7982C111.414 32.723 111.376 32.629 111.376 32.5161C111.357 32.4221 111.357 32.2905 111.357 32.1212C111.357 31.9707 111.376 31.8579 111.376 31.7263C111.395 31.6322 111.414 31.5194 111.433 31.4442C111.508 31.1809 111.658 30.974 111.884 30.8424C112.091 30.7107 112.354 30.6543 112.636 30.6543C112.862 30.6543 113.106 30.7107 113.276 30.7859C113.445 30.88 113.577 31.0116 113.708 31.1809C113.727 31.1997 113.727 31.2373 113.69 31.2561L113.182 31.5758C113.144 31.5946 113.125 31.5946 113.088 31.557C113.031 31.4818 112.956 31.4254 112.9 31.3878C112.843 31.3501 112.749 31.3313 112.655 31.3313C112.561 31.3313 112.467 31.3501 112.392 31.4066C112.317 31.463 112.26 31.5382 112.241 31.6322C112.223 31.6887 112.223 31.7451 112.204 31.8203C112.185 31.8955 112.185 31.9896 112.185 32.1024C112.185 32.2152 112.185 32.3093 112.204 32.3845C112.223 32.4597 112.223 32.5161 112.241 32.5726C112.26 32.6666 112.317 32.7418 112.392 32.7982C112.467 32.8547 112.561 32.8735 112.655 32.8735C112.749 32.8735 112.824 32.8546 112.9 32.817C112.956 32.7794 113.031 32.723 113.088 32.6478C113.106 32.629 113.144 32.6102 113.182 32.629L113.69 32.9487C113.708 32.9675 113.708 33.0051 113.708 33.0239C113.614 33.1744 113.483 33.2872 113.276 33.4188C113.088 33.5317 112.881 33.5881 112.636 33.5881Z" fill="#36302B"/>
<path d="M115.702 33.5867C115.401 33.5867 115.1 33.5302 114.912 33.3798C114.724 33.2293 114.574 33.0413 114.48 32.778C114.461 32.6839 114.423 32.6087 114.423 32.4959C114.404 32.4018 114.404 32.2702 114.404 32.1009C114.404 31.9693 114.423 31.8377 114.423 31.706C114.442 31.612 114.461 31.518 114.48 31.4239C114.555 31.1794 114.705 30.9726 114.912 30.8221C115.119 30.6905 115.382 30.6152 115.664 30.6152C115.965 30.6152 116.229 30.6717 116.435 30.8221C116.642 30.9538 116.774 31.1418 116.868 31.4051C116.887 31.4615 116.887 31.4991 116.906 31.5368C116.924 31.5932 116.924 31.6308 116.924 31.706C116.943 31.7624 116.943 31.8377 116.943 31.9317C116.943 32.0257 116.943 32.1009 116.943 32.2326C116.943 32.2702 116.924 32.289 116.887 32.289H115.213C115.194 32.289 115.175 32.3078 115.175 32.3266C115.175 32.383 115.194 32.4207 115.213 32.4771C115.251 32.5899 115.307 32.6839 115.42 32.7404C115.533 32.7968 115.646 32.8344 115.777 32.8344C115.909 32.8344 116.041 32.8156 116.135 32.778C116.229 32.7404 116.323 32.6839 116.398 32.6087C116.435 32.5899 116.454 32.5899 116.473 32.6087L116.868 32.9472C116.887 32.966 116.887 33.0037 116.868 33.0225C116.736 33.1541 116.567 33.2858 116.36 33.361C116.191 33.5302 115.984 33.5867 115.702 33.5867ZM116.153 31.8377C116.172 31.8377 116.191 31.8189 116.191 31.8C116.191 31.7624 116.191 31.7248 116.172 31.6872C116.153 31.6496 116.153 31.6308 116.153 31.5932C116.135 31.4991 116.059 31.4239 115.984 31.3675C115.909 31.3111 115.815 31.2923 115.683 31.2923C115.57 31.2923 115.476 31.3111 115.382 31.3675C115.307 31.4239 115.251 31.4991 115.213 31.5932C115.194 31.612 115.194 31.6496 115.194 31.6872C115.194 31.706 115.175 31.7436 115.175 31.8C115.175 31.8189 115.194 31.8377 115.213 31.8377H116.153Z" fill="#36302B"/>
<path d="M118.918 33.5888C118.636 33.5888 118.372 33.5512 118.165 33.4572C117.959 33.3631 117.771 33.2879 117.658 33.1563C117.639 33.1375 117.639 33.0999 117.658 33.081L118.053 32.6485C118.071 32.6297 118.109 32.6297 118.128 32.6485C118.241 32.7425 118.391 32.8177 118.542 32.8742C118.673 32.9306 118.843 32.9494 118.993 32.9494C119.125 32.9494 119.237 32.9306 119.313 32.8742C119.369 32.8177 119.407 32.7613 119.407 32.6861C119.407 32.6297 119.388 32.5733 119.332 32.5357C119.275 32.498 119.181 32.4792 119.031 32.4604L118.73 32.4228C118.429 32.404 118.203 32.31 118.053 32.1595C117.902 32.0091 117.827 31.821 117.827 31.5577C117.827 31.2944 117.921 31.0499 118.128 30.8995C118.335 30.749 118.617 30.6738 118.974 30.6738C119.2 30.6738 119.444 30.6926 119.614 30.7679C119.802 30.8243 119.952 30.8995 120.103 31.0123C120.121 31.0311 120.121 31.0688 120.103 31.1064L119.783 31.5013C119.764 31.5201 119.726 31.5201 119.708 31.5201C119.614 31.4637 119.501 31.4073 119.369 31.3697C119.237 31.332 119.106 31.3132 118.937 31.3132C118.824 31.3132 118.73 31.332 118.673 31.3697C118.617 31.4073 118.579 31.4637 118.579 31.5389C118.579 31.5953 118.598 31.6518 118.654 31.6894C118.711 31.727 118.805 31.7458 118.955 31.7646L119.256 31.8022C119.576 31.821 119.82 31.915 119.971 32.0655C120.103 32.1971 120.178 32.404 120.178 32.6485C120.178 32.9306 120.065 33.1751 119.858 33.3443C119.651 33.5136 119.313 33.5888 118.918 33.5888Z" fill="#36302B"/>
<path d="M137.142 19.6719H135.299V24.4863H137.142V19.6719Z" fill="#00665E"/>
<path d="M137.142 13.7109H135.299V19.0143H137.142V13.7109Z" fill="#00665E"/>
<path d="M136.954 9.47901L136.822 9.23452C136.728 9.10287 136.653 8.95242 136.577 8.80197C136.483 8.63272 136.371 8.46345 136.258 8.27539C136.145 8.44465 136.032 8.61391 135.938 8.80197C135.863 8.93362 135.769 9.08407 135.694 9.23452L135.468 9.66707L135.317 9.94917V13.1274H137.16V9.81752L137.085 9.68587L136.954 9.47901Z" fill="#00665E"/>
<path d="M140.621 26.6504V28.7567C140.621 30.863 139.135 32.6308 137.142 33.0634V29.5654H135.299V33.0634C133.305 32.6308 131.819 30.8818 131.819 28.7567V26.6504L130.146 29.6782L130.164 29.7346C130.616 32.4428 132.741 34.4739 135.393 34.85L136.239 35.433L137.104 34.8312C139.737 34.4739 141.844 32.4428 142.295 29.7346L142.314 29.6782L140.621 26.6504Z" fill="#00665E"/>
<path d="M136.484 5.11535L136.258 4.87086L136.183 4.79563L136.108 4.72041C135.995 4.58876 135.882 4.47592 135.769 4.32547C135.525 4.08099 135.261 3.83651 135.017 3.61083C134.754 3.38516 134.509 3.15948 134.265 2.95261C134.001 2.76454 133.757 2.55767 133.512 2.36961C133.268 2.20035 133.005 2.0311 132.76 1.86184C132.516 1.71139 132.29 1.56093 132.045 1.42929C131.82 1.29764 131.575 1.18481 131.368 1.07197C131.161 0.959129 130.936 0.865096 130.748 0.771064C130.353 0.601806 130.014 0.43255 129.713 0.319711C129.111 0.112841 128.811 0 128.811 0C128.811 0 129.074 0.244488 129.544 0.639422C129.77 0.827487 130.052 1.09077 130.372 1.35406C130.691 1.61735 131.049 1.95587 131.406 2.29438C131.594 2.46364 131.801 2.6329 131.989 2.83977C132.177 3.02783 132.422 3.23471 132.61 3.44158C132.816 3.64845 133.023 3.87412 133.249 4.08099C133.418 4.28786 133.644 4.49473 133.832 4.7016C134.434 4.79563 134.998 4.90848 135.525 5.04012L135.75 5.09654L135.826 5.11535L135.863 5.13415L135.976 5.15296L136.108 5.19057L136.202 5.20938L136.296 5.19057L136.484 5.13415V5.11535Z" fill="#00665E"/>
<path d="M136.671 4.96562L136.765 5.09726L136.935 5.04084C137.518 4.89039 138.119 4.77755 138.74 4.68352C138.909 4.49546 139.097 4.28859 139.285 4.08172C139.492 3.87485 139.718 3.64917 139.925 3.4423C140.113 3.23543 140.357 3.04736 140.546 2.84049C140.734 2.65243 140.94 2.44556 141.147 2.29511C141.542 1.95659 141.881 1.61808 142.201 1.37359C142.52 1.1103 142.802 0.847012 143.028 0.658948C143.498 0.264013 143.762 0.0195312 143.762 0.0195312C143.762 0.0195312 143.423 0.113564 142.84 0.320435C142.539 0.414467 142.201 0.564916 141.806 0.75298C141.618 0.847012 141.392 0.922239 141.166 1.05388C140.959 1.16672 140.734 1.27956 140.489 1.4112C140.263 1.52404 140.019 1.6745 139.774 1.84375C139.53 1.99421 139.267 2.14465 139.022 2.35152C138.778 2.52078 138.514 2.70885 138.27 2.93452C138.025 3.14139 137.762 3.36707 137.518 3.57394C137.273 3.79962 137.01 4.0441 136.765 4.28859C136.652 4.40143 136.54 4.53307 136.427 4.68352L136.558 4.85278L136.671 4.96562Z" fill="#00665E"/>
<path d="M140.263 14.3488C140.244 13.8034 140.169 13.2204 140.075 12.6186C139.981 11.998 139.812 11.3585 139.605 10.7003C139.455 10.1925 139.266 9.68477 139.022 9.17699L138.025 8.68803C137.894 8.63161 137.762 8.57519 137.63 8.51877C137.405 8.42474 137.179 8.33071 136.953 8.25548L136.633 8.12383L136.389 8.0298L136.295 7.99219L136.351 8.08622C136.483 8.29309 136.615 8.49996 136.746 8.70683C136.822 8.83848 136.916 8.98893 136.991 9.13938C137.066 9.27102 137.141 9.42148 137.216 9.57193C137.367 9.85403 137.499 10.1549 137.668 10.437C137.799 10.7191 137.931 11.02 138.063 11.3021C138.307 11.8851 138.533 12.4493 138.721 12.9759C138.89 13.5213 139.06 14.0479 139.191 14.5368C139.455 15.5148 139.624 16.361 139.737 16.9628C139.774 17.2637 139.812 17.5082 139.831 17.6775C139.849 17.8467 139.849 17.922 139.849 17.922C139.849 17.922 139.868 17.8467 139.925 17.6775C139.962 17.527 140.019 17.2826 140.075 16.9628C140.132 16.6619 140.188 16.2858 140.207 15.8345C140.282 15.3831 140.282 14.8753 140.263 14.3488Z" fill="#00665E"/>
<path d="M136.182 7.97266L136.088 8.01027L135.806 8.12311L135.487 8.25475C135.261 8.34878 135.035 8.42401 134.809 8.51804C134.678 8.57446 134.546 8.63088 134.415 8.6873L133.455 9.15746C133.23 9.66523 133.023 10.173 132.854 10.6808C132.647 11.339 132.496 11.9784 132.365 12.5802C132.27 13.2008 132.195 13.7838 132.158 14.3104C132.139 14.8558 132.139 15.3448 132.158 15.7773C132.176 16.2099 132.233 16.586 132.289 16.9057C132.327 17.2066 132.383 17.4511 132.421 17.6203C132.459 17.7708 132.496 17.8648 132.496 17.8648C132.496 17.8648 132.515 17.7708 132.515 17.6203C132.534 17.4699 132.571 17.2066 132.609 16.9057C132.703 16.3039 132.872 15.4576 133.154 14.4797C133.286 13.9907 133.455 13.4829 133.662 12.9187C133.85 12.3734 134.095 11.7904 134.339 11.245C134.471 10.9629 134.603 10.662 134.753 10.3799C134.885 10.0978 135.035 9.79687 135.204 9.51478C135.28 9.38313 135.355 9.23268 135.43 9.08223C135.524 8.95059 135.599 8.81894 135.675 8.64968C135.787 8.44281 135.919 8.23594 136.07 8.02907L136.182 7.97266Z" fill="#00665E"/>
<path d="M135.713 5.32323L135.6 5.30443L135.468 5.26681C134.998 5.13517 134.528 5.04114 134.039 4.96591L133.87 4.94711L133.7 4.9283C133.475 4.90949 133.268 4.87188 133.042 4.83427C132.365 4.75904 131.669 4.74023 131.03 4.74023H130.748C130.033 4.75904 129.337 4.81546 128.716 4.90949C128.077 5.00352 127.513 5.11636 127.043 5.24801C126.535 5.37965 126.14 5.5113 125.782 5.66175C125.444 5.77459 125.181 5.92504 125.011 6.00027C124.842 6.0943 124.748 6.13191 124.748 6.13191C124.748 6.13191 124.842 6.1131 125.049 6.1131C125.237 6.09429 125.519 6.0943 125.876 6.07549C126.102 6.07549 126.347 6.05668 126.629 6.05668C127.231 6.05668 127.964 6.07549 128.773 6.13191C129.375 6.16952 130.014 6.24475 130.672 6.31997C131.331 6.414 132.008 6.52684 132.703 6.67729C132.892 6.58326 133.117 6.47042 133.324 6.35759C133.456 6.30117 133.587 6.24475 133.719 6.18833C133.964 6.07549 134.227 5.96265 134.49 5.84981L134.584 5.8122L134.678 5.77459L134.791 5.73697C134.979 5.66175 135.186 5.60533 135.393 5.5113L135.581 5.45488L135.656 5.43607L135.769 5.39846L135.713 5.32323Z" fill="#85AF9A"/>
<path d="M147.148 13.8253C146.978 13.5244 146.715 13.1482 146.414 12.7533C146.282 12.5464 146.113 12.3208 145.925 12.1139C145.756 11.8882 145.53 11.6625 145.342 11.4369C145.154 11.1924 144.909 10.9667 144.684 10.7222C144.458 10.4965 144.214 10.2144 143.931 9.98877C143.668 9.74429 143.386 9.481 143.104 9.23651C142.822 9.01084 142.502 8.76636 142.201 8.52187C141.9 8.2962 141.543 8.05171 141.223 7.82603C140.885 7.60036 140.527 7.39349 140.17 7.18662C140.038 7.11139 139.888 7.03616 139.737 6.96094C139.399 7.03616 139.042 7.1302 138.741 7.20542C138.609 7.24304 138.477 7.28065 138.346 7.29946L138.327 7.31826L138.233 7.33707L138.139 7.35587C137.988 7.39349 137.838 7.44991 137.669 7.48752L137.123 7.65678C136.935 7.7132 136.766 7.78842 136.597 7.82603C136.766 7.88245 136.935 7.95768 137.104 8.0329C137.443 8.16455 137.819 8.33381 138.158 8.50306C138.421 8.6159 138.665 8.74755 138.929 8.86039L139.079 8.93561L139.192 8.99203L139.23 9.01084C139.549 9.1801 139.869 9.34935 140.189 9.51861C140.509 9.68787 140.828 9.87593 141.148 10.064C141.449 10.2521 141.769 10.4589 142.051 10.6282C142.352 10.8163 142.653 11.0231 142.916 11.2112C143.198 11.3804 143.461 11.6061 143.725 11.7754C143.988 11.9446 144.251 12.1139 144.477 12.3208C144.966 12.6593 145.398 12.9978 145.793 13.3175C146.188 13.6184 146.527 13.8817 146.79 14.1074C147.336 14.5587 147.674 14.8032 147.674 14.8032C147.674 14.8032 147.505 14.4459 147.148 13.8253Z" fill="#85AF9A"/>
<path d="M147.43 5.96316C147.26 5.88793 146.997 5.75629 146.659 5.62464C146.32 5.493 145.906 5.36135 145.399 5.2109C144.91 5.07926 144.345 4.96642 143.725 4.87239C143.085 4.77836 142.408 4.74074 141.694 4.70312H141.411C140.772 4.70312 140.095 4.72193 139.399 4.79716C139.23 4.81596 139.042 4.83477 138.854 4.85358L138.684 4.87239L138.515 4.89119C138.007 4.96641 137.5 5.06045 136.992 5.19209L136.917 5.2109L136.804 5.22971L136.691 5.24852L136.634 5.26732L136.446 5.32374L136.428 5.34255L136.277 5.39896C136.145 5.45538 135.976 5.493 135.826 5.53061L135.619 5.58703L135.431 5.64345L135.243 5.71868L134.942 5.83151L134.848 5.86912L134.754 5.90674L134.697 5.92554C134.302 6.07599 133.926 6.26406 133.531 6.45212C133.4 6.50854 133.287 6.58377 133.136 6.64019L133.005 6.71541L132.798 6.88467C132.666 6.95989 132.516 7.03512 132.365 7.11035C132.008 7.31722 131.651 7.54289 131.312 7.74976C130.973 7.97544 130.635 8.21993 130.334 8.4456C130.033 8.69009 129.713 8.93457 129.431 9.16025C129.149 9.40473 128.867 9.66802 128.604 9.9125C128.34 10.1382 128.096 10.4203 127.851 10.6648C127.607 10.9092 127.381 11.1349 127.193 11.3794C127.005 11.6051 126.798 11.8496 126.61 12.0752C126.441 12.3009 126.29 12.5266 126.121 12.7147C125.82 13.1284 125.576 13.4857 125.388 13.7866C124.993 14.4072 124.805 14.7646 124.805 14.7646C124.805 14.7646 125.143 14.5201 125.689 14.0687C125.952 13.843 126.309 13.5797 126.685 13.2788C127.062 12.9779 127.513 12.6394 128.002 12.2821C128.228 12.1129 128.51 11.9248 128.754 11.7367C129.018 11.5675 129.281 11.3418 129.563 11.1725C129.845 11.0033 130.146 10.7776 130.428 10.5895C130.729 10.4203 131.049 10.1946 131.331 10.0253C131.632 9.85608 131.97 9.66802 132.29 9.47996C132.61 9.29189 132.967 9.14144 133.287 8.95337L133.437 8.87815L133.588 8.80292C133.813 8.69009 134.077 8.57724 134.302 8.46441C134.641 8.33276 135.017 8.1635 135.356 7.99425C135.525 7.93783 135.694 7.86261 135.882 7.78738L135.939 7.76857L136.033 7.73096L136.127 7.69335L136.183 7.67454L136.352 7.61812L136.409 7.59932L136.503 7.5617L136.672 7.50528L136.935 7.41125C137.105 7.35483 137.293 7.29841 137.481 7.24199C137.612 7.20438 137.744 7.16677 137.913 7.12916L138.007 7.11035L138.12 7.09154C138.252 7.05393 138.421 7.01631 138.572 6.95989C138.835 6.90347 139.098 6.82825 139.361 6.79064L139.512 6.75303L139.644 6.73422L139.662 6.71541C140.358 6.56496 141.054 6.45212 141.712 6.35809C142.389 6.26406 143.01 6.20764 143.612 6.17003C144.421 6.11361 145.154 6.0948 145.756 6.0948C146.019 6.0948 146.283 6.0948 146.508 6.11361C146.847 6.13241 147.148 6.13241 147.336 6.15122C147.524 6.17003 147.637 6.17003 147.637 6.17003C147.637 6.17003 147.618 6.03838 147.43 5.96316Z" fill="#85AF9A"/>
<path d="M137.8 22.0621V25.2216H134.64V22.0621L120.403 13.3359C120.403 13.5616 120.497 13.7685 120.685 13.9001L132.797 22.8332V28.5691C132.797 29.8292 133.474 30.9951 134.584 31.5593L134.603 31.5781L134.622 31.597V28.8888H137.781V31.597L137.8 31.5781L137.819 31.5593C138.947 30.9951 139.605 29.8292 139.605 28.5691V22.8332L151.717 13.9001C151.887 13.7685 151.999 13.5616 151.999 13.3359L137.8 22.0621ZM134.64 26.2371H137.8V27.8357H134.64V26.2371Z" fill="#85AF9A"/>
</svg>
