<?xml version="1.0" standalone="no"?>
<!DOCTYPE svg PUBLIC "-//W3C//DTD SVG 20010904//EN"
 "http://www.w3.org/TR/2001/REC-SVG-20010904/DTD/svg10.dtd">
<svg version="1.0" xmlns="http://www.w3.org/2000/svg"
 width="1536.000000pt" height="1024.000000pt" viewBox="0 0 1536.000000 1024.000000"
 preserveAspectRatio="xMidYMid meet">

<g transform="translate(0.000000,1024.000000) scale(0.100000,-0.100000)"
fill="#000000" stroke="none">
<path d="M4470 7434 c-125 -16 -256 -46 -365 -85 -91 -32 -175 -68 -175 -75 0
-2 17 3 38 12 50 22 140 55 177 65 17 4 64 17 105 29 140 39 499 64 604 41 16
-3 -65 -6 -180 -7 -175 0 -226 -4 -311 -22 -113 -25 -269 -73 -311 -97 -15 -9
-18 -13 -7 -9 276 96 381 115 620 117 261 1 407 -30 610 -128 162 -79 251
-156 472 -414 194 -226 502 -564 720 -793 70 -73 216 -228 323 -343 407 -437
545 -581 912 -950 208 -209 378 -381 378 -382 0 -2 -118 -3 -263 -3 l-263 0
-144 157 c-259 281 -362 395 -565 623 -194 218 -547 608 -651 720 -28 30 -87
96 -130 145 -44 50 -117 131 -165 180 -47 50 -125 136 -173 193 -207 240 -443
394 -676 441 -30 6 -68 13 -85 17 -16 3 -92 8 -168 11 -155 6 -270 -6 -413
-43 -379 -98 -737 -412 -823 -724 -68 -244 -41 -493 73 -693 111 -194 271
-338 469 -423 163 -70 301 -94 507 -89 478 13 895 260 1130 669 26 44 54 82
62 84 30 6 258 -200 258 -232 0 -31 -115 -216 -206 -330 -220 -277 -486 -473
-776 -570 -204 -68 -285 -80 -548 -80 -246 -1 -278 3 -440 51 -326 96 -661
364 -826 660 -124 221 -176 418 -198 743 -2 30 -2 -6 0 -80 3 -116 18 -238 39
-314 5 -16 4 -18 -4 -6 -5 8 -18 53 -27 101 -10 48 -21 86 -25 83 -4 -2 -7 30
-8 71 0 42 -5 84 -11 95 -27 50 8 293 64 456 92 264 196 435 395 650 42 44 34
38 -21 -18 -283 -286 -447 -662 -473 -1088 -8 -123 9 -324 36 -447 11 -49 20
-96 20 -105 0 -10 3 -18 7 -18 4 0 8 -17 9 -37 1 -21 8 -40 17 -45 9 -5 16
-17 15 -26 0 -14 -2 -14 -10 3 -25 53 4 -53 47 -171 110 -305 260 -544 459
-732 200 -189 383 -282 685 -348 216 -46 544 -37 768 23 31 8 64 16 72 18 57
12 204 75 294 125 59 33 112 57 118 54 7 -4 8 -2 4 4 -3 6 2 16 13 22 96 51
394 316 509 454 143 169 260 358 269 435 7 59 -19 126 -109 284 -53 94 -83
132 -188 240 -133 137 -160 157 -212 157 -46 -1 -65 -19 -152 -153 -124 -190
-288 -346 -471 -449 -211 -119 -484 -175 -730 -149 -239 26 -412 99 -565 239
-56 51 -78 80 -112 149 -41 82 -43 91 -43 172 0 162 81 333 228 481 91 92 201
175 218 164 8 -4 9 -3 5 4 -3 6 2 16 13 21 26 14 31 14 31 -3 0 -11 6 -10 34
3 30 15 30 36 -1 24 -7 -3 -13 -2 -13 1 0 10 132 68 138 61 3 -3 1 -5 -4 -5
-6 0 -19 -7 -30 -15 -17 -13 -16 -13 16 -4 19 6 45 13 58 16 31 7 38 23 10 24
-15 1 -8 6 22 15 74 24 170 41 176 32 3 -4 13 -8 22 -8 13 0 14 2 4 9 -15 9
32 22 72 20 19 -1 18 -2 -4 -9 -41 -13 2 -11 46 3 56 16 307 5 393 -18 94 -25
206 -75 312 -140 130 -80 283 -234 669 -675 52 -59 156 -175 231 -256 74 -82
193 -216 264 -299 71 -82 181 -208 245 -280 164 -183 522 -595 603 -692 49
-59 78 -85 105 -94 27 -10 129 -13 375 -14 l339 0 19 24 c10 13 19 37 19 53 0
76 -76 279 -140 374 -18 27 -252 270 -520 539 -267 270 -592 603 -720 740
-129 138 -309 329 -400 425 -144 151 -362 383 -599 635 -37 39 -102 111 -145
160 -132 151 -237 254 -326 321 -280 211 -644 298 -1040 248z m580 -44 c20 -6
21 -8 5 -8 -11 0 -31 4 -45 8 -20 6 -21 8 -5 8 11 0 31 -4 45 -8z m-307 -547
c-13 -2 -35 -2 -50 0 -16 2 -5 4 22 4 28 0 40 -2 28 -4z m377 -42 c19 -4 51
-15 70 -24 19 -9 51 -22 70 -29 48 -18 180 -91 180 -101 0 -4 17 -22 37 -40
82 -70 211 -198 322 -318 188 -203 305 -331 352 -384 24 -27 71 -79 105 -115
33 -36 116 -128 184 -205 110 -124 179 -200 245 -270 11 -11 55 -61 98 -110
43 -50 92 -104 108 -121 16 -17 26 -33 22 -37 -3 -4 -1 -7 4 -7 6 0 71 -69
144 -152 73 -84 167 -189 209 -233 41 -44 110 -119 153 -166 43 -48 91 -92
107 -99 30 -12 41 -39 18 -41 -7 0 -4 -4 7 -9 11 -5 143 -9 294 -9 151 -1 272
-3 270 -6 -3 -2 -127 -7 -276 -10 -220 -6 -276 -4 -297 7 -15 8 -63 54 -108
103 -319 353 -540 599 -699 781 -101 116 -290 327 -419 469 -129 143 -318 352
-419 465 -407 455 -528 554 -789 647 -89 31 -88 34 8 14z m-790 -35 c-52 -18
-120 -45 -150 -61 -47 -23 -52 -24 -33 -6 12 12 26 21 30 21 4 0 51 18 103 40
52 22 106 39 120 39 14 0 -18 -15 -70 -33z m-230 -100 c0 -2 -24 -19 -52 -37
-119 -77 -219 -173 -311 -302 -74 -101 -101 -160 -132 -279 -13 -51 -24 -84
-24 -73 -1 40 39 175 70 237 70 141 223 312 359 402 86 57 90 59 90 52z m-523
-798 c-2 -18 -4 -6 -4 27 0 33 2 48 4 33 2 -15 2 -42 0 -60z m-560 -40 c-3 -8
-6 -5 -6 6 -1 11 2 17 5 13 3 -3 4 -12 1 -19z m110 -410 c-3 -8 -6 -5 -6 6 -1
11 2 17 5 13 3 -3 4 -12 1 -19z m-4 -93 l6 -40 -15 28 c-9 16 -13 36 -10 44 9
21 12 15 19 -32z m57 -133 c18 -35 31 -65 28 -67 -2 -2 -21 30 -42 73 -44 91
-33 86 14 -6z m-40 -129 c25 -69 150 -292 215 -383 91 -129 241 -277 370 -366
49 -33 87 -72 81 -83 -8 -12 53 -46 171 -96 51 -21 91 -41 89 -42 -9 -10 -219
83 -305 134 -239 143 -401 321 -526 577 -55 112 -125 284 -125 309 0 20 11 2
30 -50z m145 -47 c30 -41 52 -63 61 -59 8 3 14 0 14 -7 0 -6 -5 -8 -11 -4 -6
3 -3 -5 6 -20 9 -14 21 -23 26 -21 4 3 17 -3 28 -14 11 -11 22 -17 25 -13 3 3
6 -2 6 -10 0 -19 60 -69 72 -62 6 4 8 -8 6 -26 -3 -29 3 -37 52 -77 l55 -46
-55 52 c-32 29 -48 51 -39 51 8 0 37 -20 63 -45 27 -25 53 -45 57 -45 5 0 9
-5 9 -11 0 -6 -7 -8 -16 -5 -9 3 -12 2 -9 -5 4 -6 14 -8 22 -5 16 7 63 -21 63
-37 0 -7 -4 -7 -12 1 -7 7 -17 12 -23 12 -18 -1 29 -24 50 -25 11 0 20 -7 20
-15 0 -15 5 -17 58 -19 17 -1 27 -7 27 -16 0 -13 -4 -14 -20 -5 -11 6 -20 8
-20 5 0 -11 143 -76 157 -71 8 3 12 2 8 -3 -6 -11 130 -54 240 -75 259 -51
548 -42 793 26 84 23 213 73 301 118 34 16 61 28 61 24 0 -11 -207 -103 -310
-137 -193 -64 -248 -72 -515 -72 -256 0 -299 5 -492 61 -179 51 -404 187 -553
334 -84 83 -217 246 -246 302 -23 45 -10 33 41 -36z m4250 -823 c29 -99 46
-166 42 -169 -2 -2 -14 7 -27 21 -15 16 -26 44 -31 78 -9 59 -11 127 -5 127 3
0 12 -26 21 -57z m-3381 -122 c4 -5 -3 -7 -14 -4 -23 6 -26 13 -6 13 8 0 17
-4 20 -9z m3539 -58 c-18 -2 -48 -2 -65 0 -18 2 -4 4 32 4 36 0 50 -2 33 -4z"/>
<path d="M3388 4885 c6 -11 32 -40 58 -65 l48 -45 -54 60 c-29 33 -56 62 -58
65 -3 3 0 -4 6 -15z"/>
<path d="M7687 7414 c-15 -8 -122 -57 -238 -109 -209 -94 -248 -119 -249 -161
0 -46 43 -232 72 -307 31 -81 101 -178 223 -310 175 -187 329 -352 405 -432
47 -49 122 -128 166 -175 403 -428 1114 -1168 1210 -1260 55 -52 182 -176 284
-275 259 -253 429 -368 660 -447 188 -63 498 -93 719 -69 98 11 337 63 372 82
9 4 27 10 41 13 46 8 192 84 284 148 118 81 196 150 302 268 87 97 132 173
132 223 0 45 -60 330 -75 352 -7 12 -83 86 -169 165 -144 133 -207 179 -246
180 -8 0 -56 -33 -107 -74 -231 -186 -426 -266 -726 -297 -153 -16 -345 10
-486 65 -160 63 -258 133 -455 326 -156 152 -1100 1132 -1480 1535 -21 22
-122 132 -224 245 -293 322 -302 330 -348 330 -21 -1 -52 -8 -67 -16z m75 -10
c-9 -8 -20 -14 -23 -14 -14 0 -140 -63 -135 -67 2 -2 28 8 58 23 51 26 139 48
135 34 -5 -18 588 -681 1003 -1120 81 -85 288 -306 460 -490 376 -402 585
-610 700 -696 234 -177 542 -252 860 -210 295 39 489 123 685 296 95 83 102
82 218 -28 51 -48 116 -107 145 -131 28 -24 52 -50 52 -59 0 -27 -196 -211
-297 -279 -185 -127 -382 -209 -617 -259 -179 -38 -451 -44 -631 -15 -279 46
-503 152 -759 357 -60 48 -235 211 -389 363 -155 152 -271 263 -260 246 12
-16 47 -55 77 -85 31 -30 56 -61 56 -69 0 -8 2 -12 5 -9 6 6 155 -141 155
-154 0 -5 5 -6 10 -3 6 3 10 1 10 -6 0 -12 75 -87 129 -128 17 -13 29 -27 26
-31 -5 -8 34 -46 44 -42 3 1 6 -1 6 -5 0 -16 17 -33 26 -28 5 4 9 0 9 -7 0 -8
15 -22 33 -33 17 -10 46 -32 62 -47 17 -15 33 -28 38 -28 15 0 23 -5 45 -32
13 -16 28 -26 32 -23 5 3 23 -9 41 -27 17 -18 28 -27 25 -20 -4 6 -4 12 0 12
12 0 44 -32 44 -44 0 -6 31 -24 68 -40 37 -16 103 -46 147 -67 45 -22 89 -39
99 -39 20 0 106 -24 169 -46 20 -8 51 -14 67 -14 16 0 31 -3 34 -8 2 -4 -14
-6 -37 -4 -23 3 -39 1 -36 -2 12 -13 158 -21 354 -20 224 1 318 16 510 79 256
84 505 239 670 417 32 34 53 53 47 42 -6 -11 -54 -61 -106 -111 -386 -369
-972 -529 -1526 -416 -222 45 -445 155 -655 324 -100 81 -268 248 -1101 1099
-575 587 -1121 1155 -1273 1322 -23 25 -46 60 -51 77 -10 37 6 53 91 90 30 13
77 34 104 46 134 62 185 85 244 112 67 31 137 42 103 17z m118 -99 c13 -14 21
-25 18 -25 -2 0 -15 11 -28 25 -13 14 -21 25 -18 25 2 0 15 -11 28 -25z m1990
-3092 c30 -17 58 -25 82 -24 21 1 48 -5 60 -13 13 -8 39 -17 58 -21 33 -7 124
-68 115 -77 -6 -6 133 -44 230 -63 44 -9 132 -20 195 -25 l115 -9 -125 4
c-266 9 -557 95 -740 218 -63 43 -56 49 10 10z"/>
<path d="M7489 7281 c-48 -21 -108 -46 -135 -56 -58 -22 -94 -51 -94 -77 0
-11 -4 -16 -10 -13 -28 17 -3 -19 53 -76 34 -36 118 -125 187 -199 191 -205
206 -220 213 -214 3 3 -2 14 -11 23 -26 27 -134 143 -262 281 -118 126 -123
132 -151 153 -13 9 -14 19 -8 43 8 28 20 37 107 74 146 64 218 98 207 99 -5 0
-49 -17 -96 -38z"/>
<path d="M7710 6631 c0 -4 28 -33 62 -66 34 -33 56 -51 48 -40 -17 25 -110
114 -110 106z"/>
<path d="M7840 6502 c0 -15 58 -77 65 -70 3 3 -11 22 -30 44 -19 21 -34 33
-35 26z"/>
<path d="M7920 6423 c0 -11 60 -77 65 -71 2 2 -12 21 -31 43 -18 22 -34 35
-34 28z"/>
<path d="M8000 6330 c0 -5 5 -10 11 -10 5 0 7 5 4 10 -3 6 -8 10 -11 10 -2 0
-4 -4 -4 -10z"/>
<path d="M8040 6286 c0 -2 7 -9 15 -16 9 -7 15 -8 15 -2 0 5 -7 12 -15 16 -8
3 -15 4 -15 2z"/>
<path d="M8080 6254 c0 -6 11 -21 25 -34 32 -30 32 -21 0 16 -14 16 -25 24
-25 18z"/>
<path d="M8160 6180 c0 -9 34 -49 75 -90 41 -41 75 -70 75 -64 0 11 -63 79
-102 110 -13 10 -29 28 -36 39 -8 15 -11 16 -12 5z"/>
<path d="M8320 6013 c0 -11 89 -97 95 -91 2 2 -18 26 -45 52 -28 27 -50 45
-50 39z"/>
<path d="M8480 5850 c0 -5 5 -10 11 -10 5 0 7 5 4 10 -3 6 -8 10 -11 10 -2 0
-4 -4 -4 -10z"/>
<path d="M8505 5820 c3 -5 16 -15 28 -21 22 -12 22 -12 3 10 -19 21 -43 30
-31 11z"/>
<path d="M8643 5686 c0 -9 2 -14 4 -12 2 2 36 -29 74 -68 39 -39 66 -62 61
-51 -17 33 -139 148 -139 131z"/>
<path d="M8800 5534 c0 -5 30 -39 67 -74 l67 -65 -64 70 c-35 39 -65 72 -67
74 -2 2 -3 0 -3 -5z"/>
<path d="M6546 7413 c33 -4 63 -29 127 -101 20 -23 37 -39 37 -34 0 4 -29 38
-64 75 -56 58 -68 67 -97 65 l-34 -1 31 -4z"/>
<path d="M6430 7380 c-19 -11 -30 -19 -25 -19 6 0 26 8 45 19 19 11 31 19 25
19 -5 0 -26 -8 -45 -19z"/>
<path d="M10833 7383 c9 -2 23 -2 30 0 6 3 -1 5 -18 5 -16 0 -22 -2 -12 -5z"/>
<path d="M10893 7383 c9 -2 23 -2 30 0 6 3 -1 5 -18 5 -16 0 -22 -2 -12 -5z"/>
<path d="M10683 7373 c15 -2 39 -2 55 0 15 2 2 4 -28 4 -30 0 -43 -2 -27 -4z"/>
<path d="M11020 7373 c113 -12 354 -74 317 -81 -10 -2 -26 0 -35 4 -54 23
-229 45 -392 49 l-165 3 165 -8 c255 -12 429 -54 625 -150 101 -49 236 -131
267 -162 9 -9 28 -24 42 -33 14 -10 26 -25 26 -34 0 -9 -56 -72 -124 -140 -68
-67 -118 -120 -110 -117 9 4 14 -2 14 -16 0 -19 8 -14 56 32 59 58 135 149 96
116 -13 -11 -22 -14 -22 -7 0 6 7 14 15 17 8 4 12 11 8 18 -3 6 -1 6 8 -2 10
-10 19 -6 47 20 22 21 31 26 24 13 -17 -32 -221 -243 -242 -250 -12 -4 -58 14
-127 48 -195 97 -274 117 -498 124 -156 4 -196 2 -299 -16 -146 -27 -210 -48
-352 -116 -167 -81 -325 -210 -462 -378 -82 -100 -175 -279 -202 -384 -18 -71
-40 -62 -188 82 -162 156 -181 184 -192 270 -19 155 83 359 290 579 117 124
322 270 491 350 52 25 90 45 85 46 -18 0 -193 -88 -266 -135 -182 -117 -311
-232 -424 -378 -184 -238 -236 -407 -196 -640 10 -62 26 -130 35 -152 11 -27
73 -96 188 -212 141 -140 180 -173 215 -184 65 -19 88 3 133 127 43 122 73
180 134 264 63 86 96 121 108 113 6 -3 7 -2 4 4 -10 16 131 143 160 143 4 0
-3 -7 -15 -16 -12 -8 -22 -23 -21 -32 0 -13 2 -12 9 4 4 12 16 24 25 28 9 3
14 10 10 15 -3 6 3 15 14 20 14 8 20 8 23 0 2 -7 10 -4 18 7 9 11 10 15 3 10
-7 -4 -13 -3 -13 2 0 13 144 81 150 71 3 -4 17 -5 30 -2 l25 7 -25 6 c-21 5
-15 10 45 32 113 43 158 54 162 41 3 -7 11 -9 19 -6 12 4 13 8 4 13 -7 4 31
16 84 25 134 24 383 17 471 -14 33 -11 67 -21 75 -21 9 0 56 -20 105 -45 144
-73 201 -88 245 -65 10 5 55 56 99 112 45 57 102 129 128 161 58 71 59 91 14
291 -36 161 -37 164 -171 255 -109 75 -230 139 -350 187 -101 40 -349 95 -415
92 -40 -1 -40 -1 -5 -5z m375 -96 c16 -5 15 -5 -4 -4 -14 1 -26 9 -28 17 -3
10 -2 11 4 4 4 -7 17 -14 28 -17z m347 -493 c-23 -20 -40 -40 -36 -45 6 -10
-24 -25 -32 -16 -9 9 77 97 94 97 9 0 -2 -15 -26 -36z m-222 -379 c39 -19 70
-38 70 -40 0 -5 -139 62 -149 71 -13 12 18 0 79 -31z"/>
<path d="M10593 7363 c9 -2 23 -2 30 0 6 3 -1 5 -18 5 -16 0 -22 -2 -12 -5z"/>
<path d="M10538 7353 c7 -3 16 -2 19 1 4 3 -2 6 -13 5 -11 0 -14 -3 -6 -6z"/>
<path d="M6197 7276 c-94 -43 -164 -81 -173 -95 -20 -28 -16 -52 31 -170 85
-217 142 -322 273 -496 110 -146 201 -252 397 -465 34 -36 97 -105 140 -154
44 -50 170 -185 279 -300 195 -206 347 -363 1062 -1086 335 -340 454 -466 503
-538 44 -63 39 -62 481 -62 387 0 401 1 420 20 39 39 19 129 -68 310 l-45 95
-300 295 c-247 243 -724 737 -1062 1100 -38 41 -106 113 -150 160 -44 47 -127
137 -185 200 -58 63 -162 176 -231 250 -171 183 -354 383 -414 452 -44 49
-402 446 -428 473 -6 7 -8 6 -6 -2 2 -6 60 -75 128 -153 178 -204 175 -200
164 -211 -6 -6 -47 32 -118 111 -59 66 -110 120 -112 120 -3 0 8 -15 23 -33
16 -17 89 -101 163 -185 73 -84 136 -150 139 -147 3 3 -18 30 -47 59 -32 32
-50 59 -46 66 5 8 12 6 26 -6 10 -9 19 -21 19 -27 0 -5 13 -26 28 -46 38 -48
48 -66 34 -57 -30 18 -2 -17 136 -171 81 -91 188 -212 237 -268 85 -96 560
-616 704 -770 337 -361 797 -836 956 -988 85 -82 155 -153 155 -158 0 -5 -132
-9 -311 -9 l-311 0 -121 118 c-151 147 -650 652 -778 787 -52 55 -131 138
-174 185 -44 47 -118 126 -165 175 -47 50 -114 122 -149 160 -35 39 -92 99
-125 135 -69 73 -472 511 -668 726 -159 174 -275 295 -257 269 28 -42 187
-222 494 -560 306 -336 383 -420 670 -730 217 -233 534 -561 906 -936 l354
-356 110 2 c61 1 81 0 45 -2 -45 -3 -60 -7 -50 -13 11 -7 8 -10 -13 -10 -16 0
-26 -4 -22 -10 4 -6 121 -10 317 -10 171 0 309 -2 307 -4 -9 -9 -515 -19 -595
-12 l-79 7 -389 392 c-484 487 -960 992 -1721 1827 -143 156 -302 329 -354
385 -189 202 -216 242 -183 271 10 8 81 44 157 80 77 36 144 70 150 75 13 13
15 14 -158 -65z m-117 -256 c-1 -8 -9 1 -20 20 -25 46 -25 63 0 25 11 -16 20
-37 20 -45z m1081 -297 c13 -16 12 -17 -3 -4 -10 7 -18 15 -18 17 0 8 8 3 21
-13z m57 -63 c7 -11 11 -20 9 -20 -2 0 -12 9 -22 20 -10 11 -14 20 -9 20 5 0
15 -9 22 -20z m1615 -2317 c-7 -2 -19 -2 -25 0 -7 3 -2 5 12 5 14 0 19 -2 13
-5z m-107 -225 c16 -49 31 -88 35 -88 4 0 4 10 1 23 -5 21 -5 21 12 5 9 -10
15 -22 11 -28 -3 -5 29 -11 82 -13 l88 -3 -107 -2 c-106 -2 -108 -2 -141 28
-37 32 -54 84 -36 106 7 9 9 32 5 61 -6 45 -6 47 8 23 8 -14 27 -64 42 -112z"/>
<path d="M8696 4065 c4 -8 8 -15 10 -15 2 0 4 7 4 15 0 8 -4 15 -10 15 -5 0
-7 -7 -4 -15z"/>
<path d="M10488 7343 c6 -2 18 -2 25 0 6 3 1 5 -13 5 -14 0 -19 -2 -12 -5z"/>
<path d="M6600 7337 c0 -2 15 -16 33 -33 l32 -29 -29 33 c-28 30 -36 37 -36
29z"/>
<path d="M10448 7333 c7 -3 16 -2 19 1 4 3 -2 6 -13 5 -11 0 -14 -3 -6 -6z"/>
<path d="M10658 7333 c12 -2 30 -2 40 0 9 3 -1 5 -23 4 -22 0 -30 -2 -17 -4z"/>
<path d="M10408 7323 c7 -3 16 -2 19 1 4 3 -2 6 -13 5 -11 0 -14 -3 -6 -6z"/>
<path d="M10583 7323 c9 -2 25 -2 35 0 9 3 1 5 -18 5 -19 0 -27 -2 -17 -5z"/>
<path d="M10345 7310 c-13 -5 -14 -9 -5 -9 8 0 24 4 35 9 13 5 14 9 5 9 -8 0
-24 -4 -35 -9z"/>
<path d="M10490 7310 c-20 -6 -21 -8 -5 -8 11 0 34 4 50 8 27 7 27 8 5 8 -14
0 -36 -4 -50 -8z"/>
<path d="M10285 7290 c-13 -6 -15 -9 -5 -9 8 0 22 4 30 9 18 12 2 12 -25 0z"/>
<path d="M10415 7290 c-13 -5 -14 -9 -5 -9 8 0 24 4 35 9 13 5 14 9 5 9 -8 0
-24 -4 -35 -9z"/>
<path d="M3895 7260 c-3 -6 1 -7 9 -4 18 7 21 14 7 14 -6 0 -13 -4 -16 -10z"/>
<path d="M3938 7244 c-27 -13 -48 -27 -48 -29 0 -5 99 42 109 51 13 11 -20 0
-61 -22z"/>
<path d="M6680 7245 c13 -14 26 -25 28 -25 3 0 -5 11 -18 25 -13 14 -26 25
-28 25 -3 0 5 -11 18 -25z"/>
<path d="M10305 7255 c-39 -17 -21 -18 25 0 19 7 28 14 20 14 -8 0 -28 -6 -45
-14z"/>
<path d="M3835 7227 c-68 -39 -188 -123 -230 -161 -22 -20 -1 -7 47 28 47 35
118 83 157 106 39 23 71 44 71 46 0 6 -3 5 -45 -19z"/>
<path d="M10215 7221 c-22 -11 -35 -19 -30 -19 14 -1 93 36 80 37 -5 0 -28 -8
-50 -18z"/>
<path d="M6740 7175 c19 -19 36 -35 39 -35 3 0 -10 16 -29 35 -19 19 -36 35
-39 35 -3 0 10 -16 29 -35z"/>
<path d="M10150 7190 c-9 -6 -10 -10 -3 -10 6 0 15 5 18 10 8 12 4 12 -15 0z"/>
<path d="M10044 7134 c-18 -14 -18 -15 4 -4 12 6 22 13 22 15 0 8 -5 6 -26
-11z"/>
<path d="M9995 7110 c-3 -6 1 -7 9 -4 18 7 21 14 7 14 -6 0 -13 -4 -16 -10z"/>
<path d="M9907 7055 c-20 -14 -37 -28 -37 -31 0 -2 18 8 40 22 35 23 47 34 37
34 -1 0 -19 -11 -40 -25z"/>
<path d="M9769 6943 c-13 -16 -12 -17 4 -4 9 7 17 15 17 17 0 8 -8 3 -21 -13z"/>
<path d="M9714 6898 l-29 -33 33 29 c30 28 37 36 29 36 -2 0 -16 -15 -33 -32z"/>
<path d="M10973 6863 c9 -2 23 -2 30 0 6 3 -1 5 -18 5 -16 0 -22 -2 -12 -5z"/>
<path d="M11020 6860 c0 -6 17 -10 37 -10 43 0 41 5 -4 13 -19 4 -33 2 -33 -3z"/>
<path d="M9613 6793 c-136 -155 -221 -319 -248 -475 -4 -25 -2 -38 5 -38 6 0
9 4 6 8 -10 17 25 149 59 220 44 92 128 220 196 295 28 31 49 57 46 57 -3 0
-32 -30 -64 -67z"/>
<path d="M10712 6848 c-407 -44 -832 -356 -1011 -743 -13 -27 -37 -79 -54
-114 l-30 -64 23 -19 c12 -10 26 -18 30 -18 5 0 16 26 25 57 73 250 325 557
580 706 159 93 435 185 535 178 14 0 45 6 70 14 l45 15 -40 -6 c-48 -7 -54 -7
-80 -2 -11 3 -53 1 -93 -4z"/>
<path d="M11200 6834 c36 -16 59 -21 140 -29 40 -4 42 -4 15 5 -36 13 -162 40
-178 40 -7 -1 4 -8 23 -16z"/>
<path d="M11468 6758 c5 -5 16 -8 23 -6 8 3 3 7 -10 11 -17 4 -21 3 -13 -5z"/>
<path d="M9371 6237 c-1 -31 21 -82 50 -112 42 -45 138 -141 151 -150 68 -54
40 -17 -68 90 -90 88 -113 120 -124 168 -8 32 -8 32 -9 4z"/>
<path d="M3072 6040 c0 -14 2 -19 5 -12 2 6 2 18 0 25 -3 6 -5 1 -5 -13z"/>
</g>
</svg>
